SplineFontDB: 3.0
FontName: BabelStoneKhitanSmallGlyphs
FullName: BabelStone Khitan Small Glyphs
FamilyName: BabelStone Khitan Small Glyphs
Weight: Book
Copyright: BabelStone Khitan Small Glyphs (c) BabelStone. 2011. All Rights Reserved
Version: 1.009
ItalicAngle: 0
UnderlinePosition: -99
UnderlineWidth: 50
Ascent: 819
Descent: 205
InvalidEm: 0
sfntRevision: 0x0001024e
LayerCount: 2
Layer: 0 1 "Back" 1
Layer: 1 1 "Fore" 0
XUID: [1021 866 925171143 16401598]
StyleMap: 0x0040
FSType: 8
OS2Version: 3
OS2_WeightWidthSlopeOnly: 0
OS2_UseTypoMetrics: 0
CreationTime: 1243263473
ModificationTime: 1438120734
PfmFamily: 17
TTFWeight: 400
TTFWidth: 5
LineGap: 167
VLineGap: 0
Panose: 2 0 0 0 0 0 0 0 0 0
OS2TypoAscent: 704
OS2TypoAOffset: 0
OS2TypoDescent: -58
OS2TypoDOffset: 0
OS2TypoLinegap: 103
OS2WinAscent: 887
OS2WinAOffset: 0
OS2WinDescent: 124
OS2WinDOffset: 0
HheadAscent: 887
HheadAOffset: 0
HheadDescent: -124
HheadDOffset: 0
OS2SubXSize: 512
OS2SubYSize: 512
OS2SubXOff: 0
OS2SubYOff: 368
OS2SupXSize: 512
OS2SupYSize: 512
OS2SupXOff: 0
OS2SupYOff: 900
OS2StrikeYSize: 51
OS2StrikeYPos: 260
OS2CapHeight: 694
OS2XHeight: 495
OS2FamilyClass: 256
OS2Vendor: 'ACW '
OS2CodePages: 00160001.00000000
OS2UnicodeRanges: 00000003.10000000.00000000.00000000
DEI: 91125
TtTable: prep
NPUSHB
 1
 1
SCANTYPE
PUSHW_1
 511
SCANCTRL
EndTTInstrs
TtTable: fpgm
PUSHB_1
 0
FDEF
PUSHB_1
 64
SMD
RTG
DUP
IF
SVTCA[x-axis]
PUSHB_1
 1
LOOPCALL
IUP[x]
ELSE
POP
EIF
DUP
IF
SVTCA[y-axis]
PUSHB_1
 2
LOOPCALL
IUP[y]
ELSE
POP
EIF
ENDF
PUSHB_1
 1
FDEF
MDAP[rnd]
SLOOP
ALIGNRP
MDRP[rp0,min,rnd,black]
SLOOP
ALIGNRP
ENDF
PUSHB_1
 2
FDEF
MDAP[rnd]
SLOOP
ALIGNRP
MDRP[rp0,min,rnd,black]
SLOOP
ALIGNRP
ENDF
EndTTInstrs
ShortTable: cvt  4
  1
  0
  1
  0
EndShort
ShortTable: maxp 16
  1
  0
  575
  253
  7
  0
  0
  1
  0
  0
  10
  0
  2048
  48
  0
  0
EndShort

StartChar: .notdef
Encoding: 65536 -1 0
Width: 1024
Flags: W
LayerCount: 2
Fore
SplineSet
925 811 m 1,0,-1
 925 -34 l 1,1,-1
 98 -34 l 1,2,-1
 98 811 l 1,3,-1
 925 811 l 1,0,-1
123 -9 m 1,4,-1
 902 -9 l 1,5,-1
 902 786 l 1,6,-1
 123 786 l 1,7,-1
 123 -9 l 1,4,-1
652 658 m 0,9,10
 702 617 702 617 702 562 c 0,11,12
 700 495 700 495 606 423 c 0,13,14
 523 361 523 361 516 238 c 1,15,-1
 497 238 l 1,16,17
 494 369 494 369 578 450 c 0,18,19
 642 516 642 516 642 562 c 0,20,21
 641 616 641 616 604 649 c 0,22,23
 562 683 562 683 510 683 c 0,24,25
 450 683 450 683 417 653 c 0,26,27
 383 621 383 621 396 599 c 0,28,29
 411 577 411 577 412 558 c 0,30,31
 411 539 411 539 398 527 c 0,32,33
 385 516 385 516 370 516 c 0,34,35
 351 517 351 517 338 530 c 0,36,37
 323 549 323 549 323 571 c 0,38,39
 323 617 323 617 360 651 c 0,40,41
 419 704 419 704 510 704 c 0,42,8
 600 704 600 704 652 658 c 0,9,10
542 151 m 0,44,45
 555 138 555 138 556 116 c 0,46,47
 555 94 555 94 542 81 c 256,48,49
 529 68 529 68 508 68 c 0,50,51
 483 70 483 70 473 83 c 0,52,53
 460 97 460 97 461 116 c 0,54,55
 460 138 460 138 473 150 c 0,56,57
 486 163 486 163 508 163 c 0,58,43
 529 163 529 163 542 151 c 0,44,45
EndSplineSet
EndChar

StartChar: exclam
Encoding: 33 33 5
Width: 1024
Flags: W
LayerCount: 2
Fore
SplineSet
545 558 m 0,1,2
 528 468 528 468 524 266 c 1,3,-1
 497 266 l 1,4,5
 491 468 491 468 478 558 c 0,6,7
 465 635 465 635 466 656 c 0,8,9
 467 674 467 674 480 687 c 0,10,11
 495 700 495 700 514 701 c 0,12,13
 534 701 534 701 546 688 c 0,14,15
 557 675 557 675 558 656 c 0,16,0
 557 636 557 636 545 558 c 0,1,2
540 141 m 0,18,19
 552 129 552 129 552 111 c 0,20,21
 550 94 550 94 540 82 c 0,22,23
 527 71 527 71 511 70 c 0,24,25
 492 72 492 72 482 82 c 0,26,27
 469 95 469 95 470 111 c 0,28,29
 470 131 470 131 483 143 c 0,30,31
 495 152 495 152 511 152 c 0,32,17
 530 153 530 153 540 141 c 0,18,19
EndSplineSet
EndChar

StartChar: quotedbl
Encoding: 34 34 6
Width: 1024
Flags: W
LayerCount: 2
Fore
SplineSet
420 697 m 0,1,2
 431 708 431 708 444 708 c 0,3,4
 461 707 461 707 470 694 c 0,5,6
 478 681 478 681 478 668 c 0,7,8
 477 650 477 650 468 604 c 0,9,10
 459 553 459 553 459 507 c 1,11,-1
 426 507 l 1,12,13
 428 550 428 550 418 604 c 0,14,15
 409 653 409 653 410 666 c 0,16,0
 410 687 410 687 420 697 c 0,1,2
556 697 m 0,18,19
 567 708 567 708 580 708 c 0,20,21
 597 707 597 707 606 694 c 0,22,23
 614 681 614 681 614 668 c 0,24,25
 613 650 613 650 604 604 c 0,26,27
 595 553 595 553 595 507 c 1,28,-1
 562 507 l 1,29,30
 564 550 564 550 554 604 c 0,31,32
 545 653 545 653 546 666 c 0,33,17
 546 687 546 687 556 697 c 0,18,19
EndSplineSet
EndChar

StartChar: numbersign
Encoding: 35 35 7
Width: 1024
Flags: W
LayerCount: 2
Fore
SplineSet
369 321 m 1,0,-1
 315 54 l 1,1,-1
 297 54 l 1,2,-1
 351 321 l 1,3,-1
 270 321 l 1,4,-1
 270 373 l 1,5,-1
 362 373 l 1,6,-1
 404 573 l 1,7,-1
 282 573 l 1,8,-1
 282 625 l 1,9,-1
 415 625 l 1,10,-1
 461 844 l 1,11,-1
 479 844 l 1,12,-1
 433 625 l 1,13,-1
 664 625 l 1,14,-1
 710 844 l 1,15,-1
 728 844 l 1,16,-1
 682 625 l 1,17,-1
 754 625 l 1,18,-1
 754 573 l 1,19,-1
 671 573 l 1,20,-1
 629 373 l 1,21,-1
 742 373 l 1,22,-1
 742 321 l 1,23,-1
 618 321 l 1,24,-1
 564 54 l 1,25,-1
 546 54 l 1,26,-1
 600 321 l 1,27,-1
 369 321 l 1,0,-1
422 573 m 1,28,-1
 380 373 l 1,29,-1
 611 373 l 1,30,-1
 653 573 l 1,31,-1
 422 573 l 1,28,-1
EndSplineSet
EndChar

StartChar: dollar
Encoding: 36 36 8
Width: 1024
Flags: W
LayerCount: 2
Fore
SplineSet
284 198 m 0,1,2
 284 225 284 225 294 241 c 0,3,4
 303 254 303 254 319 254 c 0,5,6
 337 253 337 253 344 243 c 0,7,8
 353 229 353 229 353 213 c 256,9,10
 353 197 353 197 343 185 c 0,11,12
 332 172 332 172 332 157 c 0,13,14
 332 141 332 141 378 119 c 0,15,16
 433 93 433 93 499 89 c 1,17,-1
 499 367 l 1,18,19
 469 379 469 379 433 392 c 0,20,21
 295 446 295 446 295 542 c 0,22,23
 296 606 296 606 357 654 c 0,24,25
 417 700 417 700 499 703 c 1,26,-1
 499 742 l 1,27,-1
 516 742 l 1,28,-1
 516 703 l 1,29,30
 599 704 599 704 660 662 c 0,31,32
 725 620 725 620 725 568 c 0,33,34
 725 548 725 548 715 536 c 0,35,36
 705 523 705 523 690 523 c 0,37,38
 676 523 676 523 667 532 c 0,39,40
 656 542 656 542 656 557 c 256,41,42
 656 572 656 572 660 587 c 0,43,44
 665 601 665 601 665 614 c 0,45,46
 665 630 665 630 640 646 c 0,47,48
 577 682 577 682 516 681 c 1,49,-1
 516 421 l 1,50,51
 562 404 562 404 595 389 c 0,52,53
 656 366 656 366 699 323 c 0,54,55
 740 282 740 282 740 224 c 0,56,57
 740 159 740 159 671 113 c 0,58,59
 604 66 604 66 516 66 c 1,60,-1
 516 22 l 1,61,-1
 499 22 l 1,62,-1
 499 66 l 1,63,64
 408 70 408 70 342 110 c 1,65,0
 284 152 284 152 284 198 c 0,1,2
637 134 m 0,67,68
 688 172 688 172 688 224 c 0,69,70
 688 295 688 295 583 334 c 0,71,72
 556 345 556 345 516 360 c 1,73,-1
 516 89 l 1,74,66
 577 89 577 89 637 134 c 0,67,68
347 542 m 0,76,77
 347 484 347 484 435 450 c 0,78,79
 471 439 471 439 499 427 c 1,80,-1
 499 681 l 1,81,82
 437 679 437 679 401 652 c 0,83,75
 347 612 347 612 347 542 c 0,76,77
EndSplineSet
EndChar

StartChar: percent
Encoding: 37 37 9
Width: 1024
Flags: W
LayerCount: 2
Fore
SplineSet
514 663 m 0,1,2
 545 625 545 625 545 567 c 0,3,4
 545 514 545 514 508 478 c 0,5,6
 470 439 470 439 415 439 c 256,7,8
 360 439 360 439 323 476 c 0,9,10
 288 512 288 512 288 567 c 0,11,12
 288 620 288 620 318 659 c 0,13,14
 355 704 355 704 415 704 c 0,15,0
 480 703 480 703 514 663 c 0,1,2
340 567 m 0,17,18
 340 511 340 511 361 486 c 0,19,20
 382 462 382 462 415 462 c 0,21,22
 447 462 447 462 469 489 c 0,23,24
 493 516 493 516 493 567 c 0,25,26
 493 621 493 621 466 655 c 0,27,28
 446 682 446 682 415 682 c 0,29,30
 386 682 386 682 364 657 c 0,31,16
 340 625 340 625 340 567 c 0,17,18
698 293 m 0,33,34
 735 253 735 253 735 195 c 0,35,36
 735 142 735 142 698 105 c 0,37,38
 660 66 660 66 605 66 c 256,39,40
 550 66 550 66 514 103 c 0,41,42
 478 138 478 138 478 195 c 0,43,44
 479 248 479 248 510 287 c 0,45,46
 545 332 545 332 605 332 c 0,47,32
 664 332 664 332 698 293 c 0,33,34
530 195 m 0,49,50
 530 138 530 138 551 113 c 0,51,52
 572 89 572 89 605 89 c 256,53,54
 638 89 638 89 660 116 c 0,55,56
 683 143 683 143 683 195 c 0,57,58
 683 249 683 249 656 283 c 0,59,60
 636 310 636 310 605 310 c 0,61,62
 577 310 577 310 556 285 c 0,63,48
 530 253 530 253 530 195 c 0,49,50
704 704 m 1,64,-1
 322 66 l 1,65,-1
 303 66 l 1,66,-1
 685 704 l 1,67,-1
 704 704 l 1,64,-1
EndSplineSet
EndChar

StartChar: ampersand
Encoding: 38 38 10
Width: 1024
Flags: W
LayerCount: 2
Fore
SplineSet
667 103 m 0,1,2
 709 103 709 103 742 158 c 1,3,-1
 757 148 l 1,4,5
 713 66 713 66 667 66 c 0,6,7
 622 66 622 66 570 126 c 1,8,9
 504 66 504 66 428 66 c 0,10,11
 359 67 359 67 310 113 c 1,12,13
 266 160 266 160 266 233 c 0,14,15
 266 334 266 334 387 434 c 1,16,17
 363 503 363 503 363 555 c 0,18,19
 364 617 364 617 401 663 c 0,20,21
 436 704 436 704 490 704 c 0,22,23
 528 703 528 703 553 681 c 0,24,25
 584 654 584 654 584 618 c 0,26,27
 583 528 583 528 438 416 c 1,28,29
 466 352 466 352 512 271 c 0,30,31
 543 220 543 220 571 184 c 1,32,33
 574 188 574 188 577 191 c 0,34,35
 644 271 644 271 644 359 c 0,36,37
 644 418 644 418 566 418 c 1,38,-1
 566 435 l 1,39,-1
 746 435 l 1,40,-1
 746 418 l 1,41,42
 669 417 669 417 669 359 c 0,43,44
 669 240 669 240 596 153 c 1,45,0
 639 103 639 103 667 103 c 0,1,2
553 618 m 0,47,48
 553 647 553 647 534 663 c 0,49,50
 517 679 517 679 490 679 c 0,51,52
 447 679 447 679 428 652 c 0,53,54
 404 613 404 613 404 555 c 0,55,56
 405 515 405 515 421 460 c 1,57,46
 553 563 553 563 553 618 c 0,47,48
318 233 m 0,59,60
 318 181 318 181 352 153 c 0,61,62
 392 119 392 119 452 119 c 0,63,64
 498 120 498 120 543 157 c 1,65,66
 510 198 510 198 474 258 c 0,67,68
 430 331 430 331 405 389 c 1,69,58
 318 311 318 311 318 233 c 0,59,60
EndSplineSet
EndChar

StartChar: quotesingle
Encoding: 39 39 11
Width: 1024
Flags: W
LayerCount: 2
Fore
SplineSet
488 697 m 0,1,2
 499 708 499 708 512 707 c 0,3,4
 529 707 529 707 538 694 c 0,5,6
 546 681 546 681 546 668 c 0,7,8
 545 650 545 650 536 604 c 0,9,10
 527 553 527 553 527 507 c 1,11,-1
 494 507 l 1,12,13
 496 550 496 550 486 604 c 0,14,15
 477 653 477 653 478 666 c 0,16,0
 478 687 478 687 488 697 c 0,1,2
EndSplineSet
EndChar

StartChar: parenleft
Encoding: 40 40 12
Width: 1024
Flags: W
LayerCount: 2
Fore
SplineSet
643 822 m 1,0,1
 527 728 527 728 487 641 c 0,2,3
 432 527 432 527 432 388 c 0,4,5
 433 257 433 257 476 160 c 0,6,7
 525 55 525 55 643 -45 c 1,8,-1
 643 -68 l 1,9,10
 502 31 502 31 439 145 c 0,11,12
 380 250 380 250 380 388 c 0,13,14
 380 528 380 528 446 651 c 0,15,16
 510 762 510 762 643 844 c 1,17,-1
 643 822 l 1,0,1
EndSplineSet
EndChar

StartChar: parenright
Encoding: 41 41 13
Width: 1024
Flags: W
LayerCount: 2
Fore
SplineSet
583 631 m 0,1,2
 643 529 643 529 643 388 c 0,3,4
 642 248 642 248 581 136 c 0,5,6
 514 14 514 14 381 -68 c 1,7,-1
 381 -45 l 1,8,9
 495 51 495 51 537 139 c 0,10,11
 591 252 591 252 591 388 c 0,12,13
 591 520 591 520 539 634 c 0,14,15
 496 722 496 722 381 822 c 1,16,-1
 381 844 l 1,17,0
 520 745 520 745 583 631 c 0,1,2
EndSplineSet
EndChar

StartChar: asterisk
Encoding: 42 42 14
Width: 1024
Flags: W
LayerCount: 2
Fore
SplineSet
534 616 m 0,1,2
 534 614 534 614 533 611 c 0,3,4
 573 595 573 595 609 595 c 0,5,6
 646 595 646 595 659 582 c 0,7,8
 670 569 670 569 670 557 c 0,9,10
 669 544 669 544 659 537 c 0,11,12
 649 529 649 529 631 529 c 0,13,14
 601 529 601 529 574 565 c 0,15,16
 554 589 554 589 526 601 c 0,17,18
 521 599 521 599 518 596 c 0,19,20
 519 571 519 571 535 541 c 0,21,22
 550 517 550 517 550 502 c 0,23,24
 550 488 550 488 538 479 c 0,25,26
 527 470 527 470 511 470 c 0,27,28
 494 470 494 470 484 479 c 0,29,30
 472 489 472 489 472 502 c 0,31,32
 473 517 473 517 486 541 c 0,33,34
 503 571 503 571 503 596 c 1,35,36
 498 599 498 599 495 600 c 0,37,38
 458 583 458 583 436 555 c 0,39,40
 411 529 411 529 392 529 c 256,41,42
 373 529 373 529 363 538 c 0,43,44
 353 545 353 545 353 557 c 0,45,46
 353 573 353 573 366 583 c 0,47,48
 381 595 381 595 418 595 c 256,49,50
 455 595 455 595 488 611 c 1,51,-1
 488 620 l 1,52,53
 449 636 449 636 406 636 c 0,54,55
 378 636 378 636 365 648 c 0,56,57
 353 660 353 660 353 675 c 0,58,59
 353 688 353 688 362 695 c 0,60,61
 372 703 372 703 390 703 c 0,62,63
 420 703 420 703 442 673 c 0,64,65
 463 646 463 646 494 630 c 1,66,67
 499 634 499 634 506 634 c 1,68,69
 506 659 506 659 485 693 c 0,70,71
 472 715 472 715 472 730 c 0,72,73
 472 743 472 743 484 753 c 0,74,75
 496 762 496 762 511 762 c 0,76,77
 527 761 527 761 537 754 c 0,78,79
 550 743 550 743 550 730 c 0,80,81
 549 716 549 716 536 692 c 0,82,83
 518 658 518 658 518 634 c 1,84,85
 523 632 523 632 526 631 c 0,86,87
 527 630 527 630 527 629 c 1,88,89
 556 646 556 646 575 673 c 0,90,91
 600 703 600 703 628 703 c 0,92,93
 649 702 649 702 659 695 c 0,94,95
 670 685 670 685 670 675 c 0,96,97
 670 664 670 664 658 652 c 0,98,99
 642 637 642 637 605 636 c 0,100,101
 561 636 561 636 533 618 c 1,102,0
 534 617 534 617 534 616 c 0,1,2
EndSplineSet
EndChar

StartChar: plus
Encoding: 43 43 15
Width: 1024
Flags: W
LayerCount: 2
Fore
SplineSet
534 416 m 1,0,-1
 732 416 l 1,1,-1
 732 372 l 1,2,-1
 534 372 l 1,3,-1
 534 174 l 1,4,-1
 490 174 l 1,5,-1
 490 372 l 1,6,-1
 292 372 l 1,7,-1
 292 416 l 1,8,-1
 490 416 l 1,9,-1
 490 614 l 1,10,-1
 534 614 l 1,11,-1
 534 416 l 1,0,-1
EndSplineSet
EndChar

StartChar: comma
Encoding: 44 44 16
Width: 1024
Flags: W
LayerCount: 2
Fore
SplineSet
580 154 m 0,1,2
 597 135 597 135 597 90 c 0,3,4
 595 65 595 65 582 44 c 0,5,6
 564 18 564 18 525 -6 c 0,7,8
 483 -32 483 -32 438 -48 c 1,9,-1
 427 -25 l 1,10,11
 474 -10 474 -10 511 9 c 0,12,13
 542 28 542 28 543 44 c 0,14,15
 545 59 545 59 535 59 c 0,16,17
 503 59 503 59 488 74 c 0,18,19
 473 90 473 90 473 112 c 0,20,21
 473 141 473 141 489 157 c 0,22,23
 507 175 507 175 532 175 c 0,24,0
 562 175 562 175 580 154 c 0,1,2
EndSplineSet
EndChar

StartChar: hyphen
Encoding: 45 45 17
Width: 1024
Flags: W
LayerCount: 2
Fore
SplineSet
732 416 m 1,0,-1
 732 372 l 1,1,-1
 292 372 l 1,2,-1
 292 416 l 1,3,-1
 732 416 l 1,0,-1
EndSplineSet
EndChar

StartChar: period
Encoding: 46 46 18
Width: 1024
Flags: W
LayerCount: 2
Fore
SplineSet
557 168 m 0,1,2
 574 151 574 151 574 123 c 256,3,4
 574 95 574 95 556 77 c 0,5,6
 537 59 537 59 512 59 c 0,7,8
 486 60 486 60 467 79 c 0,9,10
 450 96 450 96 450 123 c 0,11,12
 451 152 451 152 467 168 c 0,13,14
 485 186 485 186 512 186 c 256,15,0
 539 186 539 186 557 168 c 0,1,2
EndSplineSet
EndChar

StartChar: slash
Encoding: 47 47 19
Width: 1024
Flags: W
LayerCount: 2
Fore
SplineSet
759 836 m 1,0,-1
 316 -76 l 1,1,-1
 264 -76 l 1,2,-1
 707 836 l 1,3,-1
 759 836 l 1,0,-1
EndSplineSet
EndChar

StartChar: zero
Encoding: 48 48 20
Width: 1024
Flags: W
LayerCount: 2
Fore
SplineSet
516 704 m 0,1,2
 598 704 598 704 653 620 c 0,3,4
 718 527 718 527 718 383 c 0,5,6
 717 252 717 252 653 158 c 0,7,8
 590 66 590 66 514 66 c 0,9,10
 436 66 436 66 369 159 c 0,11,12
 305 246 305 246 305 373 c 0,13,14
 305 513 305 513 372 607 c 0,15,0
 438 704 438 704 516 704 c 0,1,2
357 373 m 0,17,18
 358 246 358 246 413 167 c 0,19,20
 466 94 466 94 514 94 c 0,21,22
 564 94 564 94 610 157 c 0,23,24
 666 242 666 242 666 383 c 0,25,26
 665 515 665 515 607 609 c 0,27,28
 564 676 564 676 516 676 c 0,29,30
 463 676 463 676 411 589 c 0,31,16
 357 490 357 490 357 373 c 0,17,18
EndSplineSet
EndChar

StartChar: one
Encoding: 49 49 21
Width: 1024
Flags: W
LayerCount: 2
Fore
SplineSet
659 93 m 1,1,-1
 659 76 l 1,2,-1
 380 76 l 1,3,-1
 380 93 l 1,4,5
 496 93 496 93 496 159 c 2,6,-1
 496 581 l 2,7,8
 495 634 495 634 365 634 c 1,9,-1
 365 651 l 1,10,-1
 534 694 l 1,11,-1
 545 694 l 1,12,-1
 545 159 l 2,13,0
 545 93 545 93 659 93 c 1,1,-1
EndSplineSet
EndChar

StartChar: two
Encoding: 50 50 22
Width: 1024
Flags: W
LayerCount: 2
Fore
SplineSet
304 76 m 1,0,1
 304 156 304 156 350 208 c 1,2,3
 397 271 397 271 532 365 c 0,4,5
 668 455 668 455 668 531 c 0,6,7
 668 596 668 596 613 641 c 0,8,9
 569 676 569 676 508 676 c 0,10,11
 449 674 449 674 412 655 c 0,12,13
 369 633 369 633 365 611 c 0,14,15
 361 593 361 593 370 577 c 0,16,17
 380 558 380 558 380 530 c 0,18,19
 380 521 380 521 370 511 c 256,20,21
 360 501 360 501 347 501 c 0,22,23
 330 501 330 501 318 513 c 0,24,25
 306 526 306 526 306 545 c 0,26,27
 307 606 307 606 368 657 c 0,28,29
 426 704 426 704 508 704 c 0,30,31
 607 703 607 703 662 654 c 0,32,33
 720 600 720 600 720 531 c 0,34,35
 720 444 720 444 545 338 c 0,36,37
 427 262 427 262 384 207 c 1,38,39
 350 172 350 172 341 121 c 1,40,-1
 546 121 l 2,41,42
 648 121 648 121 702 199 c 1,43,-1
 714 194 l 1,44,-1
 671 76 l 1,45,-1
 304 76 l 1,0,1
EndSplineSet
EndChar

StartChar: three
Encoding: 51 51 23
Width: 1024
Flags: W
LayerCount: 2
Fore
SplineSet
653 108 m 0,1,2
 593 66 593 66 514 66 c 0,3,4
 421 66 421 66 361 115 c 0,5,6
 308 160 308 160 308 215 c 0,7,8
 309 231 309 231 319 243 c 0,9,10
 329 253 329 253 344 253 c 0,11,12
 357 252 357 252 367 242 c 0,13,14
 377 233 377 233 377 215 c 0,15,16
 376 200 376 200 369 190 c 256,17,18
 362 180 362 180 362 164 c 0,19,20
 361 146 361 146 409 118 c 0,21,22
 453 95 453 95 514 94 c 0,23,24
 569 95 569 95 621 129 c 0,25,26
 664 159 664 159 664 234 c 0,27,28
 663 305 663 305 620 341 c 1,29,30
 576 372 576 372 521 372 c 0,31,32
 507 372 507 372 495 365 c 0,33,34
 481 357 481 357 471 357 c 0,35,36
 442 358 442 358 442 386 c 0,37,38
 443 413 443 413 471 413 c 0,39,40
 483 413 483 413 496 406 c 0,41,42
 508 400 508 400 521 400 c 0,43,44
 548 400 548 400 594 436 c 0,45,46
 644 476 644 476 644 546 c 0,47,48
 644 612 644 612 601 645 c 0,49,50
 560 676 560 676 511 676 c 0,51,52
 450 675 450 675 410 644 c 1,53,54
 377 613 377 613 387 594 c 0,55,56
 398 574 398 574 399 552 c 0,57,58
 399 534 399 534 389 524 c 0,59,60
 380 513 380 513 365 513 c 0,61,62
 351 514 351 514 341 524 c 0,63,64
 330 536 330 536 330 552 c 0,65,66
 330 614 330 614 388 660 c 0,67,68
 438 704 438 704 511 704 c 0,69,70
 597 704 597 704 642 662 c 0,71,72
 696 612 696 612 696 546 c 0,73,74
 695 453 695 453 604 407 c 0,75,76
 588 399 588 399 576 392 c 1,77,78
 595 387 595 387 616 380 c 0,79,80
 716 345 716 345 716 234 c 0,81,0
 716 157 716 157 653 108 c 0,1,2
EndSplineSet
EndChar

StartChar: four
Encoding: 52 52 24
Width: 1024
Flags: W
LayerCount: 2
Fore
SplineSet
735 246 m 1,0,-1
 735 207 l 1,1,-1
 618 207 l 1,2,-1
 618 150 l 2,3,4
 618 93 618 93 711 93 c 1,5,-1
 711 76 l 1,6,-1
 476 76 l 1,7,-1
 476 93 l 1,8,9
 569 93 569 93 569 150 c 2,10,-1
 569 207 l 1,11,-1
 289 207 l 1,12,-1
 289 253 l 1,13,-1
 595 694 l 1,14,-1
 618 694 l 1,15,-1
 618 246 l 1,16,-1
 735 246 l 1,0,-1
569 623 m 1,17,-1
 312 246 l 1,18,-1
 569 246 l 1,19,-1
 569 623 l 1,17,-1
EndSplineSet
EndChar

StartChar: five
Encoding: 53 53 25
Width: 1024
Flags: W
LayerCount: 2
Fore
SplineSet
663 632 m 1,0,-1
 375 632 l 1,1,-1
 375 403 l 1,2,3
 437 451 437 451 525 451 c 0,4,5
 600 450 600 450 652 407 c 0,6,7
 719 350 719 350 719 247 c 0,8,9
 719 163 719 163 653 111 c 0,10,11
 596 66 596 66 509 66 c 0,12,13
 424 66 424 66 355 114 c 0,14,15
 304 147 304 147 304 187 c 0,16,17
 304 204 304 204 314 214 c 0,18,19
 325 223 325 223 338 223 c 0,20,21
 352 223 352 223 362 211 c 0,22,23
 373 200 373 200 373 187 c 0,24,25
 371 177 371 177 367 171 c 0,26,27
 362 162 362 162 362 153 c 0,28,29
 362 143 362 143 402 119 c 0,30,31
 445 94 445 94 509 94 c 0,32,33
 565 94 565 94 613 130 c 0,34,35
 667 174 667 174 667 247 c 0,36,37
 666 331 666 331 608 377 c 0,38,39
 563 412 563 412 499 412 c 0,40,41
 439 411 439 411 366 380 c 1,42,-1
 359 388 l 1,43,-1
 359 682 l 1,44,-1
 685 682 l 1,45,-1
 663 632 l 1,0,-1
EndSplineSet
EndChar

StartChar: six
Encoding: 54 54 26
Width: 1024
Flags: W
LayerCount: 2
Fore
SplineSet
551 704 m 0,1,2
 603 704 603 704 649 671 c 0,3,4
 696 638 696 638 696 593 c 0,5,6
 696 579 696 579 684 569 c 0,7,8
 673 561 673 561 663 561 c 0,9,10
 651 561 651 561 641 570 c 0,11,12
 631 580 631 580 631 593 c 0,13,14
 630 613 630 613 637 626 c 0,15,16
 643 640 643 640 616 659 c 0,17,18
 587 682 587 682 551 682 c 0,19,20
 476 682 476 682 421 604 c 1,21,22
 363 529 363 529 357 375 c 1,23,24
 460 465 460 465 548 465 c 0,25,26
 613 465 613 465 662 420 c 0,27,28
 718 370 718 370 718 261 c 0,29,30
 718 178 718 178 657 118 c 0,31,32
 601 66 601 66 517 66 c 0,33,34
 428 66 428 66 364 141 c 0,35,36
 305 211 305 211 305 334 c 0,37,38
 306 491 306 491 379 603 c 0,39,0
 448 704 448 704 551 704 c 0,1,2
403 150 m 0,41,42
 451 94 451 94 517 94 c 0,43,44
 579 94 579 94 625 133 c 0,45,46
 666 173 666 173 666 261 c 256,47,48
 666 349 666 349 629 388 c 0,49,50
 591 426 591 426 527 426 c 0,51,52
 469 425 469 425 357 343 c 1,53,-1
 357 334 l 2,54,40
 357 207 357 207 403 150 c 0,41,42
EndSplineSet
EndChar

StartChar: seven
Encoding: 55 55 27
Width: 1024
Flags: W
LayerCount: 2
Fore
SplineSet
717 649 m 1,0,1
 601 499 601 499 555 390 c 0,2,3
 514 286 514 286 514 126 c 0,4,5
 514 101 514 101 505 91 c 0,6,7
 496 80 496 80 483 80 c 0,8,9
 468 80 468 80 461 90 c 0,10,11
 454 101 454 101 454 126 c 0,12,13
 454 227 454 227 502 342 c 0,14,15
 551 456 551 456 683 634 c 1,16,-1
 564 634 l 2,17,18
 470 633 470 633 418 608 c 0,19,20
 372 588 372 588 323 485 c 1,21,-1
 307 490 l 1,22,-1
 363 684 l 1,23,-1
 717 684 l 1,24,-1
 717 649 l 1,0,1
EndSplineSet
EndChar

StartChar: eight
Encoding: 56 56 28
Width: 1024
Flags: W
LayerCount: 2
Fore
SplineSet
356 116 m 0,1,2
 297 161 297 161 297 228 c 0,3,4
 297 267 297 267 331 313 c 0,5,6
 357 351 357 351 451 394 c 1,7,8
 389 427 389 427 364 458 c 0,9,10
 325 502 325 502 325 548 c 0,11,12
 325 616 325 616 382 662 c 0,13,14
 434 704 434 704 512 704 c 0,15,16
 580 704 580 704 628 667 c 1,17,18
 692 626 692 626 692 560 c 0,19,20
 691 525 691 525 666 492 c 0,21,22
 640 458 640 458 546 410 c 1,23,24
 658 362 658 362 694 317 c 0,25,26
 727 278 727 278 727 238 c 0,27,28
 727 169 727 169 673 123 c 0,29,30
 610 66 610 66 514 66 c 0,31,0
 422 67 422 67 356 116 c 0,1,2
523 361 m 0,33,34
 501 372 501 372 482 379 c 1,35,36
 393 335 393 335 375 304 c 0,37,38
 349 265 349 265 349 228 c 0,39,40
 349 171 349 171 392 137 c 0,41,42
 444 94 444 94 514 94 c 0,43,44
 576 94 576 94 631 130 c 0,45,46
 680 165 680 165 680 225 c 0,47,48
 680 255 680 255 652 286 c 0,49,32
 623 319 623 319 523 361 c 0,33,34
517 422 m 1,51,52
 593 457 593 457 621 493 c 0,53,54
 649 530 649 530 649 570 c 0,55,56
 648 614 648 614 608 647 c 0,57,58
 567 676 567 676 512 676 c 0,59,60
 451 676 451 676 408 643 c 0,61,62
 368 610 368 610 368 565 c 0,63,64
 368 528 368 528 396 495 c 256,65,50
 424 462 424 462 517 422 c 1,51,52
EndSplineSet
EndChar

StartChar: nine
Encoding: 57 57 29
Width: 1024
Flags: W
LayerCount: 2
Fore
SplineSet
473 66 m 0,1,2
 409 67 409 67 363 98 c 0,3,4
 317 128 317 128 317 161 c 0,5,6
 316 179 316 179 326 188 c 256,7,8
 336 197 336 197 348 198 c 0,9,10
 364 198 364 198 374 185 c 0,11,12
 382 174 382 174 383 150 c 0,13,14
 383 118 383 118 408 106 c 0,15,16
 437 91 437 91 473 91 c 0,17,18
 544 91 544 91 604 161 c 0,19,20
 667 240 667 240 667 397 c 1,21,22
 595 292 595 292 495 292 c 0,23,24
 409 293 409 293 355 348 c 1,25,26
 303 407 303 407 303 495 c 0,27,28
 303 581 303 581 366 648 c 0,29,30
 423 704 423 704 511 704 c 0,31,32
 609 704 609 704 666 626 c 0,33,34
 720 553 720 553 720 399 c 0,35,36
 719 253 719 253 649 154 c 0,37,0
 587 66 587 66 473 66 c 0,1,2
355 495 m 0,39,40
 355 412 355 412 400 372 c 0,41,42
 443 331 443 331 495 331 c 0,43,44
 549 331 549 331 600 367 c 0,45,46
 633 393 633 393 667 438 c 1,47,48
 661 571 661 571 627 617 c 0,49,50
 580 676 580 676 511 676 c 0,51,52
 441 676 441 676 398 628 c 0,53,38
 355 579 355 579 355 495 c 0,39,40
EndSplineSet
EndChar

StartChar: colon
Encoding: 58 58 30
Width: 1024
Flags: W
LayerCount: 2
Fore
SplineSet
558 528 m 0,1,2
 574 511 574 511 574 483 c 0,3,4
 574 456 574 456 555 437 c 0,5,6
 537 419 537 419 512 419 c 0,7,8
 485 420 485 420 467 439 c 0,9,10
 450 456 450 456 450 483 c 0,11,12
 451 512 451 512 467 528 c 0,13,14
 485 547 485 547 512 547 c 256,15,0
 539 547 539 547 558 528 c 0,1,2
557 254 m 0,17,18
 574 237 574 237 574 209 c 256,19,20
 574 181 574 181 556 163 c 0,21,22
 537 145 537 145 512 145 c 0,23,24
 486 146 486 146 467 165 c 0,25,26
 450 182 450 182 450 209 c 0,27,28
 451 238 451 238 467 254 c 0,29,30
 485 272 485 272 512 272 c 256,31,16
 539 272 539 272 557 254 c 0,17,18
EndSplineSet
EndChar

StartChar: semicolon
Encoding: 59 59 31
Width: 1024
Flags: W
LayerCount: 2
Fore
SplineSet
580 241 m 0,1,2
 597 222 597 222 597 177 c 0,3,4
 596 151 596 151 581 129 c 0,5,6
 564 105 564 105 525 81 c 0,7,8
 483 55 483 55 438 39 c 1,9,-1
 427 62 l 1,10,11
 474 77 474 77 511 96 c 0,12,13
 543 114 543 114 544 130 c 256,14,15
 545 146 545 146 535 146 c 0,16,17
 503 146 503 146 488 162 c 0,18,19
 473 177 473 177 473 199 c 0,20,21
 473 228 473 228 489 244 c 0,22,23
 507 262 507 262 532 262 c 0,24,0
 562 262 562 262 580 241 c 0,1,2
581 527 m 0,26,27
 597 511 597 511 597 483 c 0,28,29
 597 457 597 457 578 439 c 0,30,31
 562 423 562 423 535 423 c 256,32,33
 508 423 508 423 490 441 c 0,34,35
 473 458 473 458 473 483 c 0,36,37
 474 512 474 512 490 528 c 0,38,39
 510 546 510 546 535 546 c 0,40,25
 562 546 562 546 581 527 c 0,26,27
EndSplineSet
EndChar

StartChar: less
Encoding: 60 60 32
Width: 1024
Flags: W
LayerCount: 2
Fore
SplineSet
745 536 m 1,0,-1
 330 390 l 1,1,-1
 745 215 l 1,2,-1
 745 175 l 1,3,-1
 278 372 l 1,4,-1
 278 412 l 1,5,-1
 745 576 l 1,6,-1
 745 536 l 1,0,-1
EndSplineSet
EndChar

StartChar: equal
Encoding: 61 61 33
Width: 1024
Flags: W
LayerCount: 2
Fore
SplineSet
745 484 m 1,0,-1
 745 444 l 1,1,-1
 278 444 l 1,2,-1
 278 484 l 1,3,-1
 745 484 l 1,0,-1
745 269 m 1,4,-1
 745 229 l 1,5,-1
 278 229 l 1,6,-1
 278 269 l 1,7,-1
 745 269 l 1,4,-1
EndSplineSet
EndChar

StartChar: greater
Encoding: 62 62 34
Width: 1024
Flags: W
LayerCount: 2
Fore
SplineSet
745 378 m 1,0,-1
 278 181 l 1,1,-1
 278 221 l 1,2,-1
 693 396 l 1,3,-1
 278 542 l 1,4,-1
 278 582 l 1,5,-1
 745 418 l 1,6,-1
 745 378 l 1,0,-1
EndSplineSet
EndChar

StartChar: question
Encoding: 63 63 35
Width: 1024
Flags: W
LayerCount: 2
Fore
SplineSet
651 658 m 0,1,2
 701 617 701 617 701 562 c 0,3,4
 699 495 699 495 605 423 c 0,5,6
 522 361 522 361 515 238 c 1,7,-1
 496 238 l 1,8,9
 493 369 493 369 577 450 c 0,10,11
 641 516 641 516 641 562 c 0,12,13
 640 616 640 616 603 649 c 0,14,15
 561 683 561 683 509 683 c 0,16,17
 449 683 449 683 416 653 c 0,18,19
 382 621 382 621 395 599 c 0,20,21
 410 577 410 577 411 558 c 0,22,23
 410 539 410 539 397 527 c 0,24,25
 384 516 384 516 369 516 c 0,26,27
 350 517 350 517 337 530 c 0,28,29
 322 549 322 549 322 571 c 0,30,31
 322 617 322 617 359 651 c 0,32,33
 418 704 418 704 509 704 c 0,34,0
 599 704 599 704 651 658 c 0,1,2
541 151 m 0,36,37
 554 138 554 138 555 116 c 0,38,39
 554 94 554 94 541 81 c 256,40,41
 528 68 528 68 507 68 c 0,42,43
 482 70 482 70 472 83 c 0,44,45
 459 97 459 97 460 116 c 0,46,47
 459 138 459 138 472 150 c 0,48,49
 485 163 485 163 507 163 c 0,50,35
 528 163 528 163 541 151 c 0,36,37
EndSplineSet
EndChar

StartChar: at
Encoding: 64 64 36
Width: 1024
Flags: W
LayerCount: 2
Fore
SplineSet
648 201 m 0,1,2
 673 201 673 201 698 241 c 0,3,4
 728 291 728 291 728 358 c 0,5,6
 728 460 728 460 673 511 c 0,7,8
 621 557 621 557 546 557 c 0,9,10
 449 556 449 556 389 501 c 0,11,12
 321 437 321 437 321 334 c 0,13,14
 322 217 322 217 380 156 c 0,15,16
 438 94 438 94 538 94 c 0,17,18
 593 94 593 94 684 142 c 1,19,-1
 693 127 l 1,20,21
 596 66 596 66 517 66 c 0,22,23
 411 66 411 66 342 138 c 0,24,25
 269 213 269 213 269 334 c 0,26,27
 269 448 269 448 342 515 c 1,28,29
 415 590 415 590 533 590 c 0,30,31
 623 590 623 590 690 527 c 0,32,33
 754 467 754 467 754 358 c 0,34,35
 753 257 753 257 710 203 c 0,36,37
 671 150 671 150 628 150 c 0,38,39
 602 150 602 150 589 165 c 0,40,41
 584 170 584 170 581 177 c 1,42,43
 545 148 545 148 514 148 c 0,44,45
 468 149 468 149 437 189 c 0,46,47
 401 234 401 234 401 316 c 0,48,49
 401 403 401 403 440 460 c 0,50,51
 476 512 476 512 521 512 c 0,52,53
 540 511 540 511 576 489 c 1,54,-1
 576 504 l 1,55,-1
 628 504 l 1,56,-1
 628 209 l 2,57,0
 629 201 629 201 648 201 c 0,1,2
453 316 m 0,59,60
 454 233 454 233 476 203 c 0,61,62
 496 176 496 176 524 176 c 0,63,64
 540 176 540 176 576 207 c 0,65,66
 577 208 577 208 576 209 c 2,67,-1
 576 458 l 1,68,69
 545 479 545 479 535 479 c 0,70,71
 504 479 504 479 482 446 c 0,72,58
 453 398 453 398 453 316 c 0,59,60
EndSplineSet
EndChar

StartChar: A
Encoding: 65 65 37
Width: 1024
Flags: W
LayerCount: 2
Fore
SplineSet
757 89 m 1,1,-1
 757 76 l 1,2,-1
 599 76 l 1,3,-1
 599 89 l 1,4,5
 635 90 635 90 648 100 c 1,6,7
 657 112 657 112 647 148 c 2,8,-1
 597 304 l 1,9,-1
 390 304 l 1,10,-1
 336 131 l 2,11,12
 329 105 329 105 333 98 c 0,13,14
 339 90 339 90 370 89 c 1,15,-1
 370 76 l 1,16,-1
 266 76 l 1,17,-1
 266 89 l 1,18,19
 304 91 304 91 317 131 c 2,20,-1
 375 319 l 1,21,-1
 375 321 l 1,22,-1
 484 668 l 1,23,-1
 531 694 l 1,24,-1
 699 148 l 2,25,0
 717 89 717 89 757 89 c 1,1,-1
395 321 m 1,26,-1
 592 321 l 1,27,-1
 494 633 l 1,28,-1
 395 321 l 1,26,-1
EndSplineSet
EndChar

StartChar: B
Encoding: 66 66 38
Width: 1024
Flags: W
LayerCount: 2
Fore
SplineSet
280 677 m 1,1,-1
 280 694 l 1,2,-1
 535 694 l 2,3,4
 586 694 586 694 641 651 c 0,5,6
 700 607 700 607 700 540 c 0,7,8
 700 486 700 486 646 444 c 0,9,10
 607 414 607 414 567 399 c 1,11,12
 624 387 624 387 670 359 c 0,13,14
 744 316 744 316 744 238 c 0,15,16
 744 167 744 167 687 125 c 0,17,18
 621 76 621 76 500 76 c 2,19,-1
 280 76 l 1,20,-1
 280 93 l 1,21,22
 345 94 345 94 345 149 c 2,23,-1
 345 618 l 2,24,0
 344 677 344 677 280 677 c 1,1,-1
397 149 m 2,25,26
 397 99 397 99 500 99 c 0,27,28
 596 100 596 100 647 140 c 0,29,30
 692 172 692 172 692 238 c 0,31,32
 692 301 692 301 625 346 c 0,33,34
 567 385 567 385 476 385 c 2,35,-1
 397 385 l 1,36,-1
 397 149 l 2,25,26
397 408 m 1,37,-1
 476 408 l 2,38,39
 558 409 558 409 601 446 c 0,40,41
 648 485 648 485 648 540 c 0,42,43
 647 603 647 603 604 637 c 0,44,45
 560 672 560 672 481 672 c 0,46,47
 397 672 397 672 397 618 c 2,48,-1
 397 408 l 1,37,-1
EndSplineSet
EndChar

StartChar: C
Encoding: 67 67 39
Width: 1024
Flags: W
LayerCount: 2
Fore
SplineSet
572 704 m 0,1,2
 648 705 648 705 723 653 c 1,3,-1
 718 558 l 1,4,-1
 702 552 l 1,5,6
 685 603 685 603 654 640 c 0,7,8
 621 677 621 677 572 676 c 0,9,10
 485 675 485 675 415 587 c 0,11,12
 343 497 343 497 343 368 c 0,13,14
 343 250 343 250 418 165 c 0,15,16
 475 103 475 103 557 103 c 0,17,18
 593 104 593 104 633 126 c 0,19,20
 671 149 671 149 716 222 c 1,21,-1
 732 214 l 1,22,23
 666 67 666 67 557 66 c 0,24,25
 435 66 435 66 363 156 c 0,26,27
 291 248 291 248 291 368 c 0,28,29
 291 502 291 502 360 593 c 0,30,0
 446 704 446 704 572 704 c 0,1,2
EndSplineSet
EndChar

StartChar: D
Encoding: 68 68 40
Width: 1024
Flags: W
LayerCount: 2
Fore
SplineSet
281 677 m 1,1,-1
 281 694 l 1,2,-1
 509 694 l 2,3,4
 583 694 583 694 656 621 c 0,5,6
 743 538 743 538 743 382 c 0,7,8
 742 223 742 223 669 145 c 0,9,10
 601 76 601 76 474 76 c 2,11,-1
 281 76 l 1,12,-1
 281 93 l 1,13,14
 346 93 346 93 346 160 c 2,15,-1
 346 613 l 2,16,0
 345 677 345 677 281 677 c 1,1,-1
398 160 m 2,17,18
 398 99 398 99 474 99 c 0,19,20
 554 99 554 99 626 168 c 0,21,22
 691 234 691 234 691 382 c 0,23,24
 691 532 691 532 624 607 c 0,25,26
 564 672 564 672 476 672 c 0,27,28
 398 671 398 671 398 613 c 2,29,-1
 398 160 l 2,17,18
EndSplineSet
EndChar

StartChar: E
Encoding: 69 69 41
Width: 1024
Flags: W
LayerCount: 2
Fore
SplineSet
288 677 m 1,1,-1
 288 694 l 1,2,-1
 735 694 l 1,3,-1
 735 539 l 1,4,-1
 722 539 l 1,5,6
 719 623 719 623 676 648 c 0,7,8
 636 672 636 672 512 672 c 0,9,10
 405 672 405 672 405 611 c 2,11,-1
 405 400 l 1,12,-1
 538 400 l 2,13,14
 622 400 622 400 622 482 c 1,15,-1
 639 482 l 1,16,-1
 639 286 l 1,17,-1
 622 286 l 1,18,19
 622 377 622 377 538 377 c 2,20,-1
 405 377 l 1,21,-1
 405 156 l 2,22,23
 406 99 406 99 512 99 c 0,24,25
 592 99 592 99 646 124 c 0,26,27
 687 147 687 147 721 231 c 1,28,-1
 734 227 l 1,29,-1
 696 76 l 1,30,-1
 288 76 l 1,31,-1
 288 93 l 1,32,33
 353 93 353 93 353 156 c 2,34,-1
 353 611 l 2,35,0
 352 677 352 677 288 677 c 1,1,-1
EndSplineSet
EndChar

StartChar: F
Encoding: 70 70 42
Width: 1024
Flags: W
LayerCount: 2
Fore
SplineSet
289 677 m 1,1,-1
 289 694 l 1,2,-1
 735 694 l 1,3,-1
 726 539 l 1,4,-1
 713 539 l 1,5,6
 707 615 707 615 676 645 c 0,7,8
 643 672 643 672 570 672 c 2,9,-1
 494 672 l 2,10,11
 417 671 417 671 417 610 c 2,12,-1
 417 400 l 1,13,-1
 555 400 l 2,14,15
 648 401 648 401 648 483 c 1,16,-1
 665 483 l 1,17,-1
 665 286 l 1,18,-1
 648 286 l 1,19,20
 648 377 648 377 555 377 c 2,21,-1
 417 377 l 1,22,-1
 417 153 l 2,23,24
 418 93 418 93 494 93 c 1,25,-1
 494 76 l 1,26,-1
 289 76 l 1,27,-1
 289 93 l 1,28,29
 365 93 365 93 365 153 c 2,30,-1
 365 610 l 2,31,0
 365 677 365 677 289 677 c 1,1,-1
EndSplineSet
EndChar

StartChar: G
Encoding: 71 71 43
Width: 1024
Flags: W
LayerCount: 2
Fore
SplineSet
348 596 m 0,1,2
 432 704 432 704 547 704 c 0,3,4
 616 704 616 704 704 640 c 1,5,-1
 698 524 l 1,6,-1
 683 524 l 1,7,8
 666 606 666 606 632 640 c 0,9,10
 592 682 592 682 547 682 c 0,11,12
 480 682 480 682 411 601 c 0,13,14
 331 509 331 509 331 383 c 0,15,16
 331 249 331 249 410 158 c 0,17,18
 473 89 473 89 567 89 c 0,19,20
 591 89 591 89 615 98 c 1,21,-1
 615 288 l 2,22,23
 615 323 615 323 596 336 c 0,24,25
 577 352 577 352 540 352 c 1,26,-1
 540 369 l 1,27,-1
 744 369 l 1,28,-1
 744 352 l 1,29,30
 701 351 701 351 683 335 c 0,31,32
 667 321 667 321 667 288 c 2,33,-1
 667 131 l 1,34,35
 680 144 680 144 695 159 c 1,36,-1
 711 141 l 1,37,38
 646 66 646 66 567 66 c 0,39,40
 434 67 434 67 355 155 c 1,41,42
 279 247 279 247 279 383 c 0,43,0
 279 505 279 505 348 596 c 0,1,2
EndSplineSet
EndChar

StartChar: H
Encoding: 72 72 44
Width: 1024
Flags: W
LayerCount: 2
Fore
SplineSet
689 110 m 0,1,2
 708 93 708 93 748 93 c 1,3,-1
 748 76 l 1,4,-1
 548 76 l 1,5,-1
 548 93 l 1,6,7
 585 94 585 94 606 110 c 0,8,9
 625 128 625 128 625 152 c 2,10,-1
 625 379 l 1,11,-1
 396 379 l 1,12,-1
 396 152 l 2,13,14
 396 131 396 131 414 110 c 0,15,16
 430 93 430 93 472 93 c 1,17,-1
 472 76 l 1,18,-1
 275 76 l 1,19,-1
 275 93 l 1,20,21
 321 93 321 93 336 112 c 0,22,23
 349 131 349 131 349 152 c 2,24,-1
 349 608 l 2,25,26
 349 647 349 647 331 662 c 0,27,28
 312 677 312 677 275 677 c 1,29,-1
 275 694 l 1,30,-1
 472 694 l 1,31,-1
 472 677 l 1,32,33
 423 677 423 677 408 661 c 0,34,35
 396 648 396 648 396 608 c 2,36,-1
 396 401 l 1,37,-1
 625 401 l 1,38,-1
 625 608 l 2,39,40
 625 652 625 652 607 665 c 0,41,42
 588 677 588 677 548 677 c 1,43,-1
 548 694 l 1,44,-1
 748 694 l 1,45,-1
 748 677 l 1,46,47
 706 677 706 677 688 665 c 0,48,49
 672 654 672 654 672 608 c 2,50,-1
 672 152 l 2,51,0
 673 128 673 128 689 110 c 0,1,2
EndSplineSet
EndChar

StartChar: I
Encoding: 73 73 45
Width: 1024
Flags: W
LayerCount: 2
Fore
SplineSet
558 106 m 0,1,2
 574 93 574 93 610 93 c 2,3,-1
 669 93 l 1,4,-1
 669 76 l 1,5,-1
 355 76 l 1,6,-1
 355 93 l 1,7,-1
 423 93 l 2,8,9
 453 93 453 93 471 109 c 0,10,11
 487 121 487 121 487 155 c 2,12,-1
 487 620 l 2,13,14
 486 657 486 657 467 666 c 0,15,16
 446 677 446 677 419 677 c 2,17,-1
 355 677 l 1,18,-1
 355 694 l 1,19,-1
 669 694 l 1,20,-1
 669 677 l 1,21,-1
 604 677 l 2,22,23
 577 677 577 677 558 668 c 0,24,25
 539 657 539 657 539 620 c 2,26,-1
 539 155 l 2,27,0
 539 121 539 121 558 106 c 0,1,2
EndSplineSet
EndChar

StartChar: J
Encoding: 74 74 46
Width: 1024
Flags: W
LayerCount: 2
Fore
SplineSet
580 106 m 0,1,2
 533 66 533 66 457 66 c 256,3,4
 381 66 381 66 327 111 c 0,5,6
 283 149 283 149 283 195 c 0,7,8
 284 221 284 221 294 231 c 0,9,10
 305 241 305 241 318 241 c 0,11,12
 332 240 332 240 344 230 c 256,13,14
 356 220 356 220 356 205 c 256,15,16
 356 190 356 190 346 166 c 0,17,18
 335 140 335 140 369 115 c 0,19,20
 405 91 405 91 457 91 c 0,21,22
 508 91 508 91 544 119 c 0,23,24
 581 148 581 148 581 227 c 2,25,-1
 581 591 l 2,26,27
 581 677 581 677 472 677 c 1,28,-1
 472 694 l 1,29,-1
 741 694 l 1,30,-1
 741 677 l 1,31,32
 633 676 633 676 633 591 c 2,33,-1
 633 227 l 2,34,0
 632 149 632 149 580 106 c 0,1,2
EndSplineSet
EndChar

StartChar: K
Encoding: 75 75 47
Width: 1024
Flags: W
LayerCount: 2
Fore
SplineSet
280 677 m 1,1,-1
 280 694 l 1,2,-1
 469 694 l 1,3,-1
 469 677 l 1,4,5
 400 676 400 676 400 618 c 2,6,-1
 400 409 l 1,7,-1
 591 626 l 2,8,9
 633 678 633 678 567 677 c 1,10,-1
 567 694 l 1,11,-1
 699 694 l 1,12,-1
 699 677 l 1,13,14
 660 677 660 677 617 626 c 2,15,-1
 426 409 l 1,16,-1
 659 135 l 2,17,18
 697 93 697 93 743 93 c 1,19,-1
 743 76 l 1,20,-1
 579 76 l 1,21,-1
 579 93 l 1,22,23
 604 94 604 94 611 101 c 0,24,25
 616 110 616 110 594 135 c 2,26,-1
 400 361 l 1,27,-1
 400 155 l 2,28,29
 400 93 400 93 469 93 c 1,30,-1
 469 76 l 1,31,-1
 280 76 l 1,32,-1
 280 93 l 1,33,34
 348 94 348 94 348 155 c 2,35,-1
 348 618 l 2,36,0
 347 677 347 677 280 677 c 1,1,-1
EndSplineSet
EndChar

StartChar: L
Encoding: 76 76 48
Width: 1024
Flags: W
LayerCount: 2
Fore
SplineSet
464 99 m 2,1,-1
 556 99 l 2,2,3
 599 100 599 100 630 116 c 0,4,5
 660 133 660 133 733 242 c 1,6,-1
 745 236 l 1,7,-1
 671 76 l 1,8,-1
 278 76 l 1,9,-1
 278 93 l 1,10,11
 352 93 352 93 352 151 c 2,12,-1
 352 605 l 2,13,14
 351 677 351 677 278 677 c 1,15,-1
 278 694 l 1,16,-1
 479 694 l 1,17,-1
 479 677 l 1,18,19
 404 677 404 677 404 605 c 2,20,-1
 404 151 l 2,21,0
 404 99 404 99 464 99 c 2,1,-1
EndSplineSet
EndChar

StartChar: M
Encoding: 77 77 49
Width: 1024
Flags: W
LayerCount: 2
Fore
SplineSet
309 667 m 256,1,2
 293 677 293 677 271 677 c 1,3,-1
 271 694 l 1,4,-1
 364 694 l 1,5,-1
 496 203 l 1,6,-1
 626 694 l 1,7,-1
 753 694 l 1,8,-1
 753 677 l 1,9,10
 709 677 709 677 693 667 c 256,11,12
 677 657 677 657 677 633 c 2,13,-1
 677 152 l 2,14,15
 677 126 677 126 690 110 c 0,16,17
 705 93 705 93 753 93 c 1,18,-1
 753 76 l 1,19,-1
 552 76 l 1,20,-1
 552 93 l 1,21,22
 593 93 593 93 615 109 c 0,23,24
 633 127 633 127 633 152 c 2,25,-1
 633 645 l 1,26,-1
 500 139 l 1,27,-1
 480 139 l 1,28,-1
 343 612 l 1,29,-1
 343 145 l 2,30,31
 343 115 343 115 358 105 c 0,32,33
 375 93 375 93 399 93 c 1,34,-1
 399 76 l 1,35,-1
 271 76 l 1,36,-1
 271 93 l 1,37,38
 290 93 290 93 309 105 c 0,39,40
 326 117 326 117 326 145 c 2,41,-1
 326 637 l 2,42,0
 325 657 325 657 309 667 c 256,1,2
EndSplineSet
EndChar

StartChar: N
Encoding: 78 78 50
Width: 1024
Flags: W
LayerCount: 2
Fore
SplineSet
364 154 m 2,0,1
 364 93 364 93 437 93 c 1,2,-1
 437 76 l 1,3,-1
 274 76 l 1,4,-1
 274 93 l 1,5,6
 347 93 347 93 347 154 c 2,7,-1
 347 614 l 2,8,9
 347 677 347 677 274 677 c 1,10,-1
 274 694 l 1,11,-1
 392 694 l 1,12,-1
 659 188 l 1,13,-1
 659 610 l 2,14,15
 659 677 659 677 586 677 c 1,16,-1
 586 694 l 1,17,-1
 750 694 l 1,18,-1
 750 677 l 1,19,20
 676 677 676 677 676 610 c 2,21,-1
 676 76 l 1,22,-1
 659 76 l 1,23,-1
 364 636 l 1,24,-1
 364 154 l 2,0,1
EndSplineSet
EndChar

StartChar: O
Encoding: 79 79 51
Width: 1024
Flags: W
LayerCount: 2
Fore
SplineSet
516 704 m 0,1,2
 605 704 605 704 666 620 c 0,3,4
 737 527 737 527 737 383 c 0,5,6
 737 252 737 252 667 158 c 0,7,8
 596 66 596 66 514 66 c 0,9,10
 429 66 429 66 356 159 c 0,11,12
 286 246 286 246 286 373 c 0,13,14
 286 514 286 514 359 611 c 0,15,0
 431 704 431 704 516 704 c 0,1,2
338 373 m 0,17,18
 338 242 338 242 401 163 c 0,19,20
 460 89 460 89 514 89 c 0,21,22
 570 89 570 89 622 153 c 1,23,24
 685 239 685 239 685 383 c 0,25,26
 685 517 685 517 619 613 c 0,27,28
 570 682 570 682 516 682 c 0,29,30
 457 681 457 681 399 593 c 1,31,16
 338 491 338 491 338 373 c 0,17,18
EndSplineSet
EndChar

StartChar: P
Encoding: 80 80 52
Width: 1024
Flags: W
LayerCount: 2
Fore
SplineSet
340 664 m 0,1,2
 319 677 319 677 279 677 c 1,3,-1
 279 694 l 1,4,-1
 567 694 l 2,5,6
 644 694 644 694 693 655 c 0,7,8
 747 614 747 614 747 553 c 0,9,10
 747 477 747 477 686 429 c 1,11,12
 613 380 613 380 475 380 c 2,13,-1
 410 380 l 1,14,-1
 410 151 l 2,15,16
 411 120 411 120 430 107 c 0,17,18
 450 93 450 93 493 93 c 1,19,-1
 493 76 l 1,20,-1
 277 76 l 1,21,-1
 277 93 l 1,22,23
 318 93 318 93 339 106 c 0,24,25
 358 120 358 120 358 151 c 2,26,-1
 358 624 l 2,27,0
 358 651 358 651 340 664 c 0,1,2
410 403 m 1,28,-1
 475 403 l 2,29,30
 576 403 576 403 634 440 c 0,31,32
 695 480 695 480 695 553 c 0,33,34
 694 606 694 606 648 637 c 0,35,36
 598 672 598 672 513 672 c 0,37,38
 453 673 453 673 431 661 c 0,39,40
 410 651 410 651 410 624 c 2,41,-1
 410 403 l 1,28,-1
EndSplineSet
EndChar

StartChar: Q
Encoding: 81 81 53
Width: 1024
Flags: W
LayerCount: 2
Fore
SplineSet
504 704 m 0,1,2
 593 704 593 704 654 620 c 0,3,4
 725 527 725 527 725 383 c 0,5,6
 725 252 725 252 655 158 c 0,7,8
 637 136 637 136 621 120 c 1,9,10
 652 49 652 49 683 49 c 0,11,12
 707 50 707 50 735 66 c 1,13,-1
 749 55 l 1,14,15
 698 -13 698 -13 655 -13 c 0,16,17
 600 -12 600 -12 575 85 c 1,18,19
 539 66 539 66 502 66 c 0,20,21
 417 66 417 66 344 159 c 0,22,23
 274 246 274 246 274 373 c 0,24,25
 274 514 274 514 347 611 c 0,26,0
 419 704 419 704 504 704 c 0,1,2
496 245 m 0,28,29
 464 244 464 244 448 219 c 0,30,31
 428 187 428 187 428 156 c 0,32,33
 428 136 428 136 432 118 c 1,34,35
 468 89 468 89 502 89 c 0,36,37
 535 89 535 89 568 113 c 1,38,27
 536 245 536 245 496 245 c 0,28,29
609 152 m 1,40,41
 609 153 609 153 610 153 c 0,42,43
 673 239 673 239 673 383 c 0,44,45
 673 517 673 517 607 613 c 0,46,47
 558 682 558 682 504 682 c 0,48,49
 445 681 445 681 387 593 c 1,50,51
 326 491 326 491 326 373 c 0,52,53
 326 242 326 242 389 163 c 0,54,55
 395 157 395 157 399 150 c 1,56,57
 405 176 405 176 418 209 c 0,58,59
 447 268 447 268 496 268 c 0,60,39
 563 267 563 267 609 152 c 1,40,41
EndSplineSet
EndChar

StartChar: R
Encoding: 82 82 54
Width: 1024
Flags: W
LayerCount: 2
Fore
SplineSet
324 662 m 0,1,2
 305 677 305 677 272 677 c 1,3,-1
 272 694 l 1,4,-1
 540 694 l 2,5,6
 607 693 607 693 655 644 c 0,7,8
 702 595 702 595 702 529 c 0,9,10
 702 457 702 457 642 417 c 0,11,12
 601 391 601 391 531 382 c 1,13,-1
 662 142 l 2,14,15
 691 95 691 95 754 95 c 1,16,-1
 754 76 l 1,17,-1
 644 76 l 1,18,-1
 476 380 l 1,19,-1
 394 380 l 1,20,-1
 394 130 l 2,21,22
 394 112 394 112 410 102 c 0,23,24
 428 93 428 93 468 93 c 1,25,-1
 468 76 l 1,26,-1
 270 76 l 1,27,-1
 270 93 l 1,28,29
 310 93 310 93 326 102 c 0,30,31
 342 112 342 112 342 130 c 2,32,-1
 342 614 l 2,33,0
 342 650 342 650 324 662 c 0,1,2
394 403 m 1,34,-1
 473 403 l 2,35,36
 542 403 542 403 596 437 c 0,37,38
 646 468 646 468 646 529 c 256,39,40
 646 590 646 590 607 627 c 0,41,42
 566 666 566 666 482 666 c 0,43,44
 426 666 426 666 410 653 c 0,45,46
 394 639 394 639 394 614 c 2,47,-1
 394 403 l 1,34,-1
EndSplineSet
EndChar

StartChar: S
Encoding: 83 83 55
Width: 1024
Flags: W
LayerCount: 2
Fore
SplineSet
370 657 m 0,1,2
 425 704 425 704 537 704 c 0,3,4
 618 704 618 704 708 652 c 1,5,-1
 700 546 l 1,6,-1
 687 546 l 1,7,8
 669 606 669 606 627 637 c 0,9,10
 585 672 585 672 537 673 c 0,11,12
 454 673 454 673 411 639 c 0,13,14
 370 605 370 605 370 556 c 0,15,16
 369 481 369 481 540 429 c 0,17,18
 731 372 731 372 732 242 c 0,19,20
 732 151 732 151 680 111 c 0,21,22
 619 66 619 66 535 66 c 0,23,24
 416 67 416 67 319 155 c 1,25,-1
 292 272 l 1,26,-1
 308 277 l 1,27,28
 364 174 364 174 416 137 c 0,29,30
 471 100 471 100 535 100 c 0,31,32
 588 100 588 100 637 134 c 0,33,34
 683 168 683 168 683 223 c 0,35,36
 682 321 682 321 529 369 c 0,37,38
 313 439 313 439 312 545 c 0,39,0
 312 611 312 611 370 657 c 0,1,2
EndSplineSet
EndChar

StartChar: T
Encoding: 84 84 56
Width: 1024
Flags: W
LayerCount: 2
Fore
SplineSet
642 93 m 1,1,-1
 642 76 l 1,2,-1
 365 76 l 1,3,-1
 365 93 l 1,4,5
 481 94 481 94 481 152 c 2,6,-1
 481 672 l 1,7,-1
 421 672 l 2,8,9
 354 672 354 672 293 563 c 1,10,-1
 282 567 l 1,11,-1
 323 694 l 1,12,-1
 699 694 l 1,13,-1
 741 567 l 1,14,-1
 729 563 l 1,15,16
 670 672 670 672 603 672 c 2,17,-1
 528 672 l 1,18,-1
 528 152 l 2,19,0
 528 93 528 93 642 93 c 1,1,-1
EndSplineSet
EndChar

StartChar: U
Encoding: 85 85 57
Width: 1024
Flags: W
LayerCount: 2
Fore
SplineSet
438 127 m 0,1,2
 473 93 473 93 536 93 c 0,3,4
 589 94 589 94 625 131 c 0,5,6
 664 174 664 174 664 243 c 2,7,-1
 664 615 l 2,8,9
 664 677 664 677 601 677 c 1,10,-1
 601 694 l 1,11,-1
 742 694 l 1,12,-1
 742 677 l 1,13,14
 681 676 681 676 681 615 c 2,15,-1
 681 243 l 2,16,17
 681 162 681 162 638 113 c 0,18,19
 596 66 596 66 536 66 c 0,20,21
 443 66 443 66 400 108 c 0,22,23
 353 154 353 154 353 233 c 2,24,-1
 353 606 l 2,25,26
 353 679 353 679 281 679 c 1,27,-1
 281 694 l 1,28,-1
 478 694 l 1,29,-1
 478 677 l 1,30,31
 405 676 405 676 405 606 c 2,32,-1
 405 233 l 2,33,0
 405 160 405 160 438 127 c 0,1,2
EndSplineSet
EndChar

StartChar: V
Encoding: 86 86 58
Width: 1024
Flags: W
LayerCount: 2
Fore
SplineSet
272 677 m 1,1,-1
 272 694 l 1,2,-1
 468 694 l 1,3,-1
 468 677 l 1,4,5
 385 677 385 677 404 601 c 2,6,-1
 518 148 l 1,7,-1
 669 617 l 2,8,9
 686 677 686 677 619 677 c 1,10,-1
 619 694 l 1,11,-1
 752 694 l 1,12,-1
 752 677 l 1,13,14
 704 677 704 677 686 617 c 2,15,-1
 512 77 l 1,16,-1
 503 77 l 1,17,-1
 503 76 l 1,18,-1
 489 76 l 1,19,-1
 352 601 l 2,20,0
 332 677 332 677 272 677 c 1,1,-1
EndSplineSet
EndChar

StartChar: W
Encoding: 87 87 59
Width: 1024
Flags: W
LayerCount: 2
Fore
SplineSet
302 668 m 0,1,2
 288 678 288 678 266 677 c 1,3,-1
 266 694 l 1,4,-1
 409 694 l 1,5,-1
 409 677 l 1,6,7
 387 678 387 678 378 672 c 0,8,9
 368 666 368 666 372 638 c 2,10,-1
 447 220 l 1,11,-1
 513 642 l 1,12,13
 507 661 507 661 498 668 c 0,14,15
 486 677 486 677 459 677 c 1,16,-1
 459 694 l 1,17,-1
 611 694 l 1,18,-1
 611 677 l 1,19,20
 583 677 583 677 573 671 c 0,21,22
 562 664 562 664 566 634 c 2,23,-1
 629 219 l 1,24,-1
 700 637 l 2,25,26
 703 663 703 663 696 670 c 0,27,28
 687 678 687 678 671 677 c 1,29,-1
 671 694 l 1,30,-1
 757 694 l 1,31,-1
 757 677 l 1,32,33
 739 678 739 678 732 671 c 256,34,35
 725 664 725 664 721 637 c 2,36,-1
 627 82 l 1,37,-1
 627 76 l 1,38,-1
 602 76 l 1,39,-1
 522 583 l 1,40,-1
 445 89 l 1,41,-1
 445 76 l 1,42,-1
 422 76 l 1,43,-1
 318 638 l 2,44,0
 314 658 314 658 302 668 c 0,1,2
EndSplineSet
EndChar

StartChar: X
Encoding: 88 88 60
Width: 1024
Flags: W
LayerCount: 2
Fore
SplineSet
280 677 m 1,1,-1
 280 694 l 1,2,-1
 472 694 l 1,3,-1
 472 677 l 1,4,5
 389 677 389 677 410 632 c 2,6,-1
 519 409 l 1,7,-1
 635 627 l 2,8,9
 662 678 662 678 607 677 c 1,10,-1
 607 694 l 1,11,-1
 740 694 l 1,12,-1
 740 677 l 1,13,14
 693 676 693 676 666 627 c 2,15,-1
 533 380 l 1,16,-1
 655 134 l 2,17,18
 675 93 675 93 747 93 c 1,19,-1
 747 76 l 1,20,-1
 555 76 l 1,21,-1
 555 93 l 1,22,23
 617 94 617 94 599 134 c 2,24,-1
 496 341 l 1,25,-1
 389 136 l 2,26,27
 369 93 369 93 424 93 c 1,28,-1
 424 76 l 1,29,-1
 276 76 l 1,30,-1
 276 93 l 1,31,32
 336 93 336 93 358 136 c 2,33,-1
 482 371 l 1,34,-1
 354 632 l 2,35,0
 332 677 332 677 280 677 c 1,1,-1
EndSplineSet
EndChar

StartChar: Y
Encoding: 89 89 61
Width: 1024
Flags: W
LayerCount: 2
Fore
SplineSet
261 677 m 1,1,-1
 261 694 l 1,2,-1
 447 694 l 1,3,-1
 447 677 l 1,4,5
 394 678 394 678 381 666 c 0,6,7
 368 655 368 655 378 634 c 2,8,-1
 523 376 l 1,9,-1
 666 635 l 2,10,11
 678 660 678 660 668 669 c 0,12,13
 655 679 655 679 624 678 c 1,14,-1
 624 694 l 1,15,-1
 762 694 l 1,16,-1
 762 681 l 1,17,18
 712 681 712 681 687 635 c 2,19,-1
 534 357 l 1,20,-1
 534 161 l 2,21,22
 534 128 534 128 555 110 c 0,23,24
 578 93 578 93 627 93 c 1,25,-1
 627 76 l 1,26,-1
 389 76 l 1,27,-1
 389 93 l 1,28,29
 438 93 438 93 460 111 c 0,30,31
 482 128 482 128 482 161 c 2,32,-1
 482 357 l 1,33,-1
 326 634 l 2,34,0
 301 678 301 678 261 677 c 1,1,-1
EndSplineSet
EndChar

StartChar: Z
Encoding: 90 90 62
Width: 1024
Flags: W
LayerCount: 2
Fore
SplineSet
504 99 m 2,0,1
 558 99 558 99 616 120 c 0,2,3
 671 141 671 141 720 214 c 1,4,-1
 732 208 l 1,5,-1
 676 76 l 1,6,-1
 291 76 l 1,7,-1
 291 110 l 1,8,-1
 632 672 l 1,9,-1
 482 672 l 2,10,11
 407 672 407 672 358 644 c 0,12,13
 314 617 314 617 304 554 c 1,14,-1
 292 554 l 1,15,-1
 310 694 l 1,16,-1
 688 694 l 1,17,-1
 688 672 l 1,18,-1
 347 99 l 1,19,-1
 504 99 l 2,0,1
EndSplineSet
EndChar

StartChar: bracketleft
Encoding: 91 91 63
Width: 1024
Flags: W
LayerCount: 2
Fore
SplineSet
402 -68 m 1,0,-1
 402 844 l 1,1,-1
 622 844 l 1,2,-1
 622 822 l 1,3,-1
 454 822 l 1,4,-1
 454 -45 l 1,5,-1
 622 -45 l 1,6,-1
 622 -68 l 1,7,-1
 402 -68 l 1,0,-1
EndSplineSet
EndChar

StartChar: backslash
Encoding: 92 92 64
Width: 1024
Flags: W
LayerCount: 2
Fore
SplineSet
316 844 m 1,0,-1
 759 -68 l 1,1,-1
 707 -68 l 1,2,-1
 264 844 l 1,3,-1
 316 844 l 1,0,-1
EndSplineSet
EndChar

StartChar: bracketright
Encoding: 93 93 65
Width: 1024
Flags: W
LayerCount: 2
Fore
SplineSet
570 822 m 1,0,-1
 401 822 l 1,1,-1
 401 844 l 1,2,-1
 622 844 l 1,3,-1
 622 -68 l 1,4,-1
 401 -68 l 1,5,-1
 401 -45 l 1,6,-1
 570 -45 l 1,7,-1
 570 822 l 1,0,-1
EndSplineSet
EndChar

StartChar: asciicircum
Encoding: 94 94 66
Width: 1024
Flags: W
LayerCount: 2
Fore
SplineSet
700 655 m 1,0,-1
 667 619 l 1,1,-1
 511 718 l 1,2,-1
 361 619 l 1,3,-1
 324 655 l 1,4,-1
 511 794 l 1,5,-1
 700 655 l 1,0,-1
EndSplineSet
EndChar

StartChar: underscore
Encoding: 95 95 67
Width: 1024
Flags: W
LayerCount: 2
Fore
SplineSet
768 -81 m 1,0,-1
 768 -124 l 1,1,-1
 256 -124 l 1,2,-1
 256 -81 l 1,3,-1
 768 -81 l 1,0,-1
EndSplineSet
EndChar

StartChar: grave
Encoding: 96 96 68
Width: 1024
Flags: W
LayerCount: 2
Fore
SplineSet
621 519 m 1,0,-1
 602 504 l 1,1,-1
 417 647 l 2,2,3
 403 662 403 662 404 680 c 256,4,5
 405 698 405 698 418 708 c 0,6,7
 432 717 432 717 448 714 c 0,8,9
 465 711 465 711 477 692 c 2,10,-1
 621 519 l 1,0,-1
EndSplineSet
EndChar

StartChar: a
Encoding: 97 97 69
Width: 1024
Flags: W
LayerCount: 2
Fore
SplineSet
689 111 m 0,1,2
 699 111 699 111 723 123 c 1,3,-1
 735 108 l 1,4,5
 693 66 693 66 653 66 c 0,6,7
 634 66 634 66 624 78 c 0,8,9
 613 91 613 91 613 115 c 2,10,-1
 613 137 l 1,11,12
 587 113 587 113 559 97 c 0,13,14
 499 66 499 66 426 66 c 0,15,16
 370 67 370 67 333 95 c 0,17,18
 289 128 289 128 290 183 c 0,19,20
 289 247 289 247 356 283 c 0,21,22
 418 318 418 318 517 317 c 0,23,24
 567 317 567 317 613 296 c 1,25,-1
 613 386 l 2,26,27
 613 426 613 426 579 447 c 0,28,29
 545 467 545 467 494 467 c 0,30,31
 471 466 471 466 443 459 c 0,32,33
 413 449 413 449 413 407 c 0,34,35
 412 389 412 389 400 382 c 0,36,37
 387 375 387 375 375 375 c 0,38,39
 363 377 363 377 353 384 c 0,40,41
 342 394 342 394 342 407 c 0,42,43
 342 444 342 444 384 468 c 0,44,45
 428 496 428 496 494 495 c 0,46,47
 569 494 569 494 617 457 c 0,48,49
 665 419 665 419 665 359 c 2,50,-1
 665 129 l 2,51,0
 665 111 665 111 689 111 c 0,1,2
402 259 m 0,53,54
 341 231 341 231 342 183 c 0,55,56
 341 144 341 144 372 125 c 0,57,58
 403 105 403 105 463 105 c 0,59,60
 509 106 509 106 554 128 c 0,61,62
 588 147 588 147 613 172 c 1,63,-1
 613 281 l 1,64,-1
 571 286 l 1,65,52
 466 287 466 287 402 259 c 0,53,54
EndSplineSet
EndChar

StartChar: b
Encoding: 98 98 70
Width: 1024
Flags: W
LayerCount: 2
Fore
SplineSet
291 634 m 1,1,-1
 291 651 l 1,2,-1
 398 704 l 1,3,-1
 408 704 l 1,4,-1
 408 416 l 1,5,6
 499 485 499 485 560 485 c 256,7,8
 621 485 621 485 672 437 c 0,9,10
 733 384 733 384 733 290 c 0,11,12
 733 182 733 182 672 127 c 0,13,14
 606 66 606 66 501 66 c 0,15,16
 432 67 432 67 356 110 c 1,17,-1
 356 578 l 2,18,0
 355 635 355 635 291 634 c 1,1,-1
408 129 m 1,19,20
 469 94 469 94 529 94 c 0,21,22
 596 94 596 94 642 152 c 0,23,24
 681 202 681 202 681 290 c 0,25,26
 680 353 680 353 637 402 c 0,27,28
 602 443 602 443 556 443 c 0,29,30
 499 442 499 442 408 387 c 1,31,-1
 408 129 l 1,19,20
EndSplineSet
EndChar

StartChar: c
Encoding: 99 99 71
Width: 1024
Flags: W
LayerCount: 2
Fore
SplineSet
652 463 m 0,1,2
 681 441 681 441 677 419 c 0,3,4
 671 397 671 397 649 397 c 0,5,6
 629 397 629 397 616 419 c 0,7,8
 586 460 586 460 513 459 c 0,9,10
 457 458 457 458 415 415 c 0,11,12
 366 366 366 366 367 276 c 0,13,14
 367 194 367 194 419 146 c 0,15,16
 471 103 471 103 541 103 c 0,17,18
 622 102 622 102 692 172 c 1,19,-1
 709 156 l 1,20,21
 632 67 632 67 541 66 c 0,22,23
 448 66 448 66 384 117 c 0,24,25
 315 176 315 176 315 276 c 0,26,27
 315 364 315 364 364 422 c 0,28,29
 427 494 427 494 533 494 c 0,30,0
 610 494 610 494 652 463 c 0,1,2
EndSplineSet
EndChar

StartChar: d
Encoding: 100 100 72
Width: 1024
Flags: W
LayerCount: 2
Fore
SplineSet
714 95 m 1,1,-1
 714 81 l 1,2,-1
 627 66 l 1,3,-1
 627 123 l 1,4,5
 611 110 611 110 590 97 c 0,6,7
 541 66 541 66 498 66 c 0,8,9
 420 66 420 66 372 120 c 0,10,11
 309 188 309 188 309 284 c 0,12,13
 309 363 309 363 375 430 c 0,14,15
 429 485 429 485 519 485 c 0,16,17
 561 485 561 485 601 470 c 0,18,19
 615 464 615 464 627 457 c 1,20,-1
 627 581 l 2,21,22
 627 631 627 631 552 631 c 1,23,-1
 552 648 l 1,24,-1
 668 704 l 1,25,-1
 679 704 l 1,26,-1
 679 125 l 2,27,0
 678 95 678 95 714 95 c 1,1,-1
627 424 m 1,28,29
 613 441 613 441 597 448 c 0,30,31
 561 463 561 463 519 463 c 0,32,33
 451 463 451 463 411 421 c 0,34,35
 361 369 361 369 361 284 c 0,36,37
 362 195 362 195 405 146 c 0,38,39
 447 100 447 100 492 100 c 0,40,41
 530 100 530 100 578 122 c 0,42,43
 608 138 608 138 627 154 c 1,44,-1
 627 424 l 1,28,29
EndSplineSet
EndChar

StartChar: e
Encoding: 101 101 73
Width: 1024
Flags: W
LayerCount: 2
Fore
SplineSet
361 131 m 0,1,2
 308 187 308 187 308 275 c 0,3,4
 308 366 308 366 362 432 c 0,5,6
 414 495 414 495 517 495 c 0,7,8
 611 495 611 495 657 431 c 1,9,10
 690 392 690 392 696 316 c 1,11,-1
 696 293 l 1,12,-1
 360 293 l 1,13,-1
 360 275 l 2,14,15
 361 201 361 201 407 156 c 0,16,17
 454 111 454 111 535 111 c 0,18,19
 579 110 579 110 619 134 c 0,20,21
 656 158 656 158 692 207 c 1,22,-1
 715 199 l 1,23,24
 638 67 638 67 515 67 c 0,25,0
 419 67 419 67 361 131 c 0,1,2
399 411 m 0,27,28
 369 373 369 373 362 316 c 1,29,-1
 643 316 l 1,30,31
 639 393 639 393 612 429 c 0,32,33
 581 467 581 467 517 467 c 0,34,26
 439 466 439 466 399 411 c 0,27,28
EndSplineSet
EndChar

StartChar: f
Encoding: 102 102 74
Width: 1024
Flags: W
LayerCount: 2
Fore
SplineSet
298 93 m 1,0,1
 376 93 376 93 404 111 c 0,2,3
 430 127 430 127 430 163 c 2,4,-1
 430 441 l 1,5,-1
 290 441 l 1,6,-1
 290 463 l 1,7,-1
 430 463 l 1,8,-1
 430 559 l 2,9,10
 430 617 430 617 467 659 c 0,11,12
 505 704 505 704 586 704 c 0,13,14
 640 704 640 704 688 679 c 0,15,16
 734 653 734 653 734 625 c 0,17,18
 732 612 732 612 725 602 c 0,19,20
 716 592 716 592 701 593 c 0,21,22
 680 594 680 594 673 604 c 0,23,24
 666 615 666 615 666 634 c 0,25,26
 665 653 665 653 643 665 c 0,27,28
 617 679 617 679 586 679 c 0,29,30
 540 679 540 679 512 643 c 0,31,32
 482 602 482 602 482 559 c 2,33,-1
 482 463 l 1,34,-1
 623 463 l 1,35,-1
 623 441 l 1,36,-1
 482 441 l 1,37,-1
 482 163 l 2,38,39
 482 128 482 128 509 110 c 0,40,41
 539 93 539 93 615 93 c 1,42,-1
 615 76 l 1,43,-1
 298 76 l 1,44,-1
 298 93 l 1,0,1
EndSplineSet
EndChar

StartChar: g
Encoding: 103 103 75
Width: 1024
Flags: W
LayerCount: 2
Fore
SplineSet
366 -27 m 0,1,2
 311 -8 311 -8 311 31 c 0,3,4
 311 71 311 71 356 110 c 0,5,6
 371 122 371 122 390 132 c 1,7,8
 374 137 374 137 365 141 c 0,9,10
 331 160 331 160 331 182 c 0,11,12
 332 206 332 206 369 228 c 0,13,14
 388 240 388 240 415 247 c 1,15,16
 389 257 389 257 370 275 c 0,17,18
 323 317 323 317 323 366 c 0,19,20
 323 427 323 427 371 464 c 0,21,22
 409 496 409 496 473 496 c 0,23,24
 540 496 540 496 580 471 c 1,25,26
 603 480 603 480 616 484 c 0,27,28
 645 497 645 497 663 497 c 0,29,30
 683 496 683 496 696 486 c 0,31,32
 712 473 712 473 712 460 c 0,33,34
 711 448 711 448 707 441 c 0,35,36
 702 434 702 434 696 434 c 0,37,38
 681 434 681 434 672 447 c 0,39,40
 662 459 662 459 644 460 c 0,41,42
 634 460 634 460 606 451 c 1,43,44
 649 409 649 409 649 357 c 0,45,46
 648 299 648 299 605 269 c 0,47,48
 557 236 557 236 487 236 c 0,49,50
 466 236 466 236 448 239 c 1,51,52
 385 223 385 223 386 202 c 0,53,54
 385 183 385 183 518 182 c 0,55,56
 594 181 594 181 648 156 c 0,57,58
 709 124 709 124 709 69 c 0,59,60
 709 18 709 18 657 -12 c 0,61,62
 605 -43 605 -43 488 -43 c 0,63,0
 412 -42 412 -42 366 -27 c 0,1,2
518 123 m 0,65,66
 459 123 459 123 422 127 c 1,67,68
 412 124 412 124 405 120 c 0,69,70
 363 95 363 95 363 59 c 0,71,72
 364 22 364 22 404 9 c 0,73,74
 443 -4 443 -4 528 -4 c 0,75,76
 593 -4 593 -4 632 15 c 0,77,78
 671 35 671 35 671 60 c 0,79,80
 671 84 671 84 638 103 c 0,81,64
 600 123 600 123 518 123 c 0,65,66
413 309 m 0,83,84
 452 265 452 265 501 265 c 0,85,86
 541 265 541 265 571 284 c 0,87,88
 597 301 597 301 597 326 c 0,89,90
 597 381 597 381 558 420 c 0,91,92
 514 464 514 464 462 464 c 0,93,94
 422 463 422 463 400 447 c 0,95,96
 375 430 375 430 375 403 c 0,97,82
 376 355 376 355 413 309 c 0,83,84
EndSplineSet
EndChar

StartChar: h
Encoding: 104 104 76
Width: 1024
Flags: W
LayerCount: 2
Fore
SplineSet
287 632 m 1,1,-1
 287 649 l 1,2,-1
 399 704 l 1,3,-1
 410 704 l 1,4,-1
 410 402 l 1,5,6
 500 485 500 485 549 485 c 0,7,8
 676 485 676 485 676 388 c 2,9,-1
 676 143 l 2,10,11
 676 93 676 93 736 93 c 1,12,-1
 736 76 l 1,13,-1
 566 76 l 1,14,-1
 566 93 l 1,15,16
 624 94 624 94 624 143 c 2,17,-1
 624 388 l 2,18,19
 624 440 624 440 549 440 c 0,20,21
 492 440 492 440 410 376 c 1,22,-1
 410 139 l 2,23,24
 411 93 411 93 469 93 c 1,25,-1
 469 76 l 1,26,-1
 298 76 l 1,27,-1
 298 93 l 1,28,29
 358 93 358 93 358 139 c 2,30,-1
 358 584 l 2,31,0
 357 632 357 632 287 632 c 1,1,-1
EndSplineSet
EndChar

StartChar: i
Encoding: 105 105 77
Width: 1024
Flags: W
LayerCount: 2
Fore
SplineSet
533 658 m 0,1,2
 545 648 545 648 545 629 c 0,3,4
 544 613 544 613 534 601 c 0,5,6
 523 588 523 588 504 588 c 256,7,8
 485 588 485 588 475 600 c 0,9,10
 464 614 464 614 464 629 c 0,11,12
 465 649 465 649 475 659 c 0,13,14
 486 669 486 669 504 669 c 0,15,0
 520 668 520 668 533 658 c 0,1,2
555 104 m 0,17,18
 572 93 572 93 602 93 c 2,19,-1
 695 93 l 1,20,-1
 695 76 l 1,21,-1
 328 76 l 1,22,-1
 328 93 l 1,23,-1
 409 93 l 2,24,25
 446 93 446 93 467 106 c 0,26,27
 486 117 486 117 486 141 c 2,28,-1
 486 389 l 2,29,30
 486 402 486 402 468 408 c 0,31,32
 448 415 448 415 351 415 c 1,33,-1
 351 437 l 1,34,35
 456 437 456 437 510 495 c 1,36,-1
 538 495 l 1,37,-1
 538 141 l 2,38,16
 539 117 539 117 555 104 c 0,17,18
EndSplineSet
EndChar

StartChar: j
Encoding: 106 106 78
Width: 1024
Flags: W
LayerCount: 2
Fore
SplineSet
696 658 m 0,1,2
 708 648 708 648 708 629 c 0,3,4
 707 613 707 613 697 601 c 0,5,6
 686 588 686 588 667 588 c 256,7,8
 648 588 648 588 638 600 c 0,9,10
 627 614 627 614 627 629 c 0,11,12
 628 649 628 649 638 659 c 0,13,14
 649 669 649 669 667 669 c 0,15,0
 683 668 683 668 696 658 c 0,1,2
315 112 m 0,17,18
 316 152 316 152 329 171 c 256,19,20
 342 190 342 190 372 190 c 0,21,22
 386 190 386 190 395 178 c 0,23,24
 404 168 404 168 404 155 c 0,25,26
 404 134 404 134 389 112 c 256,27,28
 374 90 374 90 374 69 c 0,29,30
 375 29 375 29 412 -1 c 0,31,32
 452 -30 452 -30 513 -30 c 0,33,34
 587 -30 587 -30 618 7 c 0,35,36
 652 46 652 46 652 122 c 2,37,-1
 652 372 l 2,38,39
 652 407 652 407 624 414 c 0,40,41
 590 424 590 424 523 424 c 1,42,-1
 523 446 l 1,43,44
 604 447 604 447 683 495 c 1,45,-1
 706 495 l 1,46,-1
 706 110 l 2,47,48
 706 34 706 34 658 -12 c 256,49,50
 610 -58 610 -58 513 -58 c 0,51,52
 436 -58 436 -58 376 -12 c 0,53,16
 315 36 315 36 315 112 c 0,17,18
EndSplineSet
EndChar

StartChar: k
Encoding: 107 107 79
Width: 1024
Flags: W
LayerCount: 2
Fore
SplineSet
421 110 m 0,1,2
 440 93 440 93 482 93 c 1,3,-1
 482 77 l 1,4,-1
 272 77 l 1,5,-1
 272 93 l 1,6,7
 312 93 312 93 333 108 c 0,8,9
 352 122 352 122 352 147 c 2,10,-1
 352 588 l 2,11,12
 351 611 351 611 335 621 c 0,13,14
 316 633 316 633 268 633 c 1,15,-1
 268 650 l 1,16,-1
 392 704 l 1,17,-1
 404 704 l 1,18,-1
 404 147 l 2,19,0
 405 123 405 123 421 110 c 0,1,2
673 130 m 2,20,21
 713 93 713 93 755 93 c 1,22,-1
 755 76 l 1,23,-1
 571 76 l 1,24,-1
 571 93 l 1,25,26
 612 94 612 94 616 104 c 256,27,28
 620 114 620 114 602 130 c 2,29,-1
 411 309 l 1,30,-1
 411 310 l 1,31,-1
 407 314 l 1,32,-1
 437 332 l 1,33,-1
 579 450 l 2,34,35
 592 464 592 464 588 468 c 0,36,37
 583 473 583 473 553 472 c 1,38,-1
 553 489 l 1,39,-1
 684 489 l 1,40,-1
 684 472 l 1,41,42
 634 472 634 472 607 450 c 2,43,-1
 459 327 l 1,44,-1
 673 130 l 2,20,21
EndSplineSet
EndChar

StartChar: l
Encoding: 108 108 80
Width: 1024
Flags: W
LayerCount: 2
Fore
SplineSet
565 108 m 0,1,2
 595 93 595 93 698 93 c 1,3,-1
 698 76 l 1,4,-1
 325 76 l 1,5,-1
 325 93 l 1,6,7
 433 93 433 93 460 108 c 0,8,9
 486 123 486 123 486 150 c 2,10,-1
 486 578 l 2,11,12
 485 597 485 597 466 604 c 0,13,14
 442 614 442 614 354 614 c 1,15,-1
 354 636 l 1,16,17
 425 636 425 636 465 654 c 0,18,19
 498 670 498 670 510 704 c 1,20,-1
 538 704 l 1,21,-1
 538 150 l 2,22,0
 538 124 538 124 565 108 c 0,1,2
EndSplineSet
EndChar

StartChar: m
Encoding: 109 109 81
Width: 1024
Flags: W
LayerCount: 2
Fore
SplineSet
722 99 m 0,1,2
 733 93 733 93 755 93 c 1,3,-1
 755 76 l 1,4,-1
 623 76 l 1,5,-1
 623 93 l 1,6,7
 644 93 644 93 654 99 c 0,8,9
 664 104 664 104 664 116 c 2,10,-1
 664 407 l 1,11,12
 660 434 660 434 650 444 c 0,13,14
 635 457 635 457 617 456 c 0,15,16
 597 456 597 456 573 432 c 0,17,18
 550 411 550 411 532 371 c 1,19,-1
 532 116 l 2,20,21
 533 102 533 102 540 98 c 0,22,23
 548 93 548 93 573 93 c 1,24,-1
 573 76 l 1,25,-1
 450 76 l 1,26,-1
 450 93 l 1,27,28
 473 94 473 94 477 98 c 0,29,30
 483 103 483 103 483 116 c 2,31,-1
 483 398 l 2,32,33
 483 423 483 423 473 439 c 0,34,35
 463 456 463 456 442 456 c 0,36,37
 427 455 427 455 408 436 c 0,38,39
 385 415 385 415 357 372 c 1,40,-1
 357 114 l 2,41,42
 357 102 357 102 367 98 c 0,43,44
 377 93 377 93 399 93 c 1,45,-1
 399 76 l 1,46,-1
 268 76 l 1,47,-1
 268 93 l 1,48,49
 293 94 293 94 300 98 c 0,50,51
 308 104 308 104 308 114 c 2,52,-1
 308 400 l 2,53,54
 308 410 308 410 301 414 c 0,55,56
 295 419 295 419 268 419 c 1,57,-1
 268 436 l 1,58,-1
 343 495 l 1,59,-1
 357 495 l 1,60,-1
 357 421 l 1,61,62
 372 445 372 445 388 458 c 0,63,64
 424 495 424 495 467 495 c 0,65,66
 497 494 497 494 515 469 c 0,67,68
 526 454 526 454 530 424 c 1,69,70
 542 443 542 443 557 456 c 0,71,72
 594 495 594 495 639 495 c 0,73,74
 669 495 669 495 690 473 c 0,75,76
 713 450 713 450 713 407 c 2,77,-1
 713 116 l 2,78,0
 713 103 713 103 722 99 c 0,1,2
EndSplineSet
EndChar

StartChar: n
Encoding: 110 110 82
Width: 1024
Flags: W
LayerCount: 2
Fore
SplineSet
736 93 m 1,1,-1
 736 76 l 1,2,-1
 566 76 l 1,3,-1
 566 93 l 1,4,5
 625 94 625 94 625 143 c 2,6,-1
 625 388 l 2,7,8
 625 450 625 450 549 450 c 0,9,10
 489 450 489 450 398 380 c 1,11,-1
 398 139 l 2,12,13
 399 93 399 93 457 93 c 1,14,-1
 457 76 l 1,15,-1
 287 76 l 1,16,-1
 287 93 l 1,17,18
 346 93 346 93 346 139 c 2,19,-1
 346 381 l 2,20,21
 345 424 345 424 287 424 c 1,22,-1
 287 441 l 1,23,-1
 387 495 l 1,24,-1
 398 495 l 1,25,-1
 398 407 l 1,26,27
 492 495 492 495 549 495 c 0,28,29
 677 494 677 494 677 388 c 2,30,-1
 677 143 l 2,31,0
 678 93 678 93 736 93 c 1,1,-1
EndSplineSet
EndChar

StartChar: o
Encoding: 111 111 83
Width: 1024
Flags: W
LayerCount: 2
Fore
SplineSet
515 495 m 0,1,2
 612 495 612 495 670 423 c 0,3,4
 718 367 718 367 718 270 c 0,5,6
 717 186 717 186 659 125 c 0,7,8
 603 66 603 66 515 66 c 0,9,10
 422 66 422 66 367 123 c 0,11,12
 306 186 306 186 306 270 c 0,13,14
 307 364 307 364 365 431 c 0,15,0
 421 495 421 495 515 495 c 0,1,2
358 270 m 0,17,18
 358 186 358 186 409 135 c 0,19,20
 454 91 454 91 515 91 c 0,21,22
 572 91 572 91 618 136 c 0,23,24
 666 185 666 185 666 270 c 0,25,26
 666 365 666 365 621 416 c 0,27,28
 575 470 575 470 515 470 c 0,29,30
 454 470 454 470 405 418 c 1,31,16
 358 361 358 361 358 270 c 0,17,18
EndSplineSet
EndChar

StartChar: p
Encoding: 112 112 84
Width: 1024
Flags: W
LayerCount: 2
Fore
SplineSet
356 413 m 0,1,2
 338 420 338 420 289 420 c 1,3,-1
 289 437 l 1,4,-1
 410 495 l 1,5,-1
 424 495 l 1,6,-1
 424 432 l 1,7,8
 493 496 493 496 556 495 c 0,9,10
 633 494 633 494 685 433 c 0,11,12
 735 377 735 377 735 272 c 0,13,14
 734 190 734 190 685 130 c 0,15,16
 631 67 631 67 552 67 c 0,17,18
 488 68 488 68 424 95 c 1,19,-1
 424 8 l 2,20,21
 425 -15 425 -15 444 -28 c 0,22,23
 460 -38 460 -38 506 -38 c 1,24,-1
 506 -58 l 1,25,-1
 299 -58 l 1,26,-1
 299 -38 l 1,27,28
 341 -38 341 -38 357 -26 c 0,29,30
 372 -14 372 -14 372 8 c 2,31,-1
 372 385 l 2,32,0
 372 407 372 407 356 413 c 0,1,2
424 133 m 1,33,34
 482 95 482 95 528 94 c 0,35,36
 589 94 589 94 637 145 c 0,37,38
 683 196 683 196 683 272 c 0,39,40
 683 361 683 361 638 406 c 0,41,42
 594 450 594 450 530 450 c 0,43,44
 482 450 482 450 424 401 c 1,45,-1
 424 133 l 1,33,34
EndSplineSet
EndChar

StartChar: q
Encoding: 113 113 85
Width: 1024
Flags: W
LayerCount: 2
Fore
SplineSet
668 -29 m 0,1,2
 684 -38 684 -38 735 -38 c 1,3,-1
 735 -58 l 1,4,-1
 514 -58 l 1,5,-1
 514 -38 l 1,6,7
 559 -38 559 -38 577 -29 c 0,8,9
 599 -18 599 -18 599 9 c 2,10,-1
 599 104 l 1,11,12
 542 67 542 67 488 66 c 0,13,14
 403 67 403 67 351 121 c 0,15,16
 289 185 289 185 290 278 c 0,17,18
 290 377 290 377 341 435 c 0,19,20
 390 496 390 496 459 495 c 0,21,22
 529 495 529 495 599 446 c 1,23,-1
 634 495 l 1,24,-1
 651 495 l 1,25,-1
 651 9 l 2,26,0
 652 -19 652 -19 668 -29 c 0,1,2
599 420 m 1,27,28
 534 451 534 451 489 450 c 0,29,30
 423 451 423 451 383 405 c 0,31,32
 342 357 342 357 342 278 c 0,33,34
 343 189 343 189 395 138 c 0,35,36
 443 94 443 94 501 94 c 0,37,38
 550 94 550 94 599 133 c 1,39,-1
 599 420 l 1,27,28
EndSplineSet
EndChar

StartChar: r
Encoding: 114 114 86
Width: 1024
Flags: W
LayerCount: 2
Fore
SplineSet
380 411 m 0,1,2
 364 420 364 420 325 420 c 1,3,-1
 325 437 l 1,4,-1
 436 495 l 1,5,-1
 447 495 l 1,6,-1
 447 385 l 1,7,8
 483 432 483 432 519 456 c 0,9,10
 575 495 575 495 612 495 c 0,11,12
 653 496 653 496 687 472 c 0,13,14
 716 453 716 453 717 429 c 0,15,16
 717 408 717 408 704 395 c 0,17,18
 692 383 692 383 674 383 c 0,19,20
 668 384 668 384 661 400 c 0,21,22
 633 453 633 453 585 453 c 0,23,24
 554 454 554 454 515 424 c 0,25,26
 480 398 480 398 447 355 c 1,27,-1
 447 154 l 2,28,29
 447 129 447 129 469 110 c 0,30,31
 492 93 492 93 535 93 c 1,32,-1
 535 76 l 1,33,-1
 306 76 l 1,34,-1
 306 93 l 1,35,36
 347 93 347 93 371 111 c 256,37,38
 395 129 395 129 395 154 c 2,39,-1
 395 383 l 2,40,0
 393 404 393 404 380 411 c 0,1,2
EndSplineSet
EndChar

StartChar: s
Encoding: 115 115 87
Width: 1024
Flags: W
LayerCount: 2
Fore
SplineSet
683 367 m 1,0,-1
 669 367 l 1,1,2
 640 429 640 429 606 448 c 0,3,4
 571 467 571 467 535 467 c 0,5,6
 468 466 468 466 434 444 c 0,7,8
 404 422 404 422 404 391 c 0,9,10
 404 364 404 364 423 345 c 0,11,12
 440 327 440 327 536 311 c 0,13,14
 638 295 638 295 674 262 c 0,15,16
 707 230 707 230 708 191 c 0,17,18
 708 146 708 146 665 107 c 0,19,20
 618 66 618 66 536 66 c 0,21,22
 446 68 446 68 352 120 c 1,23,-1
 315 204 l 1,24,-1
 329 215 l 1,25,26
 381 149 381 149 430 121 c 0,27,28
 477 94 477 94 523 94 c 0,29,30
 582 94 582 94 621 122 c 0,31,32
 655 149 655 149 655 179 c 0,33,34
 655 210 655 210 631 229 c 0,35,36
 604 249 604 249 508 265 c 0,37,38
 407 284 407 284 382 311 c 0,39,40
 351 339 351 339 352 378 c 0,41,42
 352 429 352 429 398 462 c 0,43,44
 445 495 445 495 521 495 c 0,45,46
 595 496 595 496 691 436 c 1,47,-1
 683 367 l 1,0,-1
EndSplineSet
EndChar

StartChar: t
Encoding: 116 116 88
Width: 1024
Flags: W
LayerCount: 2
Fore
SplineSet
302 474 m 1,0,-1
 302 496 l 1,1,2
 310 497 310 497 317 496 c 0,3,4
 365 504 365 504 414 535 c 1,5,6
 464 572 464 572 474 644 c 1,7,-1
 493 644 l 1,8,-1
 493 497 l 1,9,-1
 692 497 l 1,10,-1
 681 474 l 1,11,-1
 493 474 l 1,12,-1
 493 178 l 2,13,14
 494 147 494 147 516 126 c 0,15,16
 537 108 537 108 586 108 c 0,17,18
 617 108 617 108 648 132 c 0,19,20
 677 154 677 154 701 206 c 1,21,-1
 721 197 l 1,22,23
 693 124 693 124 656 97 c 0,24,25
 614 66 614 66 562 66 c 0,26,27
 505 67 505 67 474 95 c 0,28,29
 441 124 441 124 441 178 c 2,30,-1
 441 474 l 1,31,-1
 302 474 l 1,0,-1
EndSplineSet
EndChar

StartChar: u
Encoding: 117 117 89
Width: 1024
Flags: W
LayerCount: 2
Fore
SplineSet
436 128 m 0,1,2
 459 108 459 108 499 108 c 0,3,4
 528 110 528 110 570 129 c 0,5,6
 598 144 598 144 634 171 c 1,7,-1
 634 435 l 2,8,9
 634 458 634 458 619 468 c 256,10,11
 604 478 604 478 574 478 c 1,12,-1
 574 495 l 1,13,-1
 686 495 l 1,14,-1
 686 140 l 2,15,16
 687 114 687 114 721 114 c 1,17,-1
 721 97 l 1,18,19
 682 90 682 90 634 77 c 1,20,-1
 634 137 l 1,21,22
 539 67 539 67 475 66 c 0,23,24
 428 66 428 66 397 94 c 0,25,26
 363 120 363 120 363 190 c 2,27,-1
 363 434 l 2,28,29
 362 457 362 457 349 467 c 0,30,31
 333 478 333 478 302 478 c 1,32,-1
 302 495 l 1,33,-1
 415 495 l 1,34,-1
 415 190 l 2,35,0
 415 149 415 149 436 128 c 0,1,2
EndSplineSet
EndChar

StartChar: v
Encoding: 118 118 90
Width: 1024
Flags: W
LayerCount: 2
Fore
SplineSet
310 478 m 1,1,-1
 310 495 l 1,2,-1
 463 495 l 1,3,-1
 463 478 l 1,4,5
 432 479 432 479 420 472 c 0,6,7
 407 464 407 464 414 446 c 2,8,-1
 528 144 l 1,9,-1
 647 445 l 2,10,11
 652 465 652 465 648 471 c 0,12,13
 642 479 642 479 620 478 c 1,14,-1
 620 495 l 1,15,-1
 714 495 l 1,16,-1
 714 478 l 1,17,18
 684 478 684 478 671 445 c 2,19,-1
 526 76 l 1,20,-1
 502 76 l 1,21,-1
 360 446 l 2,22,0
 346 478 346 478 310 478 c 1,1,-1
EndSplineSet
EndChar

StartChar: w
Encoding: 119 119 91
Width: 1024
Flags: W
LayerCount: 2
Fore
SplineSet
751 478 m 1,0,1
 723 477 723 477 713 440 c 2,2,-1
 606 76 l 1,3,-1
 585 76 l 1,4,-1
 518 362 l 1,5,-1
 424 76 l 1,6,-1
 403 76 l 1,7,-1
 317 432 l 2,8,9
 304 479 304 479 273 478 c 1,10,-1
 273 495 l 1,11,-1
 400 495 l 1,12,-1
 400 478 l 1,13,14
 367 478 367 478 363 471 c 0,15,16
 359 463 359 463 366 432 c 2,17,-1
 428 160 l 1,18,-1
 428 155 l 1,19,-1
 509 401 l 1,20,-1
 502 435 l 2,21,22
 491 478 491 478 457 478 c 1,23,-1
 457 495 l 1,24,-1
 590 495 l 1,25,-1
 590 478 l 1,26,27
 559 478 559 478 552 471 c 0,28,29
 544 463 544 463 548 435 c 2,30,-1
 606 157 l 1,31,-1
 606 151 l 1,32,-1
 692 440 l 2,33,34
 699 470 699 470 690 474 c 0,35,36
 681 479 681 479 668 478 c 1,37,-1
 668 495 l 1,38,-1
 751 495 l 1,39,-1
 751 478 l 1,0,1
EndSplineSet
EndChar

StartChar: x
Encoding: 120 120 92
Width: 1024
Flags: W
LayerCount: 2
Fore
SplineSet
558 93 m 1,0,1
 629 94 629 94 607 124 c 2,2,-1
 504 268 l 1,3,-1
 396 139 l 2,4,5
 356 94 356 94 432 93 c 1,6,-1
 432 76 l 1,7,-1
 285 76 l 1,8,-1
 285 93 l 1,9,10
 336 93 336 93 376 139 c 2,11,-1
 496 279 l 1,12,-1
 392 426 l 2,13,14
 353 478 353 478 292 478 c 1,15,-1
 292 495 l 1,16,-1
 473 495 l 1,17,-1
 473 478 l 1,18,19
 403 478 403 478 440 426 c 2,20,-1
 525 306 l 1,21,-1
 639 435 l 2,22,23
 675 479 675 479 599 478 c 1,24,-1
 599 495 l 1,25,-1
 731 495 l 1,26,-1
 731 478 l 1,27,28
 693 478 693 478 656 435 c 2,29,-1
 533 295 l 1,30,-1
 655 124 l 2,31,32
 678 93 678 93 739 93 c 1,33,-1
 739 76 l 1,34,-1
 558 76 l 1,35,-1
 558 93 l 1,0,1
EndSplineSet
EndChar

StartChar: y
Encoding: 121 121 93
Width: 1024
Flags: W
LayerCount: 2
Fore
SplineSet
436 -58 m 0,1,2
 398 -57 398 -57 382 -41 c 0,3,4
 364 -25 364 -25 364 -6 c 0,5,6
 363 25 363 25 379 38 c 256,7,8
 395 51 395 51 414 51 c 0,9,10
 448 51 448 51 455 14 c 0,11,12
 458 -19 458 -19 464 -19 c 0,13,14
 472 -19 472 -19 481 0 c 2,15,-1
 516 91 l 1,16,-1
 372 440 l 2,17,18
 354 479 354 479 302 478 c 1,19,-1
 302 495 l 1,20,-1
 477 495 l 1,21,-1
 477 478 l 1,22,23
 439 478 439 478 426 469 c 0,24,25
 417 461 417 461 424 440 c 2,26,-1
 543 158 l 1,27,-1
 654 442 l 2,28,29
 659 463 659 463 652 470 c 0,30,31
 643 479 643 479 624 478 c 1,32,-1
 624 495 l 1,33,-1
 722 495 l 1,34,-1
 722 478 l 1,35,36
 693 478 693 478 680 442 c 2,37,-1
 507 0 l 2,38,0
 482 -57 482 -57 436 -58 c 0,1,2
EndSplineSet
EndChar

StartChar: z
Encoding: 122 122 94
Width: 1024
Flags: W
LayerCount: 2
Fore
SplineSet
521 99 m 2,0,1
 577 100 577 100 613 113 c 0,2,3
 646 129 646 129 680 178 c 1,4,-1
 691 171 l 1,5,-1
 648 76 l 1,6,-1
 333 76 l 1,7,-1
 333 105 l 1,8,-1
 603 473 l 1,9,-1
 474 473 l 2,10,11
 425 473 425 473 400 457 c 0,12,13
 372 439 372 439 354 387 c 1,14,-1
 342 391 l 1,15,-1
 353 495 l 1,16,-1
 655 495 l 1,17,-1
 655 473 l 1,18,-1
 385 99 l 1,19,-1
 521 99 l 2,0,1
EndSplineSet
EndChar

StartChar: braceleft
Encoding: 123 123 95
Width: 1024
Flags: W
LayerCount: 2
Fore
SplineSet
669 844 m 1,1,-1
 669 823 l 1,2,3
 604 824 604 824 564 769 c 0,4,5
 523 712 523 712 533 579 c 0,6,7
 542 475 542 475 491 417 c 0,8,9
 465 388 465 388 432 373 c 1,10,11
 472 360 472 360 494 329 c 0,12,13
 540 271 540 271 527 159 c 0,14,15
 514 34 514 34 553 -6 c 0,16,17
 593 -46 593 -46 663 -47 c 1,18,-1
 663 -68 l 1,19,20
 561 -68 561 -68 512 -22 c 0,21,22
 458 29 458 29 471 159 c 0,23,24
 483 289 483 289 446 326 c 0,25,26
 414 358 414 358 354 358 c 1,27,-1
 354 386 l 1,28,29
 417 387 417 387 444 412 c 0,30,31
 471 440 471 440 478 579 c 0,32,33
 488 721 488 721 531 776 c 0,34,0
 579 845 579 845 669 844 c 1,1,-1
EndSplineSet
EndChar

StartChar: bar
Encoding: 124 124 96
Width: 1024
Flags: W
LayerCount: 2
Fore
SplineSet
532 844 m 1,0,-1
 532 -68 l 1,1,-1
 492 -68 l 1,2,-1
 492 844 l 1,3,-1
 532 844 l 1,0,-1
EndSplineSet
EndChar

StartChar: braceright
Encoding: 125 125 97
Width: 1024
Flags: W
LayerCount: 2
Fore
SplineSet
575 445 m 0,1,2
 603 407 603 407 669 406 c 1,3,-1
 669 378 l 1,4,5
 663 379 663 379 662 378 c 0,6,7
 604 378 604 378 580 351 c 0,8,9
 542 309 542 309 546 176 c 0,10,11
 550 19 550 19 507 -21 c 0,12,13
 459 -67 459 -67 354 -68 c 1,14,-1
 354 -47 l 1,15,16
 421 -45 421 -45 467 -5 c 0,17,18
 504 31 504 31 491 176 c 0,19,20
 478 289 478 289 533 350 c 0,21,22
 556 378 556 378 589 391 c 1,23,24
 549 407 549 407 525 441 c 0,25,26
 481 503 481 503 494 606 c 1,27,28
 503 732 503 732 457 783 c 0,29,30
 418 824 418 824 354 823 c 1,31,-1
 354 844 l 1,32,33
 450 845 450 845 495 794 c 1,34,35
 550 739 550 739 549 606 c 0,36,0
 548 482 548 482 575 445 c 0,1,2
EndSplineSet
EndChar

StartChar: asciitilde
Encoding: 126 126 98
Width: 1024
Flags: W
LayerCount: 2
Fore
SplineSet
726 686 m 1,0,1
 638 568 638 568 587 568 c 0,2,3
 562 568 562 568 489 607 c 0,4,5
 424 641 424 641 396 641 c 0,6,7
 363 640 363 640 323 579 c 1,8,-1
 297 595 l 1,9,10
 358 700 358 700 415 700 c 0,11,12
 443 700 443 700 509 663 c 0,13,14
 579 627 579 627 607 627 c 0,15,16
 639 627 639 627 700 705 c 1,17,-1
 726 686 l 1,0,1
EndSplineSet
EndChar

StartChar: uniE000
Encoding: 57344 57344 100
Width: 1024
Flags: W
LayerCount: 2
Fore
SplineSet
864 446 m 2,1,-1
 890 483 l 2,2,3
 897 492 897 492 906 483 c 0,4,5
 977 420 977 420 976 405 c 0,6,7
 974 397 974 397 961 396 c 2,8,-1
 157 396 l 2,9,10
 115 395 115 395 84 389 c 0,11,12
 75 386 75 386 74 395 c 0,13,14
 69 413 69 413 54 426 c 0,15,16
 46 433 46 433 50 437 c 0,17,18
 54 440 54 440 61 436 c 0,19,20
 99 427 99 427 145 427 c 2,21,-1
 834 427 l 2,22,0
 848 428 848 428 864 446 c 2,1,-1
EndSplineSet
EndChar

StartChar: uniE001
Encoding: 57345 57345 101
Width: 1024
Flags: W
LayerCount: 2
Fore
SplineSet
519 -45 m 0,1,2
 500 -66 500 -66 461 -76 c 0,3,4
 448 -81 448 -81 447 -71 c 0,5,6
 443 -39 443 -39 431 -32 c 0,7,8
 406 -18 406 -18 336 -5 c 0,9,10
 325 -3 325 -3 326 7 c 0,11,12
 327 21 327 21 351 15 c 0,13,14
 465 5 465 5 474 15 c 0,15,16
 487 29 487 29 488 54 c 2,17,-1
 488 708 l 1,18,-1
 175 708 l 2,19,20
 133 707 133 707 102 701 c 0,21,22
 93 698 93 698 92 707 c 0,23,24
 87 725 87 725 72 738 c 0,25,26
 64 745 64 745 68 749 c 0,27,28
 72 752 72 752 79 748 c 0,29,30
 117 739 117 739 163 739 c 2,31,-1
 816 739 l 2,32,33
 830 740 830 740 846 758 c 2,34,-1
 872 795 l 2,35,36
 879 804 879 804 888 795 c 0,37,38
 959 732 959 732 958 717 c 0,39,40
 956 709 956 709 943 708 c 2,41,-1
 536 708 l 1,42,-1
 536 16 l 2,43,0
 535 -26 535 -26 519 -45 c 0,1,2
EndSplineSet
EndChar

StartChar: uniE002
Encoding: 57346 57346 102
Width: 1024
Flags: W
LayerCount: 2
Fore
SplineSet
431 499 m 1,0,1
 443 603 443 603 443 728 c 1,2,-1
 175 728 l 2,3,4
 133 727 133 727 102 721 c 0,5,6
 93 718 93 718 92 727 c 0,7,8
 87 745 87 745 72 758 c 0,9,10
 64 765 64 765 68 769 c 0,11,12
 72 772 72 772 79 768 c 0,13,14
 117 759 117 759 163 759 c 2,15,-1
 816 759 l 2,16,17
 830 760 830 760 846 778 c 2,18,-1
 872 815 l 2,19,20
 879 824 879 824 888 815 c 0,21,22
 959 752 959 752 958 737 c 0,23,24
 956 729 956 729 943 728 c 2,25,-1
 493 728 l 1,26,27
 487 602 487 602 475 499 c 1,28,-1
 776 499 l 2,29,30
 787 500 787 500 791 504 c 2,31,-1
 814 536 l 2,32,33
 820 546 820 546 829 536 c 0,34,35
 866 504 866 504 888 482 c 0,36,37
 894 475 894 475 885 471 c 0,38,39
 869 466 869 466 862 460 c 1,40,41
 849 457 849 457 840 244 c 0,42,43
 835 184 835 184 831 136 c 0,44,45
 814 6 814 6 787 -24 c 0,46,47
 755 -60 755 -60 712 -78 c 0,48,49
 704 -82 704 -82 703 -76 c 0,50,51
 693 -31 693 -31 600 -19 c 0,52,53
 585 -17 585 -17 586 -7 c 0,54,55
 588 3 588 3 600 0 c 0,56,57
 729 -11 729 -11 745 7 c 0,58,59
 761 21 761 21 770 49 c 0,60,61
 783 97 783 97 790 227 c 0,62,63
 799 381 799 381 806 468 c 1,64,-1
 470 468 l 1,65,66
 459 392 459 392 444 328 c 0,67,68
 409 187 409 187 328 90 c 0,69,70
 257 3 257 3 136 -66 c 0,71,72
 118 -77 118 -77 111 -64 c 0,73,74
 107 -51 107 -51 123 -41 c 0,75,76
 229 27 229 27 308 126 c 1,77,78
 396 250 396 250 427 468 c 1,79,-1
 215 468 l 2,80,81
 173 467 173 467 142 461 c 0,82,83
 133 458 133 458 132 467 c 0,84,85
 127 485 127 485 112 498 c 0,86,87
 104 505 104 505 108 509 c 0,88,89
 112 512 112 512 119 508 c 0,90,91
 157 499 157 499 203 499 c 2,92,-1
 431 499 l 1,0,1
506 372 m 0,93,94
 514 379 514 379 526 368 c 0,95,96
 667 278 667 278 671 217 c 0,97,98
 673 193 673 193 654 159 c 0,99,100
 637 132 637 132 625 133 c 0,101,102
 612 134 612 134 611 157 c 0,103,104
 590 265 590 265 506 356 c 0,105,106
 502 364 502 364 506 372 c 0,93,94
EndSplineSet
EndChar

StartChar: uniE003
Encoding: 57347 57347 103
Width: 1024
Flags: W
LayerCount: 2
Fore
SplineSet
327 498 m 2,0,1
 335 498 335 498 339 504 c 2,2,-1
 361 527 l 2,3,4
 364 531 364 531 367 531 c 0,5,6
 382 530 382 530 424 482 c 0,7,8
 431 475 431 475 421 474 c 0,9,10
 398 473 398 473 386 462 c 0,11,12
 380 456 380 456 370 420 c 0,13,14
 332 279 332 279 259 179 c 0,15,16
 194 90 194 90 62 -5 c 0,17,18
 48 -14 48 -14 41 -5 c 0,19,20
 33 6 33 6 45 15 c 0,21,22
 138 82 138 82 223 196 c 1,23,24
 292 305 292 305 331 467 c 1,25,-1
 150 467 l 2,26,27
 108 466 108 466 77 461 c 0,28,29
 68 458 68 458 67 466 c 0,30,31
 62 485 62 485 47 497 c 0,32,33
 39 503 39 503 43 507 c 0,34,35
 47 510 47 510 54 506 c 0,36,37
 92 498 92 498 138 498 c 2,38,-1
 327 498 l 2,0,1
479 769 m 1,39,-1
 175 769 l 2,40,41
 133 768 133 768 102 762 c 0,42,43
 93 759 93 759 92 768 c 0,44,45
 87 786 87 786 72 799 c 0,46,47
 64 806 64 806 68 810 c 0,48,49
 72 813 72 813 79 809 c 0,50,51
 117 800 117 800 163 800 c 2,52,-1
 816 800 l 2,53,54
 830 801 830 801 846 819 c 2,55,-1
 872 856 l 2,56,57
 879 865 879 865 888 856 c 0,58,59
 959 793 959 793 958 778 c 0,60,61
 956 770 956 770 943 769 c 2,62,-1
 527 769 l 1,63,-1
 527 690 l 1,64,65
 508 627 508 627 601 421 c 1,66,67
 722 505 722 505 806 611 c 0,68,69
 809 615 809 615 813 616 c 256,70,71
 817 617 817 617 823 611 c 0,72,73
 847 588 847 588 869 563 c 0,74,75
 878 552 878 552 874 548 c 0,76,77
 871 546 871 546 865 547 c 0,78,79
 834 558 834 558 789 518 c 0,80,81
 726 466 726 466 611 398 c 1,82,83
 658 299 658 299 718 237 c 0,84,85
 851 96 851 96 981 71 c 0,86,87
 988 69 988 69 985 61 c 0,88,89
 983 53 983 53 971 54 c 0,90,91
 933 60 933 60 900 26 c 0,92,93
 895 22 895 22 888 28 c 0,94,95
 833 63 833 63 791 97 c 0,96,97
 611 235 611 235 527 530 c 1,98,-1
 527 23 l 2,99,100
 525 -10 525 -10 509 -36 c 0,101,102
 484 -69 484 -69 459 -81 c 0,103,104
 451 -87 451 -87 448 -87 c 0,105,106
 443 -86 443 -86 439 -69 c 0,107,108
 430 -43 430 -43 420 -34 c 0,109,110
 411 -23 411 -23 354 -17 c 0,111,112
 338 -15 338 -15 339 -3 c 256,113,114
 340 9 340 9 356 8 c 0,115,116
 443 -1 443 -1 464 7 c 0,117,118
 478 12 478 12 479 32 c 2,119,-1
 479 769 l 1,39,-1
EndSplineSet
EndChar

StartChar: uniE004
Encoding: 57348 57348 104
Width: 1024
Flags: W
LayerCount: 2
Fore
SplineSet
827 859 m 0,0,1
 831 867 831 867 844 859 c 0,2,3
 965 806 965 806 974 760 c 0,4,5
 979 741 979 741 967 712 c 0,6,7
 958 686 958 686 946 685 c 0,8,9
 936 685 936 685 933 704 c 0,10,11
 906 781 906 781 829 847 c 0,12,13
 823 853 823 853 827 859 c 0,0,1
327 498 m 2,14,15
 335 498 335 498 339 504 c 2,16,-1
 361 527 l 2,17,18
 364 531 364 531 367 531 c 0,19,20
 382 530 382 530 424 482 c 0,21,22
 431 475 431 475 421 474 c 0,23,24
 398 473 398 473 386 462 c 0,25,26
 380 456 380 456 370 420 c 0,27,28
 332 279 332 279 259 179 c 0,29,30
 194 90 194 90 62 -5 c 0,31,32
 48 -14 48 -14 41 -5 c 0,33,34
 33 6 33 6 45 15 c 0,35,36
 138 82 138 82 223 196 c 1,37,38
 292 305 292 305 331 467 c 1,39,-1
 150 467 l 2,40,41
 108 466 108 466 77 461 c 0,42,43
 68 458 68 458 67 466 c 0,44,45
 62 485 62 485 47 497 c 0,46,47
 39 503 39 503 43 507 c 0,48,49
 47 510 47 510 54 506 c 0,50,51
 92 498 92 498 138 498 c 2,52,-1
 327 498 l 2,14,15
479 769 m 1,53,-1
 175 769 l 2,54,55
 133 768 133 768 102 762 c 0,56,57
 93 759 93 759 92 768 c 0,58,59
 87 786 87 786 72 799 c 0,60,61
 64 806 64 806 68 810 c 0,62,63
 72 813 72 813 79 809 c 0,64,65
 117 800 117 800 163 800 c 2,66,-1
 656 800 l 2,67,68
 670 801 670 801 686 819 c 2,69,-1
 712 856 l 2,70,71
 719 865 719 865 728 856 c 0,72,73
 799 793 799 793 798 778 c 0,74,75
 796 770 796 770 783 769 c 2,76,-1
 527 769 l 1,77,-1
 527 690 l 1,78,79
 508 627 508 627 601 421 c 1,80,81
 722 505 722 505 806 611 c 0,82,83
 809 615 809 615 813 616 c 256,84,85
 817 617 817 617 823 611 c 0,86,87
 847 588 847 588 869 563 c 0,88,89
 878 552 878 552 874 548 c 0,90,91
 871 546 871 546 865 547 c 0,92,93
 834 558 834 558 789 518 c 0,94,95
 726 466 726 466 611 398 c 1,96,97
 658 299 658 299 718 237 c 0,98,99
 851 96 851 96 981 71 c 0,100,101
 988 69 988 69 985 61 c 0,102,103
 983 53 983 53 971 54 c 0,104,105
 933 60 933 60 900 26 c 0,106,107
 895 22 895 22 888 28 c 0,108,109
 833 63 833 63 791 97 c 0,110,111
 611 235 611 235 527 530 c 1,112,-1
 527 23 l 2,113,114
 525 -10 525 -10 509 -36 c 0,115,116
 484 -69 484 -69 459 -81 c 0,117,118
 451 -87 451 -87 448 -87 c 0,119,120
 443 -86 443 -86 439 -69 c 0,121,122
 430 -43 430 -43 420 -34 c 0,123,124
 411 -23 411 -23 354 -17 c 0,125,126
 338 -15 338 -15 339 -3 c 256,127,128
 340 9 340 9 356 8 c 0,129,130
 443 -1 443 -1 464 7 c 0,131,132
 478 12 478 12 479 32 c 2,133,-1
 479 769 l 1,53,-1
EndSplineSet
EndChar

StartChar: uniE005
Encoding: 57349 57349 105
Width: 1024
Flags: W
LayerCount: 2
Fore
SplineSet
246 667 m 0,0,1
 296 653 296 653 311 646 c 0,2,3
 322 639 322 639 309 633 c 0,4,5
 296 628 296 628 293 620 c 0,6,7
 287 606 287 606 287 560 c 2,8,-1
 287 497 l 1,9,10
 283 408 283 408 250 301 c 0,11,12
 200 157 200 157 80 74 c 0,13,14
 71 69 71 69 67 73 c 0,15,16
 63 80 63 80 70 85 c 0,17,18
 106 119 106 119 128 153 c 1,19,20
 216 263 216 263 241 497 c 1,21,-1
 241 560 l 2,22,23
 241 620 241 620 238 657 c 0,24,25
 238 669 238 669 246 667 c 0,0,1
587 381 m 1,26,27
 644 299 644 299 704 237 c 0,28,29
 837 96 837 96 967 71 c 0,30,31
 974 69 974 69 971 61 c 0,32,33
 969 53 969 53 957 54 c 0,34,35
 919 60 919 60 886 26 c 0,36,37
 881 22 881 22 874 28 c 0,38,39
 819 63 819 63 777 97 c 0,40,41
 597 235 597 235 513 450 c 1,42,-1
 513 23 l 2,43,44
 511 -10 511 -10 495 -36 c 0,45,46
 470 -69 470 -69 445 -81 c 0,47,48
 437 -87 437 -87 434 -87 c 0,49,50
 429 -86 429 -86 425 -69 c 0,51,52
 416 -43 416 -43 406 -34 c 0,53,54
 397 -23 397 -23 340 -17 c 0,55,56
 324 -15 324 -15 325 -3 c 256,57,58
 326 9 326 9 342 8 c 0,59,60
 429 -1 429 -1 450 7 c 0,61,62
 464 12 464 12 465 32 c 2,63,-1
 465 769 l 1,64,-1
 161 769 l 2,65,66
 119 768 119 768 88 762 c 0,67,68
 79 759 79 759 78 768 c 0,69,70
 73 786 73 786 58 799 c 0,71,72
 50 806 50 806 54 810 c 0,73,74
 58 813 58 813 65 809 c 0,75,76
 103 800 103 800 149 800 c 2,77,-1
 802 800 l 2,78,79
 816 801 816 801 832 819 c 2,80,-1
 858 856 l 2,81,82
 865 865 865 865 874 856 c 0,83,84
 945 793 945 793 944 778 c 0,85,86
 942 770 942 770 929 769 c 2,87,-1
 513 769 l 1,88,-1
 513 610 l 1,89,90
 496 553 496 553 571 410 c 1,91,92
 737 544 737 544 785 600 c 1,93,-1
 617 600 l 2,94,95
 584 599 584 599 559 593 c 0,96,97
 552 590 552 590 551 599 c 0,98,99
 547 617 547 617 535 630 c 0,100,101
 529 637 529 637 532 641 c 0,102,103
 535 644 535 644 541 640 c 0,104,105
 571 631 571 631 608 631 c 2,106,-1
 789 631 l 2,107,108
 797 631 797 631 800 637 c 2,109,-1
 822 667 l 2,110,111
 825 671 825 671 828 671 c 0,112,113
 837 671 837 671 873 611 c 0,114,115
 879 599 879 599 867 598 c 0,116,117
 865 598 865 598 864 597 c 0,118,119
 818 589 818 589 587 381 c 1,26,27
EndSplineSet
EndChar

StartChar: uniE006
Encoding: 57350 57350 106
Width: 1024
Flags: W
LayerCount: 2
Fore
SplineSet
872 34 m 2,1,-1
 898 71 l 2,2,3
 905 80 905 80 914 71 c 0,4,5
 985 8 985 8 984 -7 c 0,6,7
 982 -15 982 -15 969 -16 c 2,8,-1
 149 -16 l 2,9,10
 107 -17 107 -17 76 -23 c 0,11,12
 67 -26 67 -26 66 -17 c 0,13,14
 61 1 61 1 46 14 c 0,15,16
 38 21 38 21 42 25 c 0,17,18
 46 28 46 28 53 24 c 0,19,20
 91 15 91 15 137 15 c 2,21,-1
 470 15 l 1,22,-1
 470 320 l 1,23,-1
 285 320 l 2,24,25
 243 319 243 319 212 313 c 0,26,27
 203 310 203 310 202 319 c 0,28,29
 197 337 197 337 182 350 c 0,30,31
 174 357 174 357 178 361 c 0,32,33
 182 364 182 364 189 360 c 0,34,35
 227 351 227 351 273 351 c 2,36,-1
 470 351 l 1,37,-1
 470 720 l 1,38,-1
 201 720 l 2,39,40
 159 719 159 719 128 713 c 0,41,42
 119 710 119 710 118 719 c 0,43,44
 113 737 113 737 98 750 c 0,45,46
 90 757 90 757 94 761 c 0,47,48
 98 764 98 764 105 760 c 0,49,50
 143 751 143 751 189 751 c 2,51,-1
 778 751 l 2,52,53
 792 752 792 752 808 770 c 2,54,-1
 834 807 l 2,55,56
 841 816 841 816 850 807 c 0,57,58
 921 744 921 744 920 729 c 0,59,60
 918 721 918 721 905 720 c 2,61,-1
 518 720 l 1,62,-1
 518 351 l 1,63,-1
 706 351 l 2,64,65
 720 352 720 352 736 370 c 2,66,-1
 762 407 l 2,67,68
 769 416 769 416 778 407 c 0,69,70
 849 344 849 344 848 329 c 0,71,72
 846 321 846 321 833 320 c 2,73,-1
 518 320 l 1,74,-1
 518 15 l 1,75,-1
 842 15 l 2,76,0
 856 16 856 16 872 34 c 2,1,-1
285 629 m 0,78,79
 318 600 318 600 330 585 c 0,80,81
 340 576 340 576 339 570 c 0,82,83
 337 564 337 564 328 568 c 0,84,85
 307 572 307 572 277 527 c 1,86,87
 223 469 223 469 129 393 c 0,88,89
 118 385 118 385 112 392 c 0,90,91
 106 400 106 400 116 409 c 0,92,93
 175 465 175 465 227 550 c 0,94,95
 259 595 259 595 265 625 c 0,96,77
 270 642 270 642 285 629 c 0,78,79
723 618 m 0,98,99
 728 624 728 624 740 617 c 0,100,101
 882 534 882 534 892 459 c 0,102,103
 896 439 896 439 883 409 c 0,104,105
 873 385 873 385 861 385 c 0,106,107
 851 385 851 385 848 404 c 0,108,109
 808 523 808 523 725 605 c 0,110,97
 719 612 719 612 723 618 c 0,98,99
EndSplineSet
EndChar

StartChar: uniE007
Encoding: 57351 57351 107
Width: 1024
Flags: W
LayerCount: 2
Fore
SplineSet
872 34 m 2,1,-1
 898 71 l 2,2,3
 905 80 905 80 914 71 c 0,4,5
 985 8 985 8 984 -7 c 0,6,7
 982 -15 982 -15 969 -16 c 2,8,-1
 149 -16 l 2,9,10
 107 -17 107 -17 76 -23 c 0,11,12
 67 -26 67 -26 66 -17 c 0,13,14
 61 1 61 1 46 14 c 0,15,16
 38 21 38 21 42 25 c 0,17,18
 46 28 46 28 53 24 c 0,19,20
 91 15 91 15 137 15 c 2,21,-1
 470 15 l 1,22,-1
 470 320 l 1,23,-1
 285 320 l 2,24,25
 243 319 243 319 212 313 c 0,26,27
 203 310 203 310 202 319 c 0,28,29
 197 337 197 337 182 350 c 0,30,31
 174 357 174 357 178 361 c 0,32,33
 182 364 182 364 189 360 c 0,34,35
 227 351 227 351 273 351 c 2,36,-1
 470 351 l 1,37,-1
 470 720 l 1,38,-1
 201 720 l 2,39,40
 159 719 159 719 128 713 c 0,41,42
 119 710 119 710 118 719 c 0,43,44
 113 737 113 737 98 750 c 0,45,46
 90 757 90 757 94 761 c 0,47,48
 98 764 98 764 105 760 c 0,49,50
 143 751 143 751 189 751 c 2,51,-1
 678 751 l 2,52,53
 692 752 692 752 708 770 c 2,54,-1
 734 807 l 2,55,56
 741 816 741 816 750 807 c 0,57,58
 821 744 821 744 820 729 c 0,59,60
 818 721 818 721 805 720 c 2,61,-1
 518 720 l 1,62,-1
 518 351 l 1,63,-1
 706 351 l 2,64,65
 720 352 720 352 736 370 c 2,66,-1
 762 407 l 2,67,68
 769 416 769 416 778 407 c 0,69,70
 849 344 849 344 848 329 c 0,71,72
 846 321 846 321 833 320 c 2,73,-1
 518 320 l 1,74,-1
 518 15 l 1,75,-1
 842 15 l 2,76,0
 856 16 856 16 872 34 c 2,1,-1
285 629 m 0,78,79
 318 600 318 600 330 585 c 0,80,81
 340 576 340 576 339 570 c 0,82,83
 337 564 337 564 328 568 c 0,84,85
 307 572 307 572 277 527 c 1,86,87
 223 469 223 469 129 393 c 0,88,89
 118 385 118 385 112 392 c 0,90,91
 106 400 106 400 116 409 c 0,92,93
 175 465 175 465 227 550 c 0,94,95
 259 595 259 595 265 625 c 0,96,77
 270 642 270 642 285 629 c 0,78,79
723 618 m 0,98,99
 728 624 728 624 740 617 c 0,100,101
 882 534 882 534 892 459 c 0,102,103
 896 439 896 439 883 409 c 0,104,105
 873 385 873 385 861 385 c 0,106,107
 851 385 851 385 848 404 c 0,108,109
 808 523 808 523 725 605 c 0,110,97
 719 612 719 612 723 618 c 0,98,99
827 809 m 0,111,112
 831 817 831 817 844 809 c 0,113,114
 965 756 965 756 974 710 c 0,115,116
 979 691 979 691 967 662 c 0,117,118
 958 636 958 636 946 635 c 0,119,120
 936 635 936 635 933 654 c 0,121,122
 906 731 906 731 829 797 c 0,123,124
 823 803 823 803 827 809 c 0,111,112
EndSplineSet
EndChar

StartChar: uniE008
Encoding: 57352 57352 108
Width: 1024
Flags: W
LayerCount: 2
Fore
SplineSet
345 738 m 0,1,2
 384 713 384 713 412 691 c 0,3,4
 420 684 420 684 417 680 c 0,5,6
 412 675 412 675 399 676 c 0,7,8
 377 678 377 678 352 644 c 0,9,10
 220 494 220 494 82 425 c 0,11,12
 70 419 70 419 66 426 c 0,13,14
 63 434 63 434 72 440 c 0,15,16
 248 559 248 559 333 733 c 0,17,0
 338 742 338 742 345 738 c 0,1,2
603 708 m 0,19,20
 607 718 607 718 622 712 c 0,21,22
 747 666 747 666 820 614 c 0,23,24
 872 577 872 577 878 552 c 0,25,26
 883 528 883 528 873 512 c 0,27,28
 862 494 862 494 856 493 c 256,29,30
 850 492 850 492 838 510 c 0,31,32
 727 648 727 648 610 694 c 0,33,18
 602 698 602 698 603 708 c 0,19,20
589 455 m 0,35,36
 764 246 764 246 977 222 c 0,37,38
 984 221 984 221 983 214 c 0,39,40
 982 206 982 206 970 207 c 0,41,42
 954 208 954 208 935 198 c 0,43,44
 915 187 915 187 903 165 c 0,45,46
 899 159 899 159 887 166 c 0,47,48
 626 316 626 316 524 511 c 1,49,50
 511 500 511 500 492 475 c 0,51,52
 371 337 371 337 283 265 c 0,53,54
 193 188 193 188 58 121 c 0,55,56
 46 115 46 115 42 122 c 0,57,58
 39 130 39 130 48 136 c 0,59,60
 203 228 203 228 314 340 c 0,61,62
 410 440 410 440 489 582 c 0,63,64
 495 591 495 591 502 587 c 0,65,66
 539 562 539 562 567 538 c 0,67,68
 576 531 576 531 572 527 c 0,69,70
 569 523 569 523 554 524 c 0,71,72
 545 525 545 525 541 522 c 1,73,34
 564 486 564 486 589 455 c 0,35,36
526 -25 m 1,74,-1
 746 -25 l 2,75,76
 760 -24 760 -24 776 -6 c 2,77,-1
 802 31 l 2,78,79
 809 40 809 40 818 31 c 0,80,81
 889 -32 889 -32 888 -47 c 0,82,83
 886 -55 886 -55 873 -56 c 2,84,-1
 229 -56 l 2,85,86
 187 -57 187 -57 156 -63 c 0,87,88
 147 -66 147 -66 146 -57 c 0,89,90
 141 -39 141 -39 126 -26 c 0,91,92
 118 -19 118 -19 122 -15 c 0,93,94
 126 -12 126 -12 133 -16 c 0,95,96
 171 -25 171 -25 217 -25 c 2,97,-1
 478 -25 l 1,98,-1
 478 211 l 2,99,100
 477 250 477 250 474 281 c 0,101,102
 473 297 473 297 483 294 c 0,103,104
 536 277 536 277 554 268 c 0,105,106
 568 259 568 259 552 252 c 0,107,108
 537 244 537 244 533 234 c 0,109,110
 526 221 526 221 526 211 c 2,111,-1
 526 -25 l 1,74,-1
175 769 m 2,112,113
 133 768 133 768 102 762 c 0,114,115
 93 759 93 759 92 768 c 0,116,117
 87 786 87 786 72 799 c 0,118,119
 64 806 64 806 68 810 c 0,120,121
 72 813 72 813 79 809 c 0,122,123
 117 800 117 800 163 800 c 2,124,-1
 816 800 l 2,125,126
 830 801 830 801 846 819 c 2,127,-1
 872 856 l 2,128,129
 879 865 879 865 888 856 c 0,130,131
 959 793 959 793 958 778 c 0,132,133
 956 770 956 770 943 769 c 2,134,-1
 175 769 l 2,112,113
EndSplineSet
EndChar

StartChar: uniE009
Encoding: 57353 57353 109
Width: 1024
Flags: W
LayerCount: 2
Fore
SplineSet
824 387 m 2,0,1
 838 388 838 388 854 406 c 2,2,-1
 880 443 l 2,3,4
 887 452 887 452 896 443 c 0,5,6
 967 380 967 380 966 365 c 0,7,8
 964 357 964 357 951 356 c 2,9,-1
 554 356 l 1,10,11
 645 167 645 167 754 79 c 0,12,13
 821 24 821 24 959 -3 c 0,14,15
 966 -4 966 -4 965 -13 c 0,16,17
 965 -22 965 -22 953 -23 c 0,18,19
 914 -23 914 -23 889 -68 c 0,20,21
 887 -72 887 -72 877 -68 c 0,22,23
 831 -47 831 -47 795 -25 c 0,24,25
 639 70 639 70 530 352 c 0,26,27
 529 355 529 355 528 356 c 2,28,-1
 525 356 l 1,29,-1
 525 359 l 2,30,31
 524 365 524 365 520 364 c 0,32,33
 513 364 513 364 513 337 c 1,34,35
 492 221 492 221 435 142 c 1,36,37
 377 69 377 69 298 18 c 0,38,39
 218 -32 218 -32 80 -80 c 0,40,41
 68 -85 68 -85 64 -76 c 0,42,43
 62 -67 62 -67 72 -63 c 0,44,45
 211 -6 211 -6 290 54 c 0,46,47
 431 154 431 154 471 356 c 1,48,-1
 167 356 l 2,49,50
 125 355 125 355 94 349 c 0,51,52
 85 346 85 346 84 355 c 0,53,54
 79 373 79 373 64 386 c 0,55,56
 56 393 56 393 60 397 c 0,57,58
 64 400 64 400 71 396 c 0,59,60
 109 387 109 387 155 387 c 2,61,-1
 824 387 l 2,0,1
267 780 m 2,62,63
 225 779 225 779 194 773 c 0,64,65
 185 770 185 770 184 779 c 0,66,67
 179 797 179 797 164 810 c 0,68,69
 156 817 156 817 160 821 c 0,70,71
 164 824 164 824 171 820 c 0,72,73
 209 811 209 811 255 811 c 2,74,-1
 732 811 l 2,75,76
 746 812 746 812 762 830 c 2,77,-1
 788 867 l 2,78,79
 795 876 795 876 804 867 c 0,80,81
 875 804 875 804 874 789 c 0,82,83
 872 781 872 781 859 780 c 2,84,-1
 267 780 l 2,62,63
230 696 m 0,85,86
 235 703 235 703 247 693 c 0,87,88
 366 607 366 607 373 552 c 0,89,90
 375 527 375 527 362 494 c 0,91,92
 349 467 349 467 339 467 c 0,93,94
 329 469 329 469 326 491 c 0,95,96
 306 588 306 588 231 681 c 0,97,98
 225 688 225 688 230 696 c 0,85,86
761 715 m 0,99,100
 767 715 767 715 824 657 c 0,101,102
 835 644 835 644 831 639 c 0,103,104
 828 634 828 634 822 635 c 0,105,106
 792 643 792 643 763 599 c 0,107,108
 728 549 728 549 657 481 c 0,109,110
 645 469 645 469 636 479 c 0,111,112
 629 490 629 490 642 506 c 0,113,114
 710 593 710 593 755 707 c 0,115,116
 758 715 758 715 761 715 c 0,99,100
EndSplineSet
EndChar

StartChar: uniE00A
Encoding: 57354 57354 110
Width: 1024
Flags: W
LayerCount: 2
Fore
SplineSet
230 696 m 0,0,1
 235 703 235 703 247 693 c 0,2,3
 366 607 366 607 373 552 c 0,4,5
 375 527 375 527 362 494 c 0,6,7
 349 467 349 467 339 467 c 0,8,9
 329 469 329 469 326 491 c 0,10,11
 306 588 306 588 231 681 c 0,12,13
 225 688 225 688 230 696 c 0,0,1
532 780 m 1,14,-1
 532 595 l 2,15,16
 532 472 532 472 520 387 c 1,17,-1
 824 387 l 2,18,19
 838 388 838 388 854 406 c 2,20,-1
 880 443 l 2,21,22
 887 452 887 452 896 443 c 0,23,24
 967 380 967 380 966 365 c 0,25,26
 964 357 964 357 951 356 c 2,27,-1
 554 356 l 1,28,29
 645 167 645 167 754 79 c 0,30,31
 821 24 821 24 959 -3 c 0,32,33
 966 -4 966 -4 965 -13 c 0,34,35
 965 -22 965 -22 953 -23 c 0,36,37
 914 -23 914 -23 889 -68 c 0,38,39
 887 -72 887 -72 877 -68 c 0,40,41
 831 -47 831 -47 795 -25 c 0,42,43
 639 70 639 70 530 352 c 0,44,45
 529 355 529 355 528 356 c 2,46,-1
 525 356 l 1,47,-1
 525 359 l 2,48,49
 524 365 524 365 520 364 c 0,50,51
 513 364 513 364 513 337 c 1,52,53
 492 221 492 221 435 142 c 1,54,55
 377 69 377 69 298 18 c 0,56,57
 218 -32 218 -32 80 -80 c 0,58,59
 68 -85 68 -85 64 -76 c 0,60,61
 62 -67 62 -67 72 -63 c 0,62,63
 211 -6 211 -6 290 54 c 0,64,65
 431 154 431 154 471 356 c 1,66,-1
 167 356 l 2,67,68
 125 355 125 355 94 349 c 0,69,70
 85 346 85 346 84 355 c 0,71,72
 79 373 79 373 64 386 c 0,73,74
 56 393 56 393 60 397 c 0,75,76
 64 400 64 400 71 396 c 0,77,78
 109 387 109 387 155 387 c 2,79,-1
 474 387 l 1,80,81
 484 477 484 477 484 595 c 2,82,-1
 484 780 l 1,83,-1
 267 780 l 2,84,85
 225 779 225 779 194 773 c 0,86,87
 185 770 185 770 184 779 c 0,88,89
 179 797 179 797 164 810 c 0,90,91
 156 817 156 817 160 821 c 0,92,93
 164 824 164 824 171 820 c 0,94,95
 209 811 209 811 255 811 c 2,96,-1
 732 811 l 2,97,98
 746 812 746 812 762 830 c 2,99,-1
 788 867 l 2,100,101
 795 876 795 876 804 867 c 0,102,103
 875 804 875 804 874 789 c 0,104,105
 872 781 872 781 859 780 c 2,106,-1
 532 780 l 1,14,-1
761 715 m 0,107,108
 767 715 767 715 824 657 c 0,109,110
 835 644 835 644 831 639 c 0,111,112
 828 634 828 634 822 635 c 0,113,114
 792 643 792 643 763 599 c 0,115,116
 728 549 728 549 657 481 c 0,117,118
 645 469 645 469 636 479 c 0,119,120
 629 490 629 490 642 506 c 0,121,122
 710 593 710 593 755 707 c 0,123,124
 758 715 758 715 761 715 c 0,107,108
EndSplineSet
EndChar

StartChar: uniE00B
Encoding: 57355 57355 111
Width: 1024
Flags: W
LayerCount: 2
Fore
SplineSet
532 605 m 1,0,-1
 694 605 l 2,1,2
 708 606 708 606 724 624 c 2,3,-1
 750 661 l 2,4,5
 757 670 757 670 766 661 c 0,6,7
 837 598 837 598 836 583 c 0,8,9
 834 575 834 575 821 574 c 2,10,-1
 532 574 l 1,11,12
 531 465 531 465 520 387 c 1,13,-1
 824 387 l 2,14,15
 838 388 838 388 854 406 c 2,16,-1
 880 443 l 2,17,18
 887 452 887 452 896 443 c 0,19,20
 967 380 967 380 966 365 c 0,21,22
 964 357 964 357 951 356 c 2,23,-1
 554 356 l 1,24,25
 645 167 645 167 754 79 c 0,26,27
 821 24 821 24 959 -3 c 0,28,29
 966 -4 966 -4 965 -13 c 0,30,31
 965 -22 965 -22 953 -23 c 0,32,33
 914 -23 914 -23 889 -68 c 0,34,35
 887 -72 887 -72 877 -68 c 0,36,37
 831 -47 831 -47 795 -25 c 0,38,39
 639 70 639 70 530 352 c 0,40,41
 529 355 529 355 528 356 c 2,42,-1
 525 356 l 1,43,-1
 525 359 l 2,44,45
 524 365 524 365 520 364 c 0,46,47
 513 364 513 364 513 337 c 1,48,49
 492 221 492 221 435 142 c 1,50,51
 377 69 377 69 298 18 c 0,52,53
 218 -32 218 -32 80 -80 c 0,54,55
 68 -85 68 -85 64 -76 c 0,56,57
 62 -67 62 -67 72 -63 c 0,58,59
 211 -6 211 -6 290 54 c 0,60,61
 431 154 431 154 471 356 c 1,62,-1
 167 356 l 2,63,64
 125 355 125 355 94 349 c 0,65,66
 85 346 85 346 84 355 c 0,67,68
 79 373 79 373 64 386 c 0,69,70
 56 393 56 393 60 397 c 0,71,72
 64 400 64 400 71 396 c 0,73,74
 109 387 109 387 155 387 c 2,75,-1
 474 387 l 1,76,77
 483 469 483 469 484 574 c 1,78,-1
 273 574 l 2,79,80
 231 573 231 573 200 567 c 0,81,82
 191 564 191 564 190 573 c 0,83,84
 185 591 185 591 170 604 c 0,85,86
 162 611 162 611 166 615 c 0,87,88
 170 618 170 618 177 614 c 0,89,90
 215 605 215 605 261 605 c 2,91,-1
 484 605 l 1,92,-1
 484 780 l 1,93,-1
 267 780 l 2,94,95
 225 779 225 779 194 773 c 0,96,97
 185 770 185 770 184 779 c 0,98,99
 179 797 179 797 164 810 c 0,100,101
 156 817 156 817 160 821 c 0,102,103
 164 824 164 824 171 820 c 0,104,105
 209 811 209 811 255 811 c 2,106,-1
 732 811 l 2,107,108
 746 812 746 812 762 830 c 2,109,-1
 788 867 l 2,110,111
 795 876 795 876 804 867 c 0,112,113
 875 804 875 804 874 789 c 0,114,115
 872 781 872 781 859 780 c 2,116,-1
 532 780 l 1,117,-1
 532 605 l 1,0,-1
EndSplineSet
EndChar

StartChar: uniE00C
Encoding: 57356 57356 112
Width: 1024
Flags: W
LayerCount: 2
Fore
SplineSet
529 531 m 1,0,1
 527 451 527 451 520 397 c 1,2,-1
 552 336 l 2,3,4
 643 167 643 167 752 79 c 0,5,6
 819 24 819 24 957 -3 c 0,7,8
 964 -4 964 -4 963 -13 c 0,9,10
 963 -22 963 -22 951 -23 c 0,11,12
 912 -23 912 -23 887 -68 c 0,13,14
 885 -72 885 -72 875 -68 c 0,15,16
 829 -47 829 -47 793 -25 c 0,17,18
 637 70 637 70 528 322 c 0,19,20
 525 330 525 330 518 334 c 1,21,22
 511 328 511 328 505 301 c 0,23,24
 490 221 490 221 433 142 c 1,25,26
 375 69 375 69 296 18 c 0,27,28
 216 -32 216 -32 78 -80 c 0,29,30
 66 -85 66 -85 62 -76 c 0,31,32
 60 -67 60 -67 70 -63 c 0,33,34
 209 -6 209 -6 288 54 c 0,35,36
 429 154 429 154 469 356 c 1,37,-1
 475 395 l 1,38,39
 480 454 480 454 481 531 c 1,40,-1
 212 531 l 1,41,-1
 212 386 l 2,42,43
 211 279 211 279 212 204 c 0,44,45
 211 189 211 189 174 164 c 0,46,47
 166 160 166 160 162 160 c 0,48,49
 156 161 156 161 157 180 c 0,50,51
 161 280 161 280 164 386 c 2,52,-1
 164 504 l 2,53,54
 163 536 163 536 157 582 c 0,55,56
 155 592 155 592 158 593 c 0,57,58
 159 593 159 593 198 562 c 1,59,-1
 482 562 l 1,60,-1
 482 765 l 1,61,-1
 203 765 l 2,62,63
 161 764 161 764 130 758 c 0,64,65
 121 755 121 755 120 764 c 0,66,67
 115 782 115 782 100 795 c 0,68,69
 92 802 92 802 96 806 c 0,70,71
 100 809 100 809 107 805 c 0,72,73
 145 796 145 796 191 796 c 2,74,-1
 784 796 l 2,75,76
 798 797 798 797 814 815 c 2,77,-1
 840 852 l 2,78,79
 847 861 847 861 856 852 c 0,80,81
 927 789 927 789 926 774 c 0,82,83
 924 766 924 766 911 765 c 2,84,-1
 530 765 l 1,85,-1
 530 562 l 1,86,-1
 807 562 l 2,87,88
 816 562 816 562 817 563 c 2,89,-1
 842 596 l 2,90,91
 844 600 844 600 848 600 c 256,92,93
 852 600 852 600 856 596 c 0,94,95
 887 571 887 571 911 546 c 0,96,97
 918 538 918 538 902 532 c 0,98,99
 878 522 878 522 875 518 c 0,100,101
 872 512 872 512 872 505 c 2,102,-1
 872 259 l 2,103,104
 872 225 872 225 854 200 c 256,105,106
 836 175 836 175 809 165 c 0,107,108
 799 161 799 161 798 171 c 0,109,110
 778 219 778 219 705 231 c 0,111,112
 694 233 694 233 695 243 c 256,113,114
 696 253 696 253 709 250 c 0,115,116
 816 245 816 245 817 245 c 0,117,118
 824 249 824 249 824 270 c 2,119,-1
 824 531 l 1,120,-1
 529 531 l 1,0,1
EndSplineSet
EndChar

StartChar: uniE00D
Encoding: 57357 57357 113
Width: 1024
Flags: W
LayerCount: 2
Fore
SplineSet
540 228 m 1,0,-1
 540 -17 l 1,1,-1
 832 -17 l 2,2,3
 844 -17 844 -17 848 -13 c 0,4,5
 853 -8 853 -8 862 2 c 2,6,-1
 888 39 l 2,7,8
 895 48 895 48 904 39 c 0,9,10
 935 11 935 11 965 -20 c 0,11,12
 975 -30 975 -30 974 -39 c 0,13,14
 972 -47 972 -47 959 -48 c 2,15,-1
 142 -48 l 2,16,17
 115 -48 115 -48 81 -55 c 0,18,19
 76 -56 76 -56 75 -53 c 0,20,21
 62 -33 62 -33 52 -17 c 0,22,23
 46 -7 46 -7 59 -10 c 0,24,25
 120 -16 120 -16 127 -17 c 2,26,-1
 492 -17 l 1,27,-1
 492 228 l 1,28,-1
 275 228 l 1,29,30
 248 205 248 205 238 187 c 0,31,32
 230 177 230 177 223 187 c 0,33,34
 205 209 205 209 189 222 c 0,35,36
 181 229 181 229 190 235 c 0,37,38
 204 243 204 243 205 247 c 0,39,40
 208 251 208 251 208 261 c 2,41,-1
 208 486 l 2,42,43
 208 537 208 537 201 571 c 0,44,45
 199 581 199 581 203 585 c 0,46,47
 208 588 208 588 221 576 c 0,48,49
 239 560 239 560 260 547 c 1,50,-1
 492 547 l 1,51,-1
 492 756 l 1,52,-1
 260 756 l 2,53,54
 233 756 233 756 199 749 c 0,55,56
 194 748 194 748 193 751 c 0,57,58
 180 771 180 771 170 787 c 0,59,60
 164 797 164 797 177 794 c 0,61,62
 238 788 238 788 245 787 c 2,63,-1
 722 787 l 2,64,65
 734 787 734 787 738 791 c 0,66,67
 743 796 743 796 752 806 c 2,68,-1
 778 843 l 2,69,70
 785 852 785 852 794 843 c 0,71,72
 825 815 825 815 855 784 c 0,73,74
 865 774 865 774 864 765 c 0,75,76
 862 757 862 757 849 756 c 2,77,-1
 540 756 l 1,78,-1
 540 547 l 1,79,-1
 756 547 l 2,80,81
 762 547 762 547 765 551 c 2,82,-1
 783 579 l 2,83,84
 790 587 790 587 797 580 c 0,85,86
 826 561 826 561 854 539 c 0,87,88
 863 531 863 531 862 527 c 0,89,90
 860 522 860 522 853 518 c 0,91,92
 827 506 827 506 826 499 c 0,93,94
 824 493 824 493 824 486 c 2,95,-1
 824 310 l 2,96,97
 824 274 824 274 830 213 c 0,98,99
 831 202 831 202 825 201 c 0,100,101
 782 186 782 186 778 187 c 0,102,103
 776 188 776 188 776 198 c 2,104,-1
 776 228 l 1,105,-1
 540 228 l 1,0,-1
776 259 m 1,106,-1
 776 516 l 1,107,-1
 540 516 l 1,108,-1
 540 259 l 1,109,-1
 776 259 l 1,106,-1
492 516 m 1,110,-1
 256 516 l 1,111,-1
 256 259 l 1,112,-1
 492 259 l 1,113,-1
 492 516 l 1,110,-1
EndSplineSet
EndChar

StartChar: uniE00E
Encoding: 57358 57358 114
Width: 1024
Flags: W
LayerCount: 2
Fore
SplineSet
333 623 m 2,0,1
 341 623 341 623 344 629 c 2,2,-1
 366 659 l 2,3,4
 369 663 369 663 372 663 c 256,5,6
 375 663 375 663 378 659 c 0,7,8
 402 627 402 627 417 603 c 0,9,10
 423 591 423 591 411 590 c 0,11,12
 390 586 390 586 377 579 c 0,13,14
 359 566 359 566 334 535 c 0,15,16
 301 493 301 493 262 435 c 1,17,18
 278 428 278 428 286 422 c 0,19,20
 295 414 295 414 283 407 c 0,21,22
 269 399 269 399 266 390 c 0,23,24
 261 371 261 371 261 310 c 2,25,-1
 261 -1 l 2,26,27
 259 -34 259 -34 244 -56 c 0,28,29
 228 -78 228 -78 208 -85 c 0,30,31
 198 -89 198 -89 195 -80 c 0,32,33
 190 -68 190 -68 166 -52 c 256,34,35
 142 -36 142 -36 96 -26 c 0,36,37
 86 -24 86 -24 87 -12 c 0,38,39
 87 -5 87 -5 98 -5 c 0,40,41
 129 -7 129 -7 170 -10 c 0,42,43
 205 -14 205 -14 213 -7 c 0,44,45
 215 -3 215 -3 215 10 c 2,46,-1
 215 310 l 2,47,48
 215 390 215 390 212 439 c 0,49,50
 210 455 210 455 218 452 c 0,51,52
 230 447 230 447 245 443 c 1,53,54
 290 522 290 522 330 592 c 1,55,-1
 138 592 l 2,56,57
 116 592 116 592 89 585 c 0,58,59
 85 584 85 584 84 587 c 0,60,61
 74 606 74 606 66 622 c 0,62,63
 61 632 61 632 71 629 c 0,64,65
 120 624 120 624 126 623 c 2,66,-1
 333 623 l 2,0,1
874 623 m 2,67,68
 882 623 882 623 885 629 c 2,69,-1
 907 659 l 2,70,71
 910 663 910 663 913 663 c 256,72,73
 916 663 916 663 918 659 c 0,74,75
 943 627 943 627 958 603 c 0,76,77
 964 591 964 591 952 590 c 0,78,79
 930 586 930 586 918 579 c 0,80,81
 898 566 898 566 872 532 c 0,82,83
 836 489 836 489 795 429 c 1,84,85
 809 424 809 424 817 418 c 0,86,87
 826 410 826 410 814 403 c 0,88,89
 800 395 800 395 797 386 c 0,90,91
 792 367 792 367 792 306 c 2,92,-1
 792 -1 l 2,93,94
 790 -34 790 -34 775 -56 c 0,95,96
 759 -78 759 -78 739 -85 c 0,97,98
 730 -89 730 -89 726 -80 c 0,99,100
 720 -68 720 -68 695 -52 c 0,101,102
 670 -35 670 -35 621 -25 c 0,103,104
 611 -24 611 -24 612 -12 c 0,105,106
 612 -5 612 -5 622 -5 c 0,107,108
 655 -7 655 -7 699 -11 c 0,109,110
 736 -14 736 -14 744 -7 c 0,111,112
 747 -3 747 -3 747 10 c 2,113,-1
 747 306 l 2,114,115
 746 386 746 386 743 435 c 0,116,117
 741 451 741 451 749 448 c 0,118,119
 761 442 761 442 778 438 c 1,120,121
 827 520 827 520 870 592 c 1,122,-1
 685 592 l 2,123,124
 663 592 663 592 636 585 c 0,125,126
 632 584 632 584 631 587 c 0,127,128
 621 606 621 606 613 622 c 0,129,130
 608 632 608 632 618 629 c 0,131,132
 667 624 667 624 673 623 c 2,133,-1
 874 623 l 2,67,68
480 769 m 1,134,-1
 176 769 l 2,135,136
 134 768 134 768 103 762 c 0,137,138
 94 759 94 759 93 768 c 0,139,140
 88 786 88 786 73 799 c 0,141,142
 65 806 65 806 69 810 c 0,143,144
 73 813 73 813 80 809 c 0,145,146
 118 800 118 800 164 800 c 2,147,-1
 817 800 l 2,148,149
 831 801 831 801 847 819 c 2,150,-1
 873 856 l 2,151,152
 880 865 880 865 889 856 c 0,153,154
 960 793 960 793 959 778 c 0,155,156
 957 770 957 770 944 769 c 2,157,-1
 528 769 l 1,158,-1
 528 148 l 2,159,160
 528 30 528 30 532 -49 c 0,161,162
 531 -58 531 -58 486 -88 c 0,163,164
 472 -97 472 -97 473 -76 c 0,165,166
 480 57 480 57 480 148 c 2,167,-1
 480 769 l 1,134,-1
EndSplineSet
EndChar

StartChar: uniE00F
Encoding: 57359 57359 115
Width: 1024
Flags: W
LayerCount: 2
Fore
SplineSet
494 765 m 1,0,-1
 205 765 l 2,1,2
 163 764 163 764 132 758 c 0,3,4
 123 755 123 755 122 764 c 0,5,6
 117 782 117 782 102 795 c 0,7,8
 94 802 94 802 98 806 c 0,9,10
 102 809 102 809 109 805 c 0,11,12
 147 796 147 796 193 796 c 2,13,-1
 786 796 l 2,14,15
 800 797 800 797 816 815 c 2,16,-1
 842 852 l 2,17,18
 849 861 849 861 858 852 c 0,19,20
 929 789 929 789 928 774 c 0,21,22
 926 766 926 766 913 765 c 2,23,-1
 542 765 l 1,24,-1
 542 562 l 1,25,-1
 809 562 l 2,26,27
 818 562 818 562 819 563 c 2,28,-1
 844 596 l 2,29,30
 846 600 846 600 850 600 c 256,31,32
 854 600 854 600 858 596 c 0,33,34
 889 571 889 571 913 546 c 0,35,36
 920 538 920 538 904 532 c 0,37,38
 880 522 880 522 877 518 c 0,39,40
 874 512 874 512 874 505 c 2,41,-1
 874 139 l 2,42,43
 874 105 874 105 856 80 c 256,44,45
 838 55 838 55 811 45 c 0,46,47
 801 41 801 41 800 51 c 0,48,49
 780 99 780 99 707 111 c 0,50,51
 696 113 696 113 697 123 c 256,52,53
 698 133 698 133 711 130 c 0,54,55
 818 125 818 125 819 125 c 0,56,57
 826 129 826 129 826 150 c 2,58,-1
 826 531 l 1,59,-1
 542 531 l 1,60,-1
 542 148 l 2,61,62
 542 30 542 30 546 -49 c 0,63,64
 545 -58 545 -58 500 -88 c 0,65,66
 486 -97 486 -97 487 -76 c 0,67,68
 494 57 494 57 494 148 c 2,69,-1
 494 531 l 1,70,-1
 214 531 l 1,71,-1
 214 266 l 2,72,73
 213 159 213 159 214 84 c 0,74,75
 213 69 213 69 176 44 c 0,76,77
 168 40 168 40 164 40 c 0,78,79
 158 41 158 41 159 60 c 0,80,81
 163 160 163 160 166 266 c 2,82,-1
 166 504 l 2,83,84
 165 536 165 536 159 582 c 0,85,86
 157 592 157 592 160 593 c 0,87,88
 161 593 161 593 200 562 c 1,89,-1
 494 562 l 1,90,-1
 494 765 l 1,0,-1
EndSplineSet
EndChar

StartChar: uniE010
Encoding: 57360 57360 116
Width: 1024
Flags: W
LayerCount: 2
Fore
SplineSet
530 345 m 1,0,-1
 654 345 l 2,1,2
 668 346 668 346 684 364 c 2,3,-1
 710 401 l 2,4,5
 717 410 717 410 726 401 c 0,6,7
 797 338 797 338 796 323 c 0,8,9
 794 315 794 315 781 314 c 2,10,-1
 530 314 l 1,11,-1
 530 175 l 2,12,13
 530 57 530 57 534 -22 c 0,14,15
 533 -31 533 -31 488 -61 c 0,16,17
 474 -70 474 -70 475 -49 c 0,18,19
 482 84 482 84 482 175 c 2,20,-1
 482 314 l 1,21,-1
 333 314 l 2,22,23
 291 313 291 313 260 307 c 0,24,25
 251 304 251 304 250 313 c 0,26,27
 245 331 245 331 230 344 c 0,28,29
 222 351 222 351 226 355 c 0,30,31
 230 358 230 358 237 354 c 0,32,33
 275 345 275 345 321 345 c 2,34,-1
 482 345 l 1,35,-1
 482 588 l 1,36,-1
 206 588 l 1,37,-1
 206 161 l 2,38,39
 205 54 205 54 206 -21 c 0,40,41
 205 -36 205 -36 168 -61 c 0,42,43
 160 -65 160 -65 156 -65 c 0,44,45
 150 -64 150 -64 151 -45 c 0,46,47
 155 55 155 55 158 161 c 2,48,-1
 158 561 l 2,49,50
 157 593 157 593 151 639 c 0,51,52
 149 649 149 649 152 650 c 0,53,54
 153 650 153 650 192 619 c 1,55,-1
 482 619 l 1,56,-1
 482 760 l 1,57,-1
 145 760 l 2,58,59
 103 759 103 759 72 753 c 0,60,61
 63 750 63 750 62 759 c 0,62,63
 57 777 57 777 42 790 c 0,64,65
 34 797 34 797 38 801 c 0,66,67
 42 804 42 804 49 800 c 0,68,69
 87 791 87 791 133 791 c 2,70,-1
 846 791 l 2,71,72
 860 792 860 792 876 810 c 2,73,-1
 902 847 l 2,74,75
 909 856 909 856 918 847 c 0,76,77
 989 784 989 784 988 769 c 0,78,79
 986 761 986 761 973 760 c 2,80,-1
 530 760 l 1,81,-1
 530 619 l 1,82,-1
 813 619 l 2,83,84
 822 619 822 619 823 620 c 2,85,-1
 848 653 l 2,86,87
 850 657 850 657 854 657 c 256,88,89
 858 657 858 657 862 653 c 0,90,91
 893 628 893 628 917 603 c 0,92,93
 924 595 924 595 908 589 c 0,94,95
 884 579 884 579 881 575 c 0,96,97
 878 569 878 569 878 562 c 2,98,-1
 878 18 l 2,99,100
 878 -16 878 -16 860 -41 c 256,101,102
 842 -66 842 -66 815 -76 c 0,103,104
 806 -80 806 -80 803 -71 c 0,105,106
 783 -20 783 -20 708 -14 c 0,107,108
 696 -12 696 -12 697 -2 c 0,109,110
 698 7 698 7 711 6 c 0,111,112
 817 1 817 1 823 4 c 0,113,114
 830 8 830 8 830 29 c 2,115,-1
 830 588 l 1,116,-1
 530 588 l 1,117,-1
 530 345 l 1,0,-1
EndSplineSet
EndChar

StartChar: uniE011
Encoding: 57361 57361 117
Width: 1024
Flags: W
LayerCount: 2
Fore
SplineSet
482 760 m 1,0,-1
 145 760 l 2,1,2
 103 759 103 759 72 753 c 0,3,4
 63 750 63 750 62 759 c 0,5,6
 57 777 57 777 42 790 c 0,7,8
 34 797 34 797 38 801 c 0,9,10
 42 804 42 804 49 800 c 0,11,12
 87 791 87 791 133 791 c 2,13,-1
 846 791 l 2,14,15
 860 792 860 792 876 810 c 2,16,-1
 902 847 l 2,17,18
 909 856 909 856 918 847 c 0,19,20
 989 784 989 784 988 769 c 0,21,22
 986 761 986 761 973 760 c 2,23,-1
 530 760 l 1,24,-1
 530 619 l 1,25,-1
 813 619 l 2,26,27
 822 619 822 619 823 620 c 2,28,-1
 848 653 l 2,29,30
 850 657 850 657 854 657 c 256,31,32
 858 657 858 657 862 653 c 0,33,34
 893 628 893 628 917 603 c 0,35,36
 924 595 924 595 908 589 c 0,37,38
 884 579 884 579 881 575 c 0,39,40
 878 569 878 569 878 562 c 2,41,-1
 878 18 l 2,42,43
 878 -16 878 -16 860 -41 c 256,44,45
 842 -66 842 -66 815 -76 c 0,46,47
 806 -80 806 -80 803 -71 c 0,48,49
 783 -20 783 -20 708 -14 c 0,50,51
 696 -12 696 -12 697 -2 c 0,52,53
 698 7 698 7 711 6 c 0,54,55
 817 1 817 1 823 4 c 0,56,57
 830 8 830 8 830 29 c 2,58,-1
 830 588 l 1,59,-1
 530 588 l 1,60,-1
 530 175 l 2,61,62
 530 57 530 57 534 -22 c 0,63,64
 533 -31 533 -31 488 -61 c 0,65,66
 474 -70 474 -70 475 -49 c 0,67,68
 482 84 482 84 482 175 c 2,69,-1
 482 588 l 1,70,-1
 206 588 l 1,71,-1
 206 161 l 2,72,73
 205 54 205 54 206 -21 c 0,74,75
 205 -36 205 -36 168 -61 c 0,76,77
 160 -65 160 -65 156 -65 c 0,78,79
 150 -64 150 -64 151 -45 c 0,80,81
 155 55 155 55 158 161 c 2,82,-1
 158 561 l 2,83,84
 157 593 157 593 151 639 c 0,85,86
 149 649 149 649 152 650 c 0,87,88
 153 650 153 650 192 619 c 1,89,-1
 482 619 l 1,90,-1
 482 760 l 1,0,-1
402 488 m 0,92,93
 435 459 435 459 447 444 c 0,94,95
 457 435 457 435 456 429 c 0,96,97
 454 423 454 423 445 427 c 0,98,99
 424 431 424 431 394 386 c 1,100,101
 340 328 340 328 246 252 c 0,102,103
 235 244 235 244 229 251 c 0,104,105
 223 259 223 259 233 268 c 0,106,107
 292 324 292 324 344 409 c 0,108,109
 376 454 376 454 382 484 c 0,110,91
 387 501 387 501 402 488 c 0,92,93
591 480 m 0,112,113
 596 486 596 486 608 479 c 0,114,115
 750 396 750 396 760 321 c 0,116,117
 764 301 764 301 751 271 c 0,118,119
 741 247 741 247 729 247 c 0,120,121
 719 247 719 247 716 266 c 0,122,123
 676 385 676 385 593 467 c 0,124,111
 587 474 587 474 591 480 c 0,112,113
EndSplineSet
EndChar

StartChar: uniE012
Encoding: 57362 57362 118
Width: 1024
Flags: W
LayerCount: 2
Fore
SplineSet
255 78 m 0,1,2
 236 71 236 71 232 84 c 0,3,4
 231 89 231 89 232 92 c 0,5,6
 233 96 233 96 311 150 c 1,7,8
 467 272 467 272 482 524 c 1,9,-1
 208 524 l 1,10,-1
 208 137 l 2,11,12
 207 30 207 30 208 -45 c 0,13,14
 207 -60 207 -60 170 -85 c 0,15,16
 162 -89 162 -89 158 -89 c 0,17,18
 152 -88 152 -88 153 -69 c 0,19,20
 157 31 157 31 160 137 c 2,21,-1
 160 497 l 2,22,23
 159 529 159 529 153 575 c 0,24,25
 151 585 151 585 154 586 c 0,26,27
 155 586 155 586 194 555 c 1,28,-1
 483 555 l 2,29,30
 483 556 483 556 484 556 c 2,31,-1
 484 724 l 1,32,-1
 155 724 l 2,33,34
 113 723 113 723 82 717 c 0,35,36
 73 714 73 714 72 723 c 0,37,38
 67 741 67 741 52 754 c 0,39,40
 44 761 44 761 48 765 c 0,41,42
 52 768 52 768 59 764 c 0,43,44
 97 755 97 755 143 755 c 2,45,-1
 836 755 l 2,46,47
 850 756 850 756 866 774 c 2,48,-1
 892 811 l 2,49,50
 899 820 899 820 908 811 c 0,51,52
 979 748 979 748 978 733 c 0,53,54
 976 725 976 725 963 724 c 2,55,-1
 532 724 l 1,56,-1
 532 556 l 1,57,-1
 531 555 l 1,58,-1
 819 555 l 2,59,60
 828 555 828 555 829 556 c 2,61,-1
 854 589 l 2,62,63
 856 593 856 593 860 593 c 256,64,65
 864 593 864 593 868 589 c 0,66,67
 899 564 899 564 923 539 c 0,68,69
 930 531 930 531 914 525 c 0,70,71
 890 515 890 515 887 511 c 0,72,73
 884 505 884 505 884 498 c 2,74,-1
 884 10 l 2,75,76
 884 -24 884 -24 866 -49 c 256,77,78
 848 -74 848 -74 821 -84 c 0,79,80
 812 -88 812 -88 809 -78 c 0,81,82
 794 -30 794 -30 713 -18 c 0,83,84
 702 -16 702 -16 703 -6 c 0,85,86
 704 3 704 3 717 2 c 0,87,88
 820 -7 820 -7 829 -4 c 0,89,90
 836 0 836 0 836 21 c 2,91,-1
 836 524 l 1,92,-1
 531 524 l 1,93,94
 526 468 526 468 516 414 c 1,95,96
 519 414 519 414 520 413 c 0,97,98
 645 341 645 341 712 274 c 0,99,100
 760 226 760 226 761 198 c 0,101,102
 763 174 763 174 750 159 c 256,103,104
 737 144 737 144 730 144 c 0,105,106
 724 144 724 144 715 163 c 0,107,108
 626 318 626 318 512 393 c 1,109,0
 450 169 450 169 255 78 c 0,1,2
EndSplineSet
EndChar

StartChar: uniE013
Encoding: 57363 57363 119
Width: 1024
Flags: W
LayerCount: 2
Fore
SplineSet
796 20 m 2,0,1
 796 -14 796 -14 778 -39 c 256,2,3
 760 -64 760 -64 733 -74 c 0,4,5
 724 -78 724 -78 721 -68 c 0,6,7
 702 -17 702 -17 621 -8 c 0,8,9
 610 -6 610 -6 611 4 c 0,10,11
 612 13 612 13 625 12 c 0,12,13
 732 2 732 2 741 6 c 0,14,15
 748 10 748 10 748 31 c 2,16,-1
 748 572 l 1,17,-1
 276 572 l 1,18,-1
 276 155 l 2,19,20
 275 48 275 48 276 -27 c 0,21,22
 275 -42 275 -42 238 -67 c 0,23,24
 230 -71 230 -71 226 -71 c 0,25,26
 220 -70 220 -70 221 -51 c 0,27,28
 225 49 225 49 228 155 c 2,29,-1
 228 545 l 2,30,31
 227 577 227 577 221 623 c 0,32,33
 219 633 219 633 222 634 c 0,34,35
 223 634 223 634 262 603 c 1,36,-1
 398 603 l 1,37,38
 448 696 448 696 473 768 c 1,39,-1
 151 768 l 2,40,41
 109 767 109 767 78 761 c 0,42,43
 69 758 69 758 68 767 c 0,44,45
 63 785 63 785 48 798 c 0,46,47
 40 805 40 805 44 809 c 0,48,49
 48 812 48 812 55 808 c 0,50,51
 93 799 93 799 139 799 c 2,52,-1
 840 799 l 2,53,54
 854 800 854 800 870 818 c 2,55,-1
 896 855 l 2,56,57
 903 864 903 864 912 855 c 0,58,59
 983 792 983 792 982 777 c 0,60,61
 980 769 980 769 967 768 c 2,62,-1
 529 768 l 1,63,64
 491 694 491 694 427 603 c 1,65,-1
 721 603 l 2,66,67
 733 603 733 603 740 610 c 2,68,-1
 765 636 l 2,69,70
 770 643 770 643 779 637 c 0,71,72
 810 614 810 614 832 595 c 0,73,74
 839 587 839 587 830 586 c 0,75,76
 813 583 813 583 804 574 c 0,77,78
 796 565 796 565 796 555 c 2,79,-1
 796 20 l 2,0,1
EndSplineSet
EndChar

StartChar: uniE014
Encoding: 57364 57364 120
Width: 1024
Flags: W
LayerCount: 2
Fore
SplineSet
796 20 m 2,0,1
 796 -14 796 -14 778 -39 c 256,2,3
 760 -64 760 -64 733 -74 c 0,4,5
 724 -78 724 -78 721 -68 c 0,6,7
 702 -17 702 -17 621 -8 c 0,8,9
 610 -6 610 -6 611 4 c 0,10,11
 612 13 612 13 625 12 c 0,12,13
 732 2 732 2 741 6 c 0,14,15
 748 10 748 10 748 31 c 2,16,-1
 748 572 l 1,17,-1
 276 572 l 1,18,-1
 276 155 l 2,19,20
 275 48 275 48 276 -27 c 0,21,22
 275 -42 275 -42 238 -67 c 0,23,24
 230 -71 230 -71 226 -71 c 0,25,26
 220 -70 220 -70 221 -51 c 0,27,28
 225 49 225 49 228 155 c 2,29,-1
 228 545 l 2,30,31
 227 577 227 577 221 623 c 0,32,33
 219 633 219 633 222 634 c 0,34,35
 223 634 223 634 262 603 c 1,36,-1
 398 603 l 1,37,38
 448 696 448 696 473 768 c 1,39,-1
 151 768 l 2,40,41
 109 767 109 767 78 761 c 0,42,43
 69 758 69 758 68 767 c 0,44,45
 63 785 63 785 48 798 c 0,46,47
 40 805 40 805 44 809 c 0,48,49
 48 812 48 812 55 808 c 0,50,51
 93 799 93 799 139 799 c 2,52,-1
 840 799 l 2,53,54
 854 800 854 800 870 818 c 2,55,-1
 896 855 l 2,56,57
 903 864 903 864 912 855 c 0,58,59
 983 792 983 792 982 777 c 0,60,61
 980 769 980 769 967 768 c 2,62,-1
 529 768 l 1,63,64
 491 694 491 694 427 603 c 1,65,-1
 721 603 l 2,66,67
 733 603 733 603 740 610 c 2,68,-1
 765 636 l 2,69,70
 770 643 770 643 779 637 c 0,71,72
 810 614 810 614 832 595 c 0,73,74
 839 587 839 587 830 586 c 0,75,76
 813 583 813 583 804 574 c 0,77,78
 796 565 796 565 796 555 c 2,79,-1
 796 20 l 2,0,1
409 398 m 0,80,81
 417 405 417 405 429 394 c 0,82,83
 570 304 570 304 574 243 c 0,84,85
 576 219 576 219 557 185 c 0,86,87
 540 158 540 158 528 159 c 0,88,89
 515 160 515 160 514 183 c 0,90,91
 493 291 493 291 409 382 c 0,92,93
 405 390 405 390 409 398 c 0,80,81
EndSplineSet
EndChar

StartChar: uniE015
Encoding: 57365 57365 121
Width: 1024
Flags: W
LayerCount: 2
Fore
SplineSet
836 20 m 2,0,1
 836 -14 836 -14 818 -39 c 256,2,3
 800 -64 800 -64 773 -74 c 0,4,5
 764 -78 764 -78 761 -68 c 0,6,7
 742 -17 742 -17 661 -8 c 0,8,9
 650 -6 650 -6 651 4 c 0,10,11
 652 13 652 13 665 12 c 0,12,13
 772 2 772 2 781 6 c 0,14,15
 788 10 788 10 788 31 c 2,16,-1
 788 572 l 1,17,-1
 236 572 l 1,18,-1
 236 155 l 2,19,20
 235 48 235 48 236 -27 c 0,21,22
 235 -42 235 -42 198 -67 c 0,23,24
 190 -71 190 -71 186 -71 c 0,25,26
 180 -70 180 -70 181 -51 c 0,27,28
 185 49 185 49 188 155 c 2,29,-1
 188 545 l 2,30,31
 187 577 187 577 181 623 c 0,32,33
 179 633 179 633 182 634 c 0,34,35
 183 634 183 634 222 603 c 1,36,-1
 398 603 l 1,37,38
 448 696 448 696 473 768 c 1,39,-1
 151 768 l 2,40,41
 109 767 109 767 78 761 c 0,42,43
 69 758 69 758 68 767 c 0,44,45
 63 785 63 785 48 798 c 0,46,47
 40 805 40 805 44 809 c 0,48,49
 48 812 48 812 55 808 c 0,50,51
 93 799 93 799 139 799 c 2,52,-1
 840 799 l 2,53,54
 854 800 854 800 870 818 c 2,55,-1
 896 855 l 2,56,57
 903 864 903 864 912 855 c 0,58,59
 983 792 983 792 982 777 c 0,60,61
 980 769 980 769 967 768 c 2,62,-1
 529 768 l 1,63,64
 491 694 491 694 427 603 c 1,65,-1
 761 603 l 2,66,67
 773 603 773 603 780 610 c 2,68,-1
 805 636 l 2,69,70
 810 643 810 643 819 637 c 0,71,72
 850 614 850 614 872 595 c 0,73,74
 879 587 879 587 870 586 c 0,75,76
 853 583 853 583 844 574 c 0,77,78
 836 565 836 565 836 555 c 2,79,-1
 836 20 l 2,0,1
474 348 m 1,80,-1
 375 348 l 2,81,82
 333 347 333 347 302 341 c 0,83,84
 293 338 293 338 292 347 c 0,85,86
 287 365 287 365 272 378 c 0,87,88
 264 385 264 385 268 389 c 0,89,90
 272 392 272 392 279 388 c 0,91,92
 317 379 317 379 363 379 c 2,93,-1
 616 379 l 2,94,95
 630 380 630 380 646 398 c 2,96,-1
 672 435 l 2,97,98
 679 444 679 444 688 435 c 0,99,100
 759 372 759 372 758 357 c 0,101,102
 756 349 756 349 743 348 c 2,103,-1
 522 348 l 1,104,-1
 522 148 l 2,105,106
 522 30 522 30 526 -49 c 0,107,108
 525 -58 525 -58 480 -88 c 0,109,110
 466 -97 466 -97 467 -76 c 0,111,112
 474 57 474 57 474 148 c 2,113,-1
 474 348 l 1,80,-1
EndSplineSet
EndChar

StartChar: uniE016
Encoding: 57366 57366 122
Width: 1024
Flags: W
LayerCount: 2
Fore
SplineSet
151 768 m 2,0,1
 109 767 109 767 78 761 c 0,2,3
 69 758 69 758 68 767 c 0,4,5
 63 785 63 785 48 798 c 0,6,7
 40 805 40 805 44 809 c 0,8,9
 48 812 48 812 55 808 c 0,10,11
 93 799 93 799 139 799 c 2,12,-1
 840 799 l 2,13,14
 854 800 854 800 870 818 c 2,15,-1
 896 855 l 2,16,17
 903 864 903 864 912 855 c 0,18,19
 983 792 983 792 982 777 c 0,20,21
 980 769 980 769 967 768 c 2,22,-1
 151 768 l 2,0,1
761 523 m 2,23,24
 773 523 773 523 780 530 c 2,25,-1
 805 556 l 2,26,27
 810 563 810 563 819 557 c 0,28,29
 850 534 850 534 872 515 c 0,30,31
 879 507 879 507 870 506 c 0,32,33
 853 503 853 503 844 494 c 0,34,35
 836 485 836 485 836 475 c 2,36,-1
 836 20 l 2,37,38
 836 -14 836 -14 818 -39 c 256,39,40
 800 -64 800 -64 773 -74 c 0,41,42
 764 -78 764 -78 761 -68 c 0,43,44
 742 -17 742 -17 661 -8 c 0,45,46
 650 -6 650 -6 651 4 c 0,47,48
 652 13 652 13 665 12 c 0,49,50
 772 2 772 2 781 6 c 0,51,52
 788 10 788 10 788 31 c 2,53,-1
 788 492 l 1,54,-1
 236 492 l 1,55,-1
 236 155 l 2,56,57
 235 48 235 48 236 -27 c 0,58,59
 235 -42 235 -42 198 -67 c 0,60,61
 190 -71 190 -71 186 -71 c 0,62,63
 180 -70 180 -70 181 -51 c 0,64,65
 185 49 185 49 188 155 c 2,66,-1
 188 465 l 2,67,68
 187 497 187 497 181 543 c 0,69,70
 179 553 179 553 182 554 c 0,71,72
 183 554 183 554 222 523 c 1,73,-1
 761 523 l 2,23,24
409 368 m 0,74,75
 417 375 417 375 429 364 c 0,76,77
 570 274 570 274 574 213 c 0,78,79
 576 189 576 189 557 155 c 0,80,81
 540 128 540 128 528 129 c 0,82,83
 515 130 515 130 514 153 c 0,84,85
 493 261 493 261 409 352 c 0,86,87
 405 360 405 360 409 368 c 0,74,75
275 738 m 0,88,89
 281 742 281 742 291 735 c 0,90,91
 398 660 398 660 398 617 c 0,92,93
 400 597 400 597 382 569 c 0,94,95
 367 547 367 547 357 548 c 0,96,97
 347 550 347 550 346 569 c 0,98,99
 338 647 338 647 275 725 c 0,100,101
 271 732 271 732 275 738 c 0,88,89
725 753 m 0,102,103
 732 754 732 754 783 696 c 0,104,105
 792 686 792 686 789 681 c 256,106,107
 786 676 786 676 779 678 c 0,108,109
 750 690 750 690 713 650 c 0,110,111
 665 602 665 602 574 540 c 0,112,113
 562 529 562 529 554 540 c 0,114,115
 546 552 546 552 560 562 c 0,116,117
 653 644 653 644 718 747 c 0,118,119
 721 752 721 752 725 753 c 0,102,103
EndSplineSet
EndChar

StartChar: uniE017
Encoding: 57367 57367 123
Width: 1024
Flags: W
LayerCount: 2
Fore
SplineSet
650 215 m 2,0,1
 650 97 650 97 654 18 c 0,2,3
 653 9 653 9 608 -21 c 0,4,5
 594 -30 594 -30 595 -9 c 0,6,7
 602 124 602 124 602 215 c 2,8,-1
 602 536 l 1,9,-1
 422 536 l 1,10,-1
 422 199 l 2,11,12
 422 81 422 81 426 2 c 0,13,14
 425 -7 425 -7 380 -37 c 0,15,16
 366 -46 366 -46 367 -25 c 0,17,18
 374 108 374 108 374 199 c 2,19,-1
 374 536 l 1,20,-1
 210 536 l 1,21,-1
 210 145 l 2,22,23
 209 38 209 38 210 -37 c 0,24,25
 209 -52 209 -52 172 -77 c 0,26,27
 164 -81 164 -81 160 -81 c 0,28,29
 154 -80 154 -80 155 -61 c 0,30,31
 159 39 159 39 162 145 c 2,32,-1
 162 509 l 2,33,34
 161 541 161 541 155 587 c 0,35,36
 153 597 153 597 156 598 c 0,37,38
 157 598 157 598 196 567 c 1,39,-1
 420 567 l 1,40,41
 456 634 456 634 486 736 c 1,42,-1
 153 736 l 2,43,44
 111 735 111 735 80 729 c 0,45,46
 71 726 71 726 70 735 c 0,47,48
 65 753 65 753 50 766 c 0,49,50
 42 773 42 773 46 777 c 0,51,52
 50 780 50 780 57 776 c 0,53,54
 95 767 95 767 141 767 c 2,55,-1
 838 767 l 2,56,57
 852 768 852 768 868 786 c 2,58,-1
 894 823 l 2,59,60
 901 832 901 832 910 823 c 0,61,62
 981 760 981 760 980 745 c 0,63,64
 978 737 978 737 965 736 c 2,65,-1
 541 736 l 1,66,67
 506 657 506 657 446 567 c 1,68,-1
 817 567 l 2,69,70
 826 567 826 567 827 568 c 2,71,-1
 852 601 l 2,72,73
 854 605 854 605 858 605 c 256,74,75
 862 605 862 605 866 601 c 0,76,77
 897 576 897 576 921 551 c 0,78,79
 928 543 928 543 912 537 c 0,80,81
 888 527 888 527 885 523 c 0,82,83
 882 517 882 517 882 510 c 2,84,-1
 882 10 l 2,85,86
 882 -24 882 -24 864 -49 c 256,87,88
 846 -74 846 -74 819 -84 c 0,89,90
 810 -88 810 -88 807 -78 c 0,91,92
 788 -27 788 -27 707 -18 c 0,93,94
 696 -16 696 -16 697 -6 c 0,95,96
 698 3 698 3 711 2 c 0,97,98
 818 -8 818 -8 827 -4 c 0,99,100
 834 0 834 0 834 21 c 2,101,-1
 834 536 l 1,102,-1
 650 536 l 1,103,-1
 650 215 l 2,0,1
EndSplineSet
EndChar

StartChar: uniE018
Encoding: 57368 57368 124
Width: 1024
Flags: W
LayerCount: 2
Fore
SplineSet
374 532 m 1,0,-1
 196 532 l 1,1,-1
 196 137 l 2,2,3
 195 90 195 90 195 47 c 1,4,-1
 374 47 l 1,5,-1
 374 532 l 1,0,-1
650 563 m 1,6,-1
 801 563 l 2,7,8
 813 563 813 563 820 570 c 2,9,-1
 845 596 l 2,10,11
 850 603 850 603 859 597 c 0,12,13
 890 574 890 574 912 555 c 0,14,15
 919 547 919 547 910 546 c 0,16,17
 893 543 893 543 884 534 c 0,18,19
 876 525 876 525 876 515 c 2,20,-1
 876 127 l 2,21,22
 877 59 877 59 884 -40 c 0,23,24
 884 -53 884 -53 874 -59 c 0,25,26
 829 -85 829 -85 825 -84 c 0,27,28
 821 -82 821 -82 822 -66 c 0,29,30
 825 -32 825 -32 826 16 c 1,31,-1
 195 16 l 1,32,33
 195 -17 195 -17 196 -45 c 0,34,35
 195 -60 195 -60 158 -85 c 0,36,37
 150 -89 150 -89 146 -89 c 0,38,39
 140 -88 140 -88 141 -69 c 0,40,41
 145 31 145 31 148 137 c 2,42,-1
 148 505 l 2,43,44
 147 537 147 537 141 583 c 0,45,46
 139 593 139 593 142 594 c 0,47,48
 143 594 143 594 182 563 c 1,49,-1
 398 563 l 1,50,51
 448 696 448 696 473 768 c 1,52,-1
 151 768 l 2,53,54
 109 767 109 767 78 761 c 0,55,56
 69 758 69 758 68 767 c 0,57,58
 63 785 63 785 48 798 c 0,59,60
 40 805 40 805 44 809 c 0,61,62
 48 812 48 812 55 808 c 0,63,64
 93 799 93 799 139 799 c 2,65,-1
 840 799 l 2,66,67
 854 800 854 800 870 818 c 2,68,-1
 896 855 l 2,69,70
 903 864 903 864 912 855 c 0,71,72
 983 792 983 792 982 777 c 0,73,74
 980 769 980 769 967 768 c 2,75,-1
 529 768 l 1,76,77
 491 694 491 694 427 563 c 1,78,-1
 602 563 l 1,79,80
 601 641 601 641 597 688 c 0,81,82
 595 705 595 705 607 701 c 0,83,84
 661 684 661 684 679 674 c 0,85,86
 693 667 693 667 677 658 c 0,87,88
 661 650 661 650 657 640 c 0,89,90
 650 621 650 621 650 563 c 1,6,-1
602 532 m 1,91,-1
 422 532 l 1,92,-1
 422 47 l 1,93,-1
 602 47 l 1,94,-1
 602 532 l 1,91,-1
650 47 m 1,95,-1
 827 47 l 1,96,97
 827 71 827 71 828 98 c 2,98,-1
 828 532 l 1,99,-1
 650 532 l 1,100,-1
 650 47 l 1,95,-1
EndSplineSet
EndChar

StartChar: uniE019
Encoding: 57369 57369 125
Width: 1024
Flags: W
LayerCount: 2
Fore
SplineSet
476 374 m 1,0,-1
 476 14 l 2,1,2
 477 -5 477 -5 481 -9 c 0,3,4
 486 -15 486 -15 504 -15 c 2,5,-1
 815 -15 l 2,6,7
 857 -13 857 -13 870 -3 c 0,8,9
 903 18 903 18 924 159 c 0,10,11
 927 171 927 171 937 170 c 256,12,13
 947 169 947 169 946 156 c 0,14,15
 933 77 933 77 952 38 c 0,16,17
 966 12 966 12 954 -3 c 0,18,19
 916 -57 916 -57 868 -57 c 2,20,-1
 489 -57 l 2,21,22
 446 -56 446 -56 437 -44 c 0,23,24
 428 -31 428 -31 428 2 c 2,25,-1
 428 374 l 1,26,-1
 173 374 l 2,27,28
 131 373 131 373 100 367 c 0,29,30
 91 364 91 364 90 373 c 0,31,32
 85 391 85 391 70 404 c 0,33,34
 62 411 62 411 66 415 c 0,35,36
 70 418 70 418 77 414 c 0,37,38
 115 405 115 405 161 405 c 2,39,-1
 428 405 l 1,40,-1
 428 681 l 1,41,42
 281 651 281 651 133 632 c 0,43,44
 114 631 114 631 113 641 c 0,45,46
 113 654 113 654 132 657 c 0,47,48
 431 700 431 700 791 836 c 0,49,50
 802 841 802 841 806 834 c 0,51,52
 839 794 839 794 860 773 c 0,53,54
 865 767 865 767 864 764 c 0,55,56
 858 758 858 758 843 762 c 0,57,58
 788 770 788 770 476 692 c 1,59,-1
 476 405 l 1,60,-1
 810 405 l 2,61,62
 824 406 824 406 840 424 c 2,63,-1
 866 461 l 2,64,65
 873 470 873 470 882 461 c 0,66,67
 953 398 953 398 952 383 c 0,68,69
 950 375 950 375 937 374 c 2,70,-1
 476 374 l 1,0,-1
EndSplineSet
EndChar

StartChar: uniE01A
Encoding: 57370 57370 126
Width: 1024
Flags: W
LayerCount: 2
Fore
SplineSet
470 374 m 1,0,-1
 470 14 l 2,1,2
 471 -5 471 -5 475 -9 c 0,3,4
 480 -15 480 -15 498 -15 c 2,5,-1
 809 -15 l 2,6,7
 851 -13 851 -13 864 -3 c 0,8,9
 897 18 897 18 918 159 c 0,10,11
 921 171 921 171 931 170 c 256,12,13
 941 169 941 169 940 156 c 0,14,15
 927 77 927 77 946 38 c 0,16,17
 960 12 960 12 948 -3 c 0,18,19
 910 -57 910 -57 862 -57 c 2,20,-1
 483 -57 l 2,21,22
 440 -56 440 -56 431 -44 c 0,23,24
 422 -31 422 -31 422 2 c 2,25,-1
 422 374 l 1,26,-1
 167 374 l 2,27,28
 125 373 125 373 94 367 c 0,29,30
 85 364 85 364 84 373 c 0,31,32
 79 391 79 391 64 404 c 0,33,34
 56 411 56 411 60 415 c 0,35,36
 64 418 64 418 71 414 c 0,37,38
 109 405 109 405 155 405 c 2,39,-1
 422 405 l 1,40,-1
 422 681 l 1,41,42
 275 651 275 651 127 632 c 0,43,44
 108 631 108 631 107 641 c 0,45,46
 107 654 107 654 126 657 c 0,47,48
 425 700 425 700 785 836 c 0,49,50
 796 841 796 841 800 834 c 0,51,52
 833 794 833 794 854 773 c 0,53,54
 859 767 859 767 858 764 c 0,55,56
 852 758 852 758 837 762 c 0,57,58
 782 770 782 770 470 692 c 1,59,-1
 470 405 l 1,60,-1
 804 405 l 2,61,62
 818 406 818 406 834 424 c 2,63,-1
 860 461 l 2,64,65
 867 470 867 470 876 461 c 0,66,67
 947 398 947 398 946 383 c 0,68,69
 944 375 944 375 931 374 c 2,70,-1
 470 374 l 1,0,-1
798 665 m 0,71,72
 801 673 801 673 815 668 c 0,73,74
 943 636 943 636 960 593 c 0,75,76
 968 575 968 575 962 544 c 0,77,78
 957 517 957 517 946 514 c 0,79,80
 936 512 936 512 929 530 c 0,81,82
 889 602 889 602 802 653 c 0,83,84
 795 658 795 658 798 665 c 0,71,72
EndSplineSet
EndChar

StartChar: uniE01B
Encoding: 57371 57371 127
Width: 1024
Flags: W
LayerCount: 2
Fore
SplineSet
446 694 m 1,0,1
 451 649 451 649 463 586 c 2,2,-1
 470 551 l 2,3,4
 506 372 506 372 566 249 c 1,5,6
 713 397 713 397 762 481 c 0,7,8
 766 490 766 490 770 491 c 0,9,10
 774 491 774 491 778 487 c 0,11,12
 802 463 802 463 833 429 c 0,13,14
 840 421 840 421 837 417 c 0,15,16
 833 412 833 412 821 418 c 256,17,18
 809 424 809 424 793 418 c 0,19,20
 780 414 780 414 743 369 c 0,21,22
 660 271 660 271 590 204 c 1,23,24
 677 57 677 57 824 -16 c 0,25,26
 848 -25 848 -25 855 -22 c 0,27,28
 864 -19 864 -19 870 3 c 0,29,30
 885 58 885 58 901 139 c 0,31,32
 903 150 903 150 912 149 c 0,33,34
 921 146 921 146 920 136 c 0,35,36
 906 -27 906 -27 943 -64 c 0,37,38
 954 -75 954 -75 947 -87 c 0,39,40
 938 -97 938 -97 892 -87 c 0,41,42
 677 -24 677 -24 557 174 c 1,43,44
 517 142 517 142 483 118 c 0,45,46
 352 33 352 33 198 -7 c 0,47,48
 173 -15 173 -15 170 -2 c 0,49,50
 166 14 166 14 181 18 c 0,51,52
 275 44 275 44 378 102 c 0,53,54
 451 146 451 146 533 218 c 1,55,56
 463 353 463 353 427 548 c 1,57,-1
 422 583 l 2,58,59
 413 635 413 635 409 685 c 1,60,-1
 389 681 l 2,61,62
 242 651 242 651 94 632 c 0,63,64
 75 631 75 631 74 641 c 0,65,66
 74 654 74 654 93 657 c 0,67,68
 242 678 242 678 405 723 c 2,69,-1
 443 733 l 2,70,71
 591 775 591 775 752 836 c 0,72,73
 763 841 763 841 767 834 c 0,74,75
 800 794 800 794 821 773 c 0,76,77
 826 767 826 767 825 764 c 0,78,79
 819 758 819 758 804 762 c 0,80,81
 750 770 750 770 446 694 c 1,0,1
EndSplineSet
EndChar

StartChar: uniE01C
Encoding: 57372 57372 128
Width: 1024
Flags: W
LayerCount: 2
Fore
SplineSet
446 734 m 2,0,1
 592 776 592 776 712 836 c 0,2,3
 723 841 723 841 727 834 c 0,4,5
 760 794 760 794 781 773 c 0,6,7
 786 767 786 767 785 764 c 0,8,9
 779 758 779 758 764 762 c 0,10,11
 710 770 710 770 449 695 c 1,12,13
 454 649 454 649 466 586 c 2,14,-1
 473 551 l 2,15,16
 477 529 477 529 482 507 c 1,17,-1
 819 531 l 2,18,19
 832 532 832 532 836 538 c 2,20,-1
 869 586 l 2,21,22
 879 602 879 602 889 589 c 0,23,24
 919 561 919 561 947 530 c 0,25,26
 954 522 954 522 951 515 c 0,27,28
 949 507 949 507 930 506 c 2,29,-1
 491 472 l 1,30,31
 523 344 523 344 571 246 c 1,32,33
 692 335 692 335 745 414 c 0,34,35
 749 423 749 423 753 424 c 0,36,37
 757 424 757 424 761 420 c 0,38,39
 785 396 785 396 816 362 c 0,40,41
 823 354 823 354 820 350 c 0,42,43
 816 345 816 345 804 351 c 256,44,45
 792 357 792 357 776 351 c 0,46,47
 763 347 763 347 722 311 c 0,48,49
 663 261 663 261 593 204 c 1,50,51
 680 57 680 57 827 -16 c 0,52,53
 851 -25 851 -25 858 -22 c 0,54,55
 867 -19 867 -19 873 3 c 0,56,57
 888 58 888 58 904 139 c 0,58,59
 906 150 906 150 915 149 c 0,60,61
 924 146 924 146 923 136 c 0,62,63
 909 -27 909 -27 946 -64 c 0,64,65
 957 -75 957 -75 950 -87 c 0,66,67
 941 -97 941 -97 895 -87 c 0,68,69
 680 -24 680 -24 560 174 c 1,70,71
 520 142 520 142 486 118 c 0,72,73
 355 33 355 33 145 -42 c 0,74,75
 120 -50 120 -50 117 -37 c 0,76,77
 113 -21 113 -21 128 -17 c 0,78,79
 278 44 278 44 381 102 c 0,80,81
 454 146 454 146 536 218 c 1,82,83
 481 325 481 325 447 468 c 1,84,-1
 205 452 l 2,85,86
 146 449 146 449 109 433 c 0,87,88
 102 428 102 428 98 441 c 0,89,90
 91 456 91 456 78 466 c 0,91,92
 70 474 70 474 71 478 c 0,93,94
 74 481 74 481 81 480 c 0,95,96
 119 477 119 477 183 486 c 1,97,-1
 439 503 l 1,98,99
 434 525 434 525 430 548 c 2,100,-1
 425 583 l 2,101,102
 416 635 416 635 411 686 c 1,103,-1
 409 685 l 1,104,-1
 389 681 l 1,105,106
 262 651 262 651 174 632 c 0,107,108
 155 631 155 631 154 641 c 0,109,110
 154 654 154 654 173 657 c 0,111,112
 262 678 262 678 405 723 c 2,113,-1
 408 724 l 1,114,-1
 446 734 l 2,0,1
EndSplineSet
EndChar

StartChar: uniE01D
Encoding: 57373 57373 129
Width: 1024
Flags: W
LayerCount: 2
Fore
SplineSet
435 734 m 2,0,1
 581 776 581 776 701 836 c 0,2,3
 712 841 712 841 716 834 c 0,4,5
 749 794 749 794 770 773 c 0,6,7
 775 767 775 767 774 764 c 0,8,9
 768 758 768 758 753 762 c 0,10,11
 699 770 699 770 438 695 c 1,12,13
 443 649 443 649 455 586 c 2,14,-1
 462 551 l 2,15,16
 466 529 466 529 471 507 c 1,17,-1
 808 531 l 2,18,19
 821 532 821 532 825 538 c 2,20,-1
 858 586 l 2,21,22
 868 602 868 602 878 589 c 0,23,24
 908 561 908 561 936 530 c 0,25,26
 943 522 943 522 940 515 c 0,27,28
 938 507 938 507 919 506 c 2,29,-1
 480 472 l 1,30,31
 512 344 512 344 560 246 c 1,32,33
 681 335 681 335 734 414 c 0,34,35
 738 423 738 423 742 424 c 0,36,37
 746 424 746 424 750 420 c 0,38,39
 774 396 774 396 805 362 c 0,40,41
 812 354 812 354 809 350 c 0,42,43
 805 345 805 345 793 351 c 256,44,45
 781 357 781 357 765 351 c 0,46,47
 752 347 752 347 711 311 c 0,48,49
 652 261 652 261 582 204 c 1,50,51
 669 57 669 57 816 -16 c 0,52,53
 840 -25 840 -25 847 -22 c 0,54,55
 856 -19 856 -19 862 3 c 0,56,57
 877 58 877 58 893 139 c 0,58,59
 895 150 895 150 904 149 c 0,60,61
 913 146 913 146 912 136 c 0,62,63
 898 -27 898 -27 935 -64 c 0,64,65
 946 -75 946 -75 939 -87 c 0,66,67
 930 -97 930 -97 884 -87 c 0,68,69
 669 -24 669 -24 549 174 c 1,70,71
 509 142 509 142 475 118 c 0,72,73
 344 33 344 33 134 -42 c 0,74,75
 109 -50 109 -50 106 -37 c 0,76,77
 102 -21 102 -21 117 -17 c 0,78,79
 267 44 267 44 370 102 c 0,80,81
 443 146 443 146 525 218 c 1,82,83
 470 325 470 325 436 468 c 1,84,-1
 194 452 l 2,85,86
 135 449 135 449 98 433 c 0,87,88
 91 428 91 428 87 441 c 0,89,90
 80 456 80 456 67 466 c 0,91,92
 59 474 59 474 60 478 c 0,93,94
 63 481 63 481 70 480 c 0,95,96
 108 477 108 477 172 486 c 1,97,-1
 428 503 l 1,98,99
 423 525 423 525 419 548 c 2,100,-1
 414 583 l 2,101,102
 405 635 405 635 400 686 c 1,103,-1
 398 685 l 1,104,-1
 378 681 l 1,105,106
 251 651 251 651 163 632 c 0,107,108
 144 631 144 631 143 641 c 0,109,110
 143 654 143 654 162 657 c 0,111,112
 251 678 251 678 394 723 c 2,113,-1
 397 724 l 1,114,-1
 435 734 l 2,0,1
797 725 m 0,115,116
 800 733 800 733 814 728 c 0,117,118
 942 696 942 696 959 653 c 0,119,120
 967 635 967 635 961 604 c 0,121,122
 956 577 956 577 945 574 c 0,123,124
 935 572 935 572 928 590 c 0,125,126
 888 662 888 662 801 713 c 0,127,128
 794 718 794 718 797 725 c 0,115,116
EndSplineSet
EndChar

StartChar: uniE01E
Encoding: 57374 57374 130
Width: 1024
Flags: W
LayerCount: 2
Fore
SplineSet
486 292 m 0,0,1
 494 299 494 299 506 288 c 0,2,3
 647 198 647 198 651 137 c 0,4,5
 653 113 653 113 634 79 c 0,6,7
 617 52 617 52 605 53 c 0,8,9
 592 54 592 54 591 77 c 0,10,11
 570 185 570 185 486 276 c 0,12,13
 482 284 482 284 486 292 c 0,0,1
455 379 m 1,14,-1
 776 379 l 2,15,16
 787 380 787 380 791 384 c 2,17,-1
 814 416 l 2,18,19
 820 426 820 426 829 416 c 0,20,21
 866 384 866 384 888 362 c 0,22,23
 894 355 894 355 885 351 c 0,24,25
 869 346 869 346 862 340 c 1,26,27
 849 337 849 337 840 244 c 0,28,29
 835 184 835 184 831 136 c 0,30,31
 814 6 814 6 787 -24 c 0,32,33
 755 -60 755 -60 712 -78 c 0,34,35
 704 -82 704 -82 703 -76 c 0,36,37
 693 -31 693 -31 600 -19 c 0,38,39
 585 -17 585 -17 586 -7 c 0,40,41
 588 3 588 3 600 0 c 0,42,43
 729 -11 729 -11 745 7 c 0,44,45
 761 21 761 21 770 49 c 0,46,47
 783 97 783 97 790 227 c 1,48,49
 799 301 799 301 806 348 c 1,50,-1
 449 348 l 1,51,52
 446 338 446 338 444 328 c 0,53,54
 409 187 409 187 328 90 c 0,55,56
 257 3 257 3 136 -66 c 0,57,58
 118 -77 118 -77 111 -64 c 0,59,60
 107 -51 107 -51 123 -41 c 0,61,62
 229 27 229 27 308 126 c 1,63,64
 396 250 396 250 427 468 c 2,65,-1
 431 499 l 2,66,67
 432 507 432 507 433 516 c 1,68,-1
 157 516 l 2,69,70
 115 515 115 515 84 509 c 0,71,72
 75 506 75 506 74 515 c 0,73,74
 69 533 69 533 54 546 c 0,75,76
 46 553 46 553 50 557 c 0,77,78
 54 560 54 560 61 556 c 0,79,80
 99 547 99 547 145 547 c 2,81,-1
 436 547 l 1,82,83
 443 621 443 621 443 728 c 1,84,-1
 215 728 l 2,85,86
 173 727 173 727 142 721 c 0,87,88
 133 718 133 718 132 727 c 0,89,90
 127 745 127 745 112 758 c 0,91,92
 104 765 104 765 108 769 c 0,93,94
 112 772 112 772 119 768 c 0,95,96
 157 759 157 759 203 759 c 2,97,-1
 746 759 l 2,98,99
 760 760 760 760 776 778 c 2,100,-1
 802 815 l 2,101,102
 809 824 809 824 818 815 c 0,103,104
 889 752 889 752 888 737 c 0,105,106
 886 729 886 729 873 728 c 2,107,-1
 493 728 l 1,108,109
 489 620 489 620 481 547 c 1,110,-1
 834 547 l 2,111,112
 848 548 848 548 864 566 c 2,113,-1
 890 603 l 2,114,115
 897 612 897 612 906 603 c 0,116,117
 977 540 977 540 976 525 c 0,118,119
 974 517 974 517 961 516 c 2,120,-1
 477 516 l 1,121,122
 476 507 476 507 475 499 c 2,123,-1
 470 468 l 2,124,125
 463 421 463 421 455 379 c 1,14,-1
EndSplineSet
EndChar

StartChar: uniE01F
Encoding: 57375 57375 131
Width: 1024
Flags: W
LayerCount: 2
Fore
SplineSet
636 272 m 0,1,2
 755 20 755 20 971 -20 c 0,3,4
 977 -22 977 -22 976 -31 c 0,5,6
 974 -40 974 -40 962 -39 c 0,7,8
 945 -38 945 -38 926 -48 c 0,9,10
 904 -60 904 -60 894 -76 c 0,11,12
 890 -81 890 -81 881 -74 c 0,13,14
 840 -49 840 -49 809 -27 c 0,15,16
 651 92 651 92 572 344 c 0,17,18
 538 444 538 444 538 456 c 1,19,-1
 497 456 l 1,20,21
 454 234 454 234 364 113 c 1,22,23
 267 0 267 0 72 -84 c 0,24,25
 52 -93 52 -93 48 -80 c 0,26,27
 44 -65 44 -65 65 -58 c 0,28,29
 187 -8 187 -8 269 68 c 0,30,31
 408 200 408 200 450 456 c 1,32,-1
 166 456 l 2,33,34
 124 455 124 455 93 449 c 0,35,36
 84 446 84 446 83 455 c 0,37,38
 78 473 78 473 63 486 c 0,39,40
 55 493 55 493 59 497 c 0,41,42
 63 500 63 500 70 496 c 0,43,44
 108 487 108 487 154 487 c 2,45,-1
 455 487 l 1,46,47
 471 601 471 601 475 740 c 1,48,-1
 238 740 l 2,49,50
 196 739 196 739 165 733 c 0,51,52
 156 730 156 730 155 739 c 0,53,54
 150 757 150 757 135 770 c 0,55,56
 127 777 127 777 131 781 c 0,57,58
 135 784 135 784 142 780 c 0,59,60
 180 771 180 771 226 771 c 2,61,-1
 747 771 l 2,62,63
 761 772 761 772 777 790 c 2,64,-1
 803 827 l 2,65,66
 810 836 810 836 819 827 c 0,67,68
 890 764 890 764 889 749 c 0,69,70
 887 741 887 741 874 740 c 2,71,-1
 529 740 l 1,72,73
 521 602 521 602 503 487 c 1,74,-1
 823 487 l 2,75,76
 837 488 837 488 853 506 c 2,77,-1
 879 543 l 2,78,79
 886 552 886 552 895 543 c 0,80,81
 966 480 966 480 965 465 c 0,82,83
 963 457 963 457 950 456 c 2,84,-1
 563 456 l 1,85,0
 591 366 591 366 636 272 c 0,1,2
EndSplineSet
EndChar

StartChar: uniE020
Encoding: 57376 57376 132
Width: 1024
Flags: W
LayerCount: 2
Fore
SplineSet
625 518 m 0,1,2
 781 326 781 326 977 311 c 0,3,4
 983 310 983 310 983 303 c 0,5,6
 982 295 982 295 970 295 c 0,7,8
 927 298 927 298 903 253 c 0,9,10
 900 247 900 247 887 254 c 0,11,12
 662 381 662 381 569 564 c 1,13,-1
 439 564 l 1,14,15
 394 471 394 471 328 396 c 0,16,17
 255 315 255 315 75 200 c 0,18,19
 55 187 55 187 48 202 c 0,20,21
 42 215 42 215 55 224 c 0,22,23
 197 314 197 314 263 384 c 0,24,25
 339 465 339 465 388 564 c 1,26,-1
 150 564 l 2,27,28
 108 563 108 563 77 557 c 0,29,30
 68 554 68 554 67 563 c 0,31,32
 62 581 62 581 47 594 c 0,33,34
 39 601 39 601 43 605 c 0,35,36
 47 608 47 608 54 604 c 0,37,38
 92 595 92 595 138 595 c 2,39,-1
 402 595 l 1,40,41
 444 694 444 694 457 776 c 1,42,-1
 242 776 l 2,43,44
 200 775 200 775 169 769 c 0,45,46
 160 766 160 766 159 775 c 0,47,48
 154 793 154 793 139 806 c 0,49,50
 131 813 131 813 135 817 c 0,51,52
 139 820 139 820 146 816 c 0,53,54
 184 807 184 807 230 807 c 2,55,-1
 727 807 l 2,56,57
 741 808 741 808 757 826 c 2,58,-1
 783 863 l 2,59,60
 790 872 790 872 799 863 c 0,61,62
 870 800 870 800 869 785 c 0,63,64
 867 777 867 777 854 776 c 2,65,-1
 513 776 l 1,66,67
 494 697 494 697 454 597 c 0,68,69
 453 596 453 596 453 595 c 2,70,-1
 811 595 l 2,71,72
 825 596 825 596 841 614 c 2,73,-1
 867 651 l 2,74,75
 874 660 874 660 883 651 c 0,76,77
 954 588 954 588 953 573 c 0,78,79
 951 565 951 565 938 564 c 2,80,-1
 592 564 l 1,81,0
 607 540 607 540 625 518 c 0,1,2
523 242 m 2,82,83
 522 242 522 242 522 243 c 2,84,-1
 521 249 l 2,85,86
 520 250 520 250 521 250 c 1,87,88
 517 263 517 263 517 273 c 0,89,90
 515 278 515 278 512 277 c 0,91,92
 508 277 508 277 509 271 c 0,93,94
 511 261 511 261 512 251 c 0,95,96
 498 191 498 191 476 142 c 0,97,98
 442 69 442 69 383 22 c 0,99,100
 313 -36 313 -36 162 -82 c 0,101,102
 150 -85 150 -85 149 -73 c 0,103,104
 149 -62 149 -62 159 -58 c 0,105,106
 365 17 365 17 430 139 c 0,107,108
 493 263 493 263 487 407 c 0,109,110
 486 413 486 413 490 416 c 0,111,112
 493 418 493 418 498 417 c 0,113,114
 534 405 534 405 563 391 c 0,115,116
 569 388 569 388 568 383 c 0,117,118
 567 376 567 376 553 376 c 0,119,120
 542 376 542 376 536 368 c 0,121,122
 531 365 531 365 523 314 c 1,123,124
 548 215 548 215 594 147 c 2,125,-1
 607 129 l 1,126,127
 694 24 694 24 872 -29 c 0,128,129
 876 -30 876 -30 875 -37 c 256,130,131
 874 -44 874 -44 864 -43 c 0,132,133
 830 -40 830 -40 814 -72 c 0,134,135
 811 -77 811 -77 798 -69 c 0,136,137
 655 10 655 10 598 86 c 0,138,139
 550 147 550 147 523 240 c 1,140,-1
 523 242 l 2,82,83
EndSplineSet
EndChar

StartChar: uniE021
Encoding: 57377 57377 133
Width: 1024
Flags: W
LayerCount: 2
Fore
SplineSet
625 518 m 0,1,2
 781 326 781 326 977 311 c 0,3,4
 983 310 983 310 983 303 c 0,5,6
 982 295 982 295 970 295 c 0,7,8
 927 298 927 298 903 253 c 0,9,10
 900 247 900 247 887 254 c 0,11,12
 662 381 662 381 569 564 c 1,13,-1
 439 564 l 1,14,15
 394 471 394 471 328 396 c 0,16,17
 255 315 255 315 75 200 c 0,18,19
 55 187 55 187 48 202 c 0,20,21
 42 215 42 215 55 224 c 0,22,23
 197 314 197 314 263 384 c 0,24,25
 339 465 339 465 388 564 c 1,26,-1
 150 564 l 2,27,28
 108 563 108 563 77 557 c 0,29,30
 68 554 68 554 67 563 c 0,31,32
 62 581 62 581 47 594 c 0,33,34
 39 601 39 601 43 605 c 0,35,36
 47 608 47 608 54 604 c 0,37,38
 92 595 92 595 138 595 c 2,39,-1
 402 595 l 1,40,41
 444 694 444 694 457 776 c 1,42,-1
 242 776 l 2,43,44
 200 775 200 775 169 769 c 0,45,46
 160 766 160 766 159 775 c 0,47,48
 154 793 154 793 139 806 c 0,49,50
 131 813 131 813 135 817 c 0,51,52
 139 820 139 820 146 816 c 0,53,54
 184 807 184 807 230 807 c 2,55,-1
 727 807 l 2,56,57
 741 808 741 808 757 826 c 2,58,-1
 783 863 l 2,59,60
 790 872 790 872 799 863 c 0,61,62
 870 800 870 800 869 785 c 0,63,64
 867 777 867 777 854 776 c 2,65,-1
 513 776 l 1,66,67
 494 697 494 697 454 597 c 0,68,69
 453 596 453 596 453 595 c 2,70,-1
 731 595 l 2,71,72
 745 596 745 596 761 614 c 2,73,-1
 787 651 l 2,74,75
 794 660 794 660 803 651 c 0,76,77
 874 588 874 588 873 573 c 0,78,79
 871 565 871 565 858 564 c 2,80,-1
 592 564 l 1,81,0
 607 540 607 540 625 518 c 0,1,2
523 242 m 2,82,83
 522 242 522 242 522 243 c 2,84,-1
 521 249 l 2,85,86
 520 250 520 250 521 250 c 1,87,88
 517 263 517 263 517 273 c 0,89,90
 515 278 515 278 512 277 c 0,91,92
 508 277 508 277 509 271 c 0,93,94
 511 261 511 261 512 251 c 0,95,96
 498 191 498 191 476 142 c 0,97,98
 442 69 442 69 383 22 c 0,99,100
 313 -36 313 -36 162 -82 c 0,101,102
 150 -85 150 -85 149 -73 c 0,103,104
 149 -62 149 -62 159 -58 c 0,105,106
 365 17 365 17 430 139 c 0,107,108
 493 263 493 263 487 407 c 0,109,110
 486 413 486 413 490 416 c 0,111,112
 493 418 493 418 498 417 c 0,113,114
 534 405 534 405 563 391 c 0,115,116
 569 388 569 388 568 383 c 0,117,118
 567 376 567 376 553 376 c 0,119,120
 542 376 542 376 536 368 c 0,121,122
 531 365 531 365 523 314 c 1,123,124
 548 215 548 215 594 147 c 2,125,-1
 607 129 l 1,126,127
 694 24 694 24 872 -29 c 0,128,129
 876 -30 876 -30 875 -37 c 256,130,131
 874 -44 874 -44 864 -43 c 0,132,133
 830 -40 830 -40 814 -72 c 0,134,135
 811 -77 811 -77 798 -69 c 0,136,137
 655 10 655 10 598 86 c 0,138,139
 550 147 550 147 523 240 c 1,140,-1
 523 242 l 2,82,83
808 725 m 0,141,142
 811 733 811 733 825 728 c 0,143,144
 953 696 953 696 970 653 c 0,145,146
 978 635 978 635 972 604 c 0,147,148
 967 577 967 577 956 574 c 0,149,150
 946 572 946 572 939 590 c 0,151,152
 899 662 899 662 812 713 c 0,153,154
 805 718 805 718 808 725 c 0,141,142
EndSplineSet
EndChar

StartChar: uniE022
Encoding: 57378 57378 134
Width: 1024
Flags: W
LayerCount: 2
Fore
SplineSet
625 518 m 0,1,2
 781 326 781 326 977 311 c 0,3,4
 983 310 983 310 983 303 c 0,5,6
 982 295 982 295 970 295 c 0,7,8
 927 298 927 298 903 253 c 0,9,10
 900 247 900 247 887 254 c 0,11,12
 662 381 662 381 569 564 c 1,13,-1
 439 564 l 1,14,15
 394 471 394 471 328 396 c 0,16,17
 255 315 255 315 75 200 c 0,18,19
 55 187 55 187 48 202 c 0,20,21
 42 215 42 215 55 224 c 0,22,23
 197 314 197 314 263 384 c 0,24,25
 339 465 339 465 388 564 c 1,26,-1
 150 564 l 2,27,28
 108 563 108 563 77 557 c 0,29,30
 68 554 68 554 67 563 c 0,31,32
 62 581 62 581 47 594 c 0,33,34
 39 601 39 601 43 605 c 0,35,36
 47 608 47 608 54 604 c 0,37,38
 92 595 92 595 138 595 c 2,39,-1
 402 595 l 1,40,41
 444 694 444 694 457 776 c 1,42,-1
 242 776 l 2,43,44
 200 775 200 775 169 769 c 0,45,46
 160 766 160 766 159 775 c 0,47,48
 154 793 154 793 139 806 c 0,49,50
 131 813 131 813 135 817 c 0,51,52
 139 820 139 820 146 816 c 0,53,54
 184 807 184 807 230 807 c 2,55,-1
 727 807 l 2,56,57
 741 808 741 808 757 826 c 2,58,-1
 783 863 l 2,59,60
 790 872 790 872 799 863 c 0,61,62
 870 800 870 800 869 785 c 0,63,64
 867 777 867 777 854 776 c 2,65,-1
 513 776 l 1,66,67
 494 697 494 697 454 597 c 0,68,69
 453 596 453 596 453 595 c 2,70,-1
 811 595 l 2,71,72
 825 596 825 596 841 614 c 2,73,-1
 867 651 l 2,74,75
 874 660 874 660 883 651 c 0,76,77
 954 588 954 588 953 573 c 0,78,79
 951 565 951 565 938 564 c 2,80,-1
 592 564 l 1,81,0
 607 540 607 540 625 518 c 0,1,2
858 2 m 2,83,-1
 884 39 l 2,84,85
 891 48 891 48 900 39 c 0,86,87
 971 -24 971 -24 970 -39 c 0,88,89
 968 -47 968 -47 955 -48 c 2,90,-1
 163 -48 l 2,91,92
 121 -49 121 -49 90 -55 c 0,93,94
 81 -58 81 -58 80 -49 c 0,95,96
 75 -31 75 -31 60 -18 c 0,97,98
 52 -11 52 -11 56 -7 c 0,99,100
 60 -4 60 -4 67 -8 c 0,101,102
 105 -17 105 -17 151 -17 c 2,103,-1
 484 -17 l 1,104,-1
 484 286 l 2,105,106
 483 325 483 325 480 356 c 0,107,108
 479 372 479 372 489 369 c 0,109,110
 542 352 542 352 560 343 c 0,111,112
 574 334 574 334 558 327 c 0,113,114
 543 319 543 319 539 309 c 0,115,116
 532 296 532 296 532 286 c 2,117,-1
 532 -17 l 1,118,-1
 828 -17 l 2,119,82
 842 -16 842 -16 858 2 c 2,83,-1
EndSplineSet
EndChar

StartChar: uniE023
Encoding: 57379 57379 135
Width: 1024
Flags: W
LayerCount: 2
Fore
SplineSet
183 440 m 2,0,1
 156 440 156 440 122 433 c 0,2,3
 117 432 117 432 116 435 c 0,4,5
 103 454 103 454 93 470 c 0,6,7
 87 480 87 480 100 477 c 0,8,9
 161 472 161 472 168 471 c 2,10,-1
 241 471 l 1,11,-1
 241 712 l 1,12,-1
 163 712 l 2,13,14
 136 712 136 712 102 705 c 0,15,16
 97 704 97 704 96 707 c 0,17,18
 83 726 83 726 73 742 c 0,19,20
 67 752 67 752 80 749 c 0,21,22
 141 744 141 744 148 743 c 2,23,-1
 349 743 l 2,24,25
 355 743 355 743 361 750 c 2,26,-1
 397 791 l 2,27,28
 404 798 404 798 411 791 c 0,29,30
 437 765 437 765 455 743 c 0,31,32
 466 729 466 729 459 719 c 0,33,34
 454 713 454 713 441 712 c 2,35,-1
 289 712 l 1,36,-1
 289 471 l 1,37,-1
 325 471 l 2,38,39
 331 471 331 471 337 478 c 2,40,-1
 373 519 l 2,41,42
 380 526 380 526 387 519 c 0,43,44
 413 493 413 493 431 471 c 0,45,46
 442 457 442 457 435 447 c 0,47,48
 430 441 430 441 417 440 c 2,49,-1
 289 440 l 1,50,-1
 289 177 l 1,51,52
 384 208 384 208 463 233 c 0,53,54
 477 238 477 238 480 229 c 0,55,56
 483 218 483 218 467 212 c 0,57,58
 298 138 298 138 189 98 c 0,59,60
 169 89 169 89 135 61 c 0,61,62
 130 57 130 57 126 56 c 0,63,64
 122 56 122 56 118 63 c 0,65,66
 106 88 106 88 84 107 c 0,67,68
 71 117 71 117 72 120 c 0,69,70
 74 124 74 124 84 125 c 0,71,72
 157 138 157 138 241 163 c 1,73,-1
 241 440 l 1,74,-1
 183 440 l 2,0,1
560 766 m 2,75,76
 559 805 559 805 556 836 c 0,77,78
 555 852 555 852 565 849 c 0,79,80
 618 832 618 832 636 823 c 0,81,82
 650 814 650 814 634 807 c 0,83,84
 619 799 619 799 615 789 c 0,85,86
 608 776 608 776 608 766 c 2,87,-1
 608 466 l 1,88,89
 769 540 769 540 860 669 c 0,90,91
 866 678 866 678 873 671 c 0,92,93
 907 640 907 640 929 612 c 0,94,95
 936 604 936 604 932 600 c 0,96,97
 927 596 927 596 914 600 c 0,98,99
 896 606 896 606 866 582 c 0,100,101
 728 477 728 477 608 446 c 1,102,-1
 608 33 l 2,103,104
 609 21 609 21 610 17 c 0,105,106
 612 13 612 13 627 13 c 2,107,-1
 839 13 l 2,108,109
 856 15 856 15 863 19 c 0,110,111
 895 37 895 37 910 175 c 0,112,113
 911 189 911 189 924 188 c 0,114,115
 937 186 937 186 936 171 c 0,116,117
 917 47 917 47 950 23 c 0,118,119
 956 19 956 19 952 13 c 0,120,121
 929 -26 929 -26 860 -29 c 2,122,-1
 622 -29 l 2,123,124
 579 -29 579 -29 570 -17 c 0,125,126
 560 -5 560 -5 560 20 c 2,127,-1
 560 766 l 2,75,76
EndSplineSet
EndChar

StartChar: uniE024
Encoding: 57380 57380 136
Width: 1024
Flags: W
LayerCount: 2
Fore
SplineSet
528 464 m 1,0,-1
 528 255 l 1,1,-1
 682 255 l 2,2,3
 696 256 696 256 712 274 c 2,4,-1
 738 311 l 2,5,6
 745 320 745 320 754 311 c 0,7,8
 825 248 825 248 824 233 c 0,9,10
 822 225 822 225 809 224 c 2,11,-1
 528 224 l 1,12,-1
 528 15 l 1,13,-1
 832 15 l 2,14,15
 846 16 846 16 862 34 c 2,16,-1
 888 71 l 2,17,18
 895 80 895 80 904 71 c 0,19,20
 975 8 975 8 974 -7 c 0,21,22
 972 -15 972 -15 959 -16 c 2,23,-1
 159 -16 l 2,24,25
 117 -17 117 -17 86 -23 c 0,26,27
 77 -26 77 -26 76 -17 c 0,28,29
 71 1 71 1 56 14 c 0,30,31
 48 21 48 21 52 25 c 0,32,33
 56 28 56 28 63 24 c 0,34,35
 101 15 101 15 147 15 c 2,36,-1
 480 15 l 1,37,-1
 480 224 l 1,38,-1
 311 224 l 2,39,40
 269 223 269 223 238 217 c 0,41,42
 229 214 229 214 228 223 c 0,43,44
 223 241 223 241 208 254 c 0,45,46
 200 261 200 261 204 265 c 0,47,48
 208 268 208 268 215 264 c 0,49,50
 253 255 253 255 299 255 c 2,51,-1
 480 255 l 1,52,-1
 480 464 l 1,53,-1
 311 464 l 2,54,55
 269 463 269 463 238 457 c 0,56,57
 229 454 229 454 228 463 c 0,58,59
 223 481 223 481 208 494 c 0,60,61
 200 501 200 501 204 505 c 0,62,63
 208 508 208 508 215 504 c 0,64,65
 253 495 253 495 299 495 c 2,66,-1
 480 495 l 1,67,-1
 480 712 l 1,68,-1
 219 712 l 2,69,70
 177 711 177 711 146 705 c 0,71,72
 137 702 137 702 136 711 c 0,73,74
 131 729 131 729 116 742 c 0,75,76
 108 749 108 749 112 753 c 0,77,78
 116 756 116 756 123 752 c 0,79,80
 161 743 161 743 207 743 c 2,81,-1
 768 743 l 2,82,83
 782 744 782 744 798 762 c 2,84,-1
 824 799 l 2,85,86
 831 808 831 808 840 799 c 0,87,88
 911 736 911 736 910 721 c 0,89,90
 908 713 908 713 895 712 c 2,91,-1
 528 712 l 1,92,-1
 528 495 l 1,93,-1
 682 495 l 2,94,95
 696 496 696 496 712 514 c 2,96,-1
 738 551 l 2,97,98
 745 560 745 560 754 551 c 0,99,100
 825 488 825 488 824 473 c 0,101,102
 822 465 822 465 809 464 c 2,103,-1
 528 464 l 1,0,-1
EndSplineSet
EndChar

StartChar: uniE025
Encoding: 57381 57381 137
Width: 1024
Flags: W
LayerCount: 2
Fore
SplineSet
245 687 m 0,0,1
 295 673 295 673 310 666 c 0,2,3
 321 659 321 659 308 653 c 0,4,5
 295 648 295 648 292 640 c 0,6,7
 286 626 286 626 286 580 c 2,8,-1
 286 487 l 1,9,10
 282 364 282 364 262 274 c 0,11,12
 221 71 221 71 79 -46 c 0,13,14
 70 -51 70 -51 66 -47 c 0,15,16
 62 -40 62 -40 69 -35 c 0,17,18
 109 10 109 10 170 117 c 1,19,20
 235 291 235 291 240 485 c 1,21,-1
 240 580 l 2,22,23
 240 640 240 640 237 677 c 0,24,25
 237 689 237 689 245 687 c 0,0,1
595 726 m 1,26,-1
 595 405 l 1,27,-1
 809 405 l 2,28,29
 823 406 823 406 839 424 c 2,30,-1
 865 461 l 2,31,32
 872 470 872 470 881 461 c 0,33,34
 952 398 952 398 951 383 c 0,35,36
 949 375 949 375 936 374 c 2,37,-1
 595 374 l 1,38,-1
 595 14 l 2,39,40
 596 -5 596 -5 600 -9 c 0,41,42
 605 -15 605 -15 623 -15 c 2,43,-1
 814 -15 l 2,44,45
 856 -13 856 -13 869 -3 c 0,46,47
 902 18 902 18 923 159 c 0,48,49
 926 171 926 171 936 170 c 256,50,51
 946 169 946 169 945 156 c 0,52,53
 932 77 932 77 951 38 c 0,54,55
 965 12 965 12 953 -3 c 0,56,57
 915 -57 915 -57 867 -57 c 2,58,-1
 608 -57 l 2,59,60
 565 -56 565 -56 556 -44 c 0,61,62
 547 -31 547 -31 547 2 c 2,63,-1
 547 374 l 1,64,-1
 412 374 l 2,65,66
 370 373 370 373 339 367 c 0,67,68
 330 364 330 364 329 373 c 0,69,70
 324 391 324 391 309 404 c 0,71,72
 301 411 301 411 305 415 c 0,73,74
 309 418 309 418 316 414 c 0,75,76
 354 405 354 405 400 405 c 2,77,-1
 547 405 l 1,78,-1
 547 726 l 1,79,-1
 231 726 l 2,80,81
 189 725 189 725 158 719 c 0,82,83
 149 716 149 716 148 725 c 0,84,85
 143 743 143 743 128 756 c 0,86,87
 120 763 120 763 124 767 c 0,88,89
 128 770 128 770 135 766 c 0,90,91
 173 757 173 757 219 757 c 2,92,-1
 752 757 l 2,93,94
 766 758 766 758 782 776 c 2,95,-1
 808 813 l 2,96,97
 815 822 815 822 824 813 c 0,98,99
 895 750 895 750 894 735 c 0,100,101
 892 727 892 727 879 726 c 2,102,-1
 595 726 l 1,26,-1
EndSplineSet
EndChar

StartChar: uniE026
Encoding: 57382 57382 138
Width: 1024
Flags: W
LayerCount: 2
Fore
SplineSet
376 736 m 1,0,-1
 376 480 l 2,1,2
 375 457 375 457 374 435 c 1,3,-1
 628 435 l 1,4,-1
 628 736 l 1,5,-1
 376 736 l 1,0,-1
628 404 m 1,6,-1
 372 404 l 1,7,8
 344 55 344 55 79 -77 c 0,9,10
 60 -86 60 -86 56 -73 c 0,11,12
 55 -67 55 -67 56 -64 c 0,13,14
 57 -60 57 -60 139 1 c 1,15,16
 293 134 293 134 324 404 c 1,17,-1
 159 404 l 2,18,19
 117 403 117 403 86 397 c 0,20,21
 77 394 77 394 76 403 c 0,22,23
 71 421 71 421 56 434 c 0,24,25
 48 441 48 441 52 445 c 0,26,27
 56 448 56 448 63 444 c 0,28,29
 101 435 101 435 147 435 c 2,30,-1
 326 435 l 1,31,32
 327 458 327 458 328 480 c 2,33,-1
 328 736 l 1,34,-1
 231 736 l 2,35,36
 189 735 189 735 158 729 c 0,37,38
 149 726 149 726 148 735 c 0,39,40
 143 753 143 753 128 766 c 0,41,42
 120 773 120 773 124 777 c 0,43,44
 128 780 128 780 135 776 c 0,45,46
 173 767 173 767 219 767 c 2,47,-1
 752 767 l 2,48,49
 766 768 766 768 782 786 c 2,50,-1
 808 823 l 2,51,52
 815 832 815 832 824 823 c 0,53,54
 895 760 895 760 894 745 c 0,55,56
 892 737 892 737 879 736 c 2,57,-1
 676 736 l 1,58,-1
 676 435 l 1,59,-1
 824 435 l 2,60,61
 838 436 838 436 854 454 c 2,62,-1
 880 491 l 2,63,64
 887 500 887 500 896 491 c 0,65,66
 967 428 967 428 966 413 c 0,67,68
 964 405 964 405 951 404 c 2,69,-1
 676 404 l 1,70,-1
 676 43 l 2,71,72
 677 15 677 15 690 2 c 0,73,74
 703 -12 703 -12 727 -12 c 2,75,-1
 837 -12 l 2,76,77
 866 -12 866 -12 882 4 c 0,78,79
 903 21 903 21 930 147 c 0,80,81
 932 161 932 161 942 160 c 0,82,83
 952 158 952 158 952 145 c 0,84,85
 944 64 944 64 954 42 c 0,86,87
 961 24 961 24 970 18 c 0,88,89
 976 13 976 13 969 6 c 0,90,91
 911 -60 911 -60 821 -60 c 2,92,-1
 726 -60 l 2,93,94
 673 -60 673 -60 652 -36 c 0,95,96
 628 -11 628 -11 628 32 c 2,97,-1
 628 404 l 1,6,-1
EndSplineSet
EndChar

StartChar: uniE027
Encoding: 57383 57383 139
Width: 1024
Flags: W
LayerCount: 2
Fore
SplineSet
492 710 m 2,0,1
 491 790 491 790 487 838 c 0,2,3
 485 855 485 855 497 851 c 0,4,5
 551 834 551 834 569 824 c 0,6,7
 583 817 583 817 567 808 c 0,8,9
 551 800 551 800 547 790 c 0,10,11
 540 771 540 771 540 710 c 2,12,-1
 540 507 l 1,13,-1
 832 507 l 2,14,15
 846 508 846 508 862 526 c 2,16,-1
 888 563 l 2,17,18
 895 572 895 572 904 563 c 0,19,20
 975 500 975 500 974 485 c 0,21,22
 972 477 972 477 959 476 c 2,23,-1
 540 476 l 1,24,-1
 540 151 l 2,25,26
 540 34 540 34 544 -45 c 0,27,28
 545 -53 545 -53 539 -57 c 0,29,30
 525 -66 525 -66 497 -84 c 0,31,32
 484 -94 484 -94 485 -73 c 0,33,34
 491 60 491 60 492 151 c 2,35,-1
 492 476 l 1,36,-1
 159 476 l 2,37,38
 117 475 117 475 86 469 c 0,39,40
 77 466 77 466 76 475 c 0,41,42
 71 493 71 493 56 506 c 0,43,44
 48 513 48 513 52 517 c 0,45,46
 56 520 56 520 63 516 c 0,47,48
 101 507 101 507 147 507 c 2,49,-1
 492 507 l 1,50,-1
 492 710 l 2,0,1
EndSplineSet
EndChar

StartChar: uniE028
Encoding: 57384 57384 140
Width: 1024
Flags: W
LayerCount: 2
Fore
SplineSet
486 383 m 1,0,-1
 486 155 l 2,1,2
 486 38 486 38 490 -41 c 0,3,4
 491 -49 491 -49 485 -53 c 0,5,6
 471 -62 471 -62 443 -80 c 0,7,8
 430 -90 430 -90 431 -69 c 0,9,10
 437 64 437 64 438 155 c 2,11,-1
 438 476 l 1,12,-1
 173 476 l 2,13,14
 131 475 131 475 100 469 c 0,15,16
 91 466 91 466 90 475 c 0,17,18
 85 493 85 493 70 506 c 0,19,20
 62 513 62 513 66 517 c 0,21,22
 70 520 70 520 77 516 c 0,23,24
 115 507 115 507 161 507 c 2,25,-1
 438 507 l 1,26,-1
 438 774 l 2,27,28
 437 813 437 813 434 844 c 0,29,30
 433 860 433 860 443 857 c 0,31,32
 496 840 496 840 514 831 c 0,33,34
 528 822 528 822 512 815 c 0,35,36
 497 807 497 807 493 797 c 0,37,38
 486 784 486 784 486 774 c 2,39,-1
 486 507 l 1,40,-1
 818 507 l 2,41,42
 832 508 832 508 848 526 c 2,43,-1
 874 563 l 2,44,45
 881 572 881 572 890 563 c 0,46,47
 961 500 961 500 960 485 c 0,48,49
 958 477 958 477 945 476 c 2,50,-1
 486 476 l 1,51,-1
 486 406 l 1,52,53
 721 334 721 334 784 264 c 0,54,55
 807 239 807 239 807 214 c 0,56,57
 807 190 807 190 803 178 c 256,58,59
 799 166 799 166 792 165 c 0,60,61
 784 164 784 164 777 177 c 0,62,63
 705 281 705 281 486 383 c 1,0,-1
713 795 m 0,64,65
 746 766 746 766 758 751 c 0,66,67
 768 742 768 742 767 736 c 0,68,69
 765 730 765 730 756 734 c 0,70,71
 735 738 735 738 705 693 c 1,72,73
 651 635 651 635 557 559 c 0,74,75
 546 551 546 551 540 558 c 0,76,77
 534 566 534 566 544 575 c 0,78,79
 603 631 603 631 655 716 c 0,80,81
 687 761 687 761 693 791 c 0,82,83
 698 808 698 808 713 795 c 0,64,65
EndSplineSet
EndChar

StartChar: uniE029
Encoding: 57385 57385 141
Width: 1024
Flags: W
LayerCount: 2
Fore
SplineSet
497 15 m 1,0,-1
 497 533 l 1,1,-1
 290 533 l 2,2,3
 248 532 248 532 217 526 c 0,4,5
 208 523 208 523 207 532 c 0,6,7
 202 550 202 550 187 563 c 0,8,9
 179 570 179 570 183 574 c 0,10,11
 187 577 187 577 194 573 c 0,12,13
 232 564 232 564 278 564 c 2,14,-1
 497 564 l 1,15,-1
 497 710 l 2,16,17
 496 790 496 790 492 838 c 0,18,19
 490 855 490 855 502 851 c 0,20,21
 556 834 556 834 574 824 c 0,22,23
 588 817 588 817 572 808 c 0,24,25
 556 800 556 800 552 790 c 0,26,27
 545 771 545 771 545 710 c 2,28,-1
 545 564 l 1,29,-1
 691 564 l 2,30,31
 705 565 705 565 721 583 c 2,32,-1
 747 620 l 2,33,34
 754 629 754 629 763 620 c 0,35,36
 834 557 834 557 833 542 c 0,37,38
 831 534 831 534 818 533 c 2,39,-1
 545 533 l 1,40,-1
 545 15 l 1,41,-1
 821 15 l 2,42,43
 835 16 835 16 851 34 c 2,44,-1
 877 71 l 2,45,46
 884 80 884 80 893 71 c 0,47,48
 964 8 964 8 963 -7 c 0,49,50
 961 -15 961 -15 948 -16 c 2,51,-1
 145 -16 l 1,52,53
 124 -32 124 -32 117 -50 c 0,54,55
 114 -58 114 -58 107 -54 c 0,56,57
 82 -31 82 -31 66 -24 c 0,58,59
 56 -19 56 -19 65 -10 c 0,60,61
 76 2 76 2 80 9 c 0,62,63
 84 17 84 17 85 36 c 2,64,-1
 85 280 l 2,65,66
 84 331 84 331 80 362 c 0,67,68
 79 379 79 379 89 375 c 0,69,70
 145 355 145 355 163 345 c 0,71,72
 176 336 176 336 169 332 c 0,73,74
 139 313 139 313 136 310 c 0,75,76
 133 305 133 305 133 280 c 2,77,-1
 133 15 l 1,78,-1
 497 15 l 1,0,-1
EndSplineSet
EndChar

StartChar: uniE02A
Encoding: 57386 57386 142
Width: 1024
Flags: W
LayerCount: 2
Fore
SplineSet
145 -16 m 1,0,1
 124 -32 124 -32 117 -50 c 0,2,3
 114 -58 114 -58 107 -54 c 0,4,5
 82 -31 82 -31 66 -24 c 0,6,7
 56 -19 56 -19 65 -10 c 0,8,9
 76 2 76 2 80 9 c 0,10,11
 84 17 84 17 85 36 c 2,12,-1
 85 280 l 2,13,14
 84 331 84 331 80 362 c 0,15,16
 79 379 79 379 89 375 c 0,17,18
 145 355 145 355 163 345 c 0,19,20
 176 336 176 336 169 332 c 0,21,22
 139 313 139 313 136 310 c 0,23,24
 133 305 133 305 133 280 c 2,25,-1
 133 15 l 1,26,-1
 497 15 l 1,27,-1
 497 533 l 1,28,-1
 290 533 l 2,29,30
 248 532 248 532 217 526 c 0,31,32
 208 523 208 523 207 532 c 0,33,34
 202 550 202 550 187 563 c 0,35,36
 179 570 179 570 183 574 c 0,37,38
 187 577 187 577 194 573 c 0,39,40
 232 564 232 564 278 564 c 2,41,-1
 497 564 l 1,42,-1
 497 710 l 2,43,44
 496 790 496 790 492 838 c 0,45,46
 490 855 490 855 502 851 c 0,47,48
 556 834 556 834 574 824 c 0,49,50
 588 817 588 817 572 808 c 0,51,52
 556 800 556 800 552 790 c 0,53,54
 545 771 545 771 545 710 c 2,55,-1
 545 564 l 1,56,-1
 691 564 l 2,57,58
 705 565 705 565 721 583 c 2,59,-1
 747 620 l 2,60,61
 754 629 754 629 763 620 c 0,62,63
 834 557 834 557 833 542 c 0,64,65
 831 534 831 534 818 533 c 2,66,-1
 545 533 l 1,67,-1
 545 15 l 1,68,-1
 884 15 l 2,69,70
 884 18 884 18 885 21 c 2,71,-1
 885 301 l 2,72,73
 884 331 884 331 881 356 c 0,74,75
 878 371 878 371 881 374 c 0,76,77
 885 378 885 378 894 374 c 0,78,79
 933 357 933 357 957 344 c 0,80,81
 963 341 963 341 963 338 c 0,82,83
 962 333 962 333 959 332 c 0,84,85
 941 323 941 323 937 317 c 256,86,87
 933 311 933 311 933 301 c 2,88,-1
 933 21 l 2,89,90
 934 3 934 3 935 -24 c 0,91,92
 936 -33 936 -33 929 -37 c 0,93,94
 885 -58 885 -58 881 -57 c 0,95,96
 878 -54 878 -54 881 -44 c 0,97,98
 882 -31 882 -31 883 -16 c 1,99,-1
 145 -16 l 1,0,1
EndSplineSet
EndChar

StartChar: uniE02B
Encoding: 57387 57387 143
Width: 1024
Flags: W
LayerCount: 2
Fore
SplineSet
871 8 m 0,1,2
 896 26 896 26 914 108 c 0,3,4
 919 137 919 137 926 168 c 0,5,6
 929 181 929 181 939 180 c 0,7,8
 949 178 949 178 948 165 c 0,9,10
 934 75 934 75 943 50 c 0,11,12
 950 30 950 30 960 23 c 0,13,14
 968 17 968 17 958 10 c 0,15,16
 900 -56 900 -56 810 -56 c 2,17,-1
 559 -56 l 2,18,19
 506 -56 506 -56 485 -32 c 0,20,21
 461 -7 461 -7 461 36 c 2,22,-1
 461 548 l 1,23,-1
 168 548 l 2,24,25
 126 547 126 547 95 541 c 0,26,27
 86 538 86 538 85 547 c 0,28,29
 80 565 80 565 65 578 c 0,30,31
 57 585 57 585 61 589 c 0,32,33
 65 592 65 592 72 588 c 0,34,35
 110 579 110 579 156 579 c 2,36,-1
 461 579 l 1,37,-1
 461 714 l 2,38,39
 461 792 461 792 457 840 c 0,40,41
 456 856 456 856 466 853 c 0,42,43
 519 835 519 835 538 828 c 0,44,45
 551 820 551 820 535 811 c 0,46,47
 520 802 520 802 516 793 c 0,48,49
 509 775 509 775 509 714 c 2,50,-1
 509 579 l 1,51,-1
 793 579 l 2,52,53
 807 580 807 580 823 598 c 2,54,-1
 849 635 l 2,55,56
 856 644 856 644 865 635 c 0,57,58
 936 572 936 572 935 557 c 0,59,60
 933 549 933 549 920 548 c 2,61,-1
 509 548 l 1,62,-1
 509 47 l 2,63,64
 510 19 510 19 523 6 c 0,65,66
 536 -8 536 -8 560 -8 c 2,67,-1
 826 -8 l 2,68,0
 855 -8 855 -8 871 8 c 0,1,2
140 404 m 0,69,70
 148 411 148 411 160 400 c 0,71,72
 301 310 301 310 305 249 c 0,73,74
 307 225 307 225 288 191 c 0,75,76
 271 164 271 164 259 165 c 0,77,78
 246 166 246 166 245 189 c 0,79,80
 224 297 224 297 140 388 c 0,81,82
 136 396 136 396 140 404 c 0,69,70
753 417 m 0,83,84
 759 417 759 417 816 359 c 0,85,86
 827 346 827 346 823 341 c 0,87,88
 820 336 820 336 814 337 c 0,89,90
 784 345 784 345 755 301 c 0,91,92
 720 251 720 251 649 183 c 0,93,94
 637 171 637 171 628 181 c 0,95,96
 621 192 621 192 634 208 c 0,97,98
 702 295 702 295 747 409 c 0,99,100
 750 417 750 417 753 417 c 0,83,84
EndSplineSet
EndChar

StartChar: uniE02C
Encoding: 57388 57388 144
Width: 1024
Flags: W
LayerCount: 2
Fore
SplineSet
517 109 m 1,0,1
 336 -50 336 -50 72 -91 c 0,2,3
 53 -94 53 -94 52 -84 c 0,4,5
 51 -73 51 -73 63 -72 c 0,6,7
 314 -14 314 -14 483 140 c 1,8,-1
 454 171 l 1,9,10
 358 267 358 267 270 454 c 0,11,12
 266 468 266 468 276 472 c 0,13,14
 289 477 289 477 293 461 c 0,15,16
 358 324 358 324 478 208 c 2,17,-1
 508 178 l 2,18,19
 511 175 511 175 514 173 c 2,20,-1
 516 175 l 1,21,22
 606 280 606 280 658 448 c 1,23,-1
 534 448 l 1,24,25
 513 432 513 432 506 414 c 0,26,27
 503 406 503 406 496 410 c 0,28,29
 471 433 471 433 455 440 c 0,30,31
 445 445 445 445 454 454 c 0,32,33
 465 466 465 466 469 473 c 0,34,35
 473 481 473 481 474 500 c 2,36,-1
 474 656 l 1,37,-1
 173 656 l 2,38,39
 131 655 131 655 100 649 c 0,40,41
 91 646 91 646 90 655 c 0,42,43
 85 673 85 673 70 686 c 0,44,45
 62 693 62 693 66 697 c 0,46,47
 70 700 70 700 77 696 c 0,48,49
 115 687 115 687 161 687 c 2,50,-1
 474 687 l 1,51,-1
 474 754 l 2,52,53
 473 793 473 793 470 824 c 0,54,55
 469 840 469 840 479 837 c 0,56,57
 532 820 532 820 550 811 c 0,58,59
 564 802 564 802 548 795 c 0,60,61
 533 787 533 787 529 777 c 0,62,63
 522 764 522 764 522 754 c 2,64,-1
 522 687 l 1,65,-1
 826 687 l 2,66,67
 840 688 840 688 856 706 c 2,68,-1
 882 743 l 2,69,70
 889 752 889 752 898 743 c 0,71,72
 969 680 969 680 968 665 c 0,73,74
 966 657 966 657 953 656 c 2,75,-1
 522 656 l 1,76,-1
 522 479 l 1,77,-1
 638 479 l 2,78,79
 646 479 646 479 649 483 c 2,80,-1
 686 523 l 2,81,82
 690 529 690 529 694 529 c 0,83,84
 706 528 706 528 757 464 c 0,85,86
 765 453 765 453 752 452 c 2,87,-1
 749 452 l 2,88,89
 716 449 716 449 688 380 c 0,90,91
 627 231 627 231 552 144 c 1,92,-1
 550 142 l 1,93,94
 570 126 570 126 592 112 c 0,95,96
 761 5 761 5 966 5 c 0,97,98
 973 4 973 4 973 -3 c 0,99,100
 973 -12 973 -12 957 -13 c 0,101,102
 912 -18 912 -18 888 -58 c 0,103,104
 884 -66 884 -66 872 -60 c 0,105,106
 637 7 637 7 517 109 c 1,0,1
EndSplineSet
EndChar

StartChar: uniE02D
Encoding: 57389 57389 145
Width: 1024
Flags: W
LayerCount: 2
Fore
SplineSet
367 551 m 1,0,1
 417 641 417 641 436 688 c 1,2,-1
 148 688 l 2,3,4
 121 688 121 688 87 681 c 0,5,6
 82 680 82 680 81 683 c 0,7,8
 68 703 68 703 58 719 c 0,9,10
 52 729 52 729 65 726 c 0,11,12
 126 720 126 720 133 719 c 2,13,-1
 448 719 l 1,14,15
 471 784 471 784 490 854 c 0,16,17
 492 864 492 864 501 861 c 0,18,19
 539 847 539 847 566 837 c 0,20,21
 578 832 578 832 577 826 c 0,22,23
 575 821 575 821 571 820 c 0,24,25
 549 815 549 815 542 806 c 0,26,27
 533 796 533 796 511 747 c 0,28,29
 504 732 504 732 498 719 c 1,30,-1
 826 719 l 2,31,32
 838 719 838 719 842 723 c 0,33,34
 847 728 847 728 856 738 c 2,35,-1
 882 775 l 2,36,37
 889 784 889 784 898 775 c 0,38,39
 929 747 929 747 959 716 c 0,40,41
 969 706 969 706 968 697 c 0,42,43
 966 689 966 689 953 688 c 2,44,-1
 483 688 l 1,45,46
 461 642 461 642 407 551 c 1,47,-1
 811 551 l 2,48,49
 820 551 820 551 821 552 c 2,50,-1
 846 585 l 2,51,52
 848 589 848 589 852 589 c 256,53,54
 856 589 856 589 860 585 c 0,55,56
 891 560 891 560 915 535 c 0,57,58
 922 527 922 527 906 521 c 0,59,60
 882 511 882 511 879 507 c 0,61,62
 876 501 876 501 876 494 c 2,63,-1
 876 6 l 2,64,65
 876 -28 876 -28 858 -53 c 256,66,67
 840 -78 840 -78 813 -88 c 0,68,69
 804 -92 804 -92 801 -83 c 0,70,71
 793 -62 793 -62 771 -47 c 0,72,73
 748 -30 748 -30 702 -26 c 0,74,75
 690 -24 690 -24 691 -14 c 0,76,77
 692 -5 692 -5 705 -6 c 0,78,79
 815 -11 815 -11 821 -8 c 0,80,81
 828 -4 828 -4 828 17 c 2,82,-1
 828 520 l 1,83,-1
 212 520 l 1,84,-1
 212 133 l 2,85,86
 211 26 211 26 212 -49 c 0,87,88
 211 -64 211 -64 174 -89 c 0,89,90
 166 -93 166 -93 162 -93 c 0,91,92
 156 -92 156 -92 157 -73 c 0,93,94
 161 27 161 27 164 133 c 2,95,-1
 164 493 l 2,96,97
 163 525 163 525 157 571 c 0,98,99
 155 581 155 581 158 582 c 0,100,101
 159 582 159 582 198 551 c 1,102,-1
 367 551 l 1,0,1
EndSplineSet
EndChar

StartChar: uniE02E
Encoding: 57390 57390 146
Width: 1024
Flags: W
LayerCount: 2
Fore
SplineSet
367 551 m 1,0,1
 417 641 417 641 436 688 c 1,2,-1
 148 688 l 2,3,4
 121 688 121 688 87 681 c 0,5,6
 82 680 82 680 81 683 c 0,7,8
 68 703 68 703 58 719 c 0,9,10
 52 729 52 729 65 726 c 0,11,12
 126 720 126 720 133 719 c 2,13,-1
 448 719 l 1,14,15
 471 784 471 784 490 854 c 0,16,17
 492 864 492 864 501 861 c 0,18,19
 539 847 539 847 566 837 c 0,20,21
 578 832 578 832 577 826 c 0,22,23
 575 821 575 821 571 820 c 0,24,25
 549 815 549 815 542 806 c 0,26,27
 533 796 533 796 511 747 c 0,28,29
 504 732 504 732 498 719 c 1,30,-1
 826 719 l 2,31,32
 838 719 838 719 842 723 c 0,33,34
 847 728 847 728 856 738 c 2,35,-1
 882 775 l 2,36,37
 889 784 889 784 898 775 c 0,38,39
 929 747 929 747 959 716 c 0,40,41
 969 706 969 706 968 697 c 0,42,43
 966 689 966 689 953 688 c 2,44,-1
 483 688 l 1,45,46
 461 642 461 642 407 551 c 1,47,-1
 811 551 l 2,48,49
 820 551 820 551 821 552 c 2,50,-1
 846 585 l 2,51,52
 848 589 848 589 852 589 c 256,53,54
 856 589 856 589 860 585 c 0,55,56
 891 560 891 560 915 535 c 0,57,58
 922 527 922 527 906 521 c 0,59,60
 882 511 882 511 879 507 c 0,61,62
 876 501 876 501 876 494 c 2,63,-1
 876 6 l 2,64,65
 876 -28 876 -28 858 -53 c 256,66,67
 840 -78 840 -78 813 -88 c 0,68,69
 804 -92 804 -92 801 -83 c 0,70,71
 793 -62 793 -62 771 -47 c 0,72,73
 748 -30 748 -30 702 -26 c 0,74,75
 690 -24 690 -24 691 -14 c 0,76,77
 692 -5 692 -5 705 -6 c 0,78,79
 815 -11 815 -11 821 -8 c 0,80,81
 828 -4 828 -4 828 17 c 2,82,-1
 828 520 l 1,83,-1
 212 520 l 1,84,-1
 212 133 l 2,85,86
 211 26 211 26 212 -49 c 0,87,88
 211 -64 211 -64 174 -89 c 0,89,90
 166 -93 166 -93 162 -93 c 0,91,92
 156 -92 156 -92 157 -73 c 0,93,94
 161 27 161 27 164 133 c 2,95,-1
 164 493 l 2,96,97
 163 525 163 525 157 571 c 0,98,99
 155 581 155 581 158 582 c 0,100,101
 159 582 159 582 198 551 c 1,102,-1
 367 551 l 1,0,1
435 369 m 0,103,104
 443 376 443 376 455 365 c 0,105,106
 596 275 596 275 600 214 c 0,107,108
 602 190 602 190 583 156 c 0,109,110
 566 129 566 129 554 130 c 0,111,112
 541 131 541 131 540 154 c 0,113,114
 519 262 519 262 435 353 c 0,115,116
 431 361 431 361 435 369 c 0,103,104
EndSplineSet
EndChar

StartChar: uniE02F
Encoding: 57391 57391 147
Width: 1024
Flags: W
LayerCount: 2
Fore
SplineSet
512 347 m 1,0,-1
 800 347 l 2,1,2
 814 348 814 348 830 366 c 2,3,-1
 856 403 l 2,4,5
 863 412 863 412 872 403 c 0,6,7
 943 340 943 340 942 325 c 0,8,9
 940 317 940 317 927 316 c 2,10,-1
 512 316 l 1,11,-1
 512 147 l 2,12,13
 512 29 512 29 516 -52 c 0,14,15
 514 -62 514 -62 468 -89 c 0,16,17
 455 -96 455 -96 456 -77 c 0,18,19
 463 56 463 56 464 147 c 2,20,-1
 464 316 l 1,21,-1
 146 316 l 1,22,23
 141 306 141 306 138 302 c 0,24,25
 134 295 134 295 128 299 c 0,26,27
 114 316 114 316 81 331 c 0,28,29
 81 332 81 332 108 365 c 1,30,31
 145 477 145 477 136 582 c 0,32,33
 135 593 135 593 142 590 c 0,34,35
 220 564 220 564 223 551 c 0,36,37
 222 545 222 545 212 541 c 0,38,39
 188 531 188 531 182 477 c 1,40,41
 170 434 170 434 163 391 c 0,42,43
 157 366 157 366 154 347 c 1,44,-1
 464 347 l 1,45,-1
 464 628 l 1,46,-1
 235 628 l 2,47,48
 193 627 193 627 162 621 c 0,49,50
 153 618 153 618 152 627 c 0,51,52
 147 645 147 645 132 658 c 0,53,54
 124 665 124 665 128 669 c 0,55,56
 132 672 132 672 139 668 c 0,57,58
 177 659 177 659 223 659 c 2,59,-1
 464 659 l 1,60,-1
 464 770 l 2,61,62
 463 809 463 809 460 840 c 0,63,64
 459 856 459 856 469 853 c 0,65,66
 522 836 522 836 540 827 c 0,67,68
 554 818 554 818 538 811 c 0,69,70
 523 803 523 803 519 793 c 0,71,72
 512 780 512 780 512 770 c 2,73,-1
 512 659 l 1,74,-1
 720 659 l 2,75,76
 734 660 734 660 750 678 c 2,77,-1
 776 715 l 2,78,79
 783 724 783 724 792 715 c 0,80,81
 863 652 863 652 862 637 c 0,82,83
 860 629 860 629 847 628 c 2,84,-1
 512 628 l 1,85,-1
 512 347 l 1,0,-1
EndSplineSet
EndChar

StartChar: uniE030
Encoding: 57392 57392 148
Width: 1024
Flags: W
LayerCount: 2
Fore
SplineSet
530 496 m 1,0,-1
 530 147 l 2,1,2
 530 22 530 22 534 -63 c 0,3,4
 534 -72 534 -72 527 -73 c 0,5,6
 505 -82 505 -82 483 -91 c 0,7,8
 474 -93 474 -93 475 -77 c 0,9,10
 481 56 481 56 482 147 c 2,11,-1
 482 496 l 1,12,-1
 250 496 l 1,13,-1
 250 73 l 2,14,15
 250 65 250 65 244 64 c 0,16,17
 224 56 224 56 205 47 c 0,18,19
 196 44 196 44 197 59 c 0,20,21
 201 122 201 122 202 269 c 2,22,-1
 202 469 l 2,23,24
 201 505 201 505 197 551 c 0,25,26
 195 563 195 563 199 564 c 0,27,28
 202 565 202 565 209 558 c 0,29,30
 221 545 221 545 245 527 c 1,31,-1
 482 527 l 1,32,-1
 482 696 l 1,33,-1
 168 696 l 2,34,35
 141 696 141 696 107 689 c 0,36,37
 102 688 102 688 101 691 c 0,38,39
 88 711 88 711 78 727 c 0,40,41
 72 737 72 737 85 734 c 0,42,43
 146 728 146 728 153 727 c 2,44,-1
 481 727 l 1,45,46
 480 804 480 804 477 850 c 0,47,48
 476 868 476 868 486 864 c 0,49,50
 542 846 542 846 563 834 c 0,51,52
 574 826 574 826 564 822 c 0,53,54
 533 805 533 805 532 801 c 0,55,56
 530 797 530 797 530 727 c 1,57,-1
 806 727 l 2,58,59
 818 727 818 727 822 731 c 0,60,61
 827 736 827 736 836 746 c 2,62,-1
 862 783 l 2,63,64
 869 792 869 792 878 783 c 0,65,66
 909 755 909 755 939 724 c 0,67,68
 949 714 949 714 948 705 c 0,69,70
 946 697 946 697 933 696 c 2,71,-1
 530 696 l 1,72,-1
 530 527 l 1,73,-1
 749 527 l 2,74,75
 758 527 758 527 759 528 c 2,76,-1
 784 561 l 2,77,78
 786 565 786 565 790 565 c 256,79,80
 794 565 794 565 798 561 c 0,81,82
 829 536 829 536 853 511 c 0,83,84
 860 502 860 502 853 499 c 0,85,86
 820 483 820 483 817 479 c 0,87,88
 814 474 814 474 814 470 c 2,89,-1
 814 131 l 2,90,91
 814 96 814 96 795 74 c 0,92,93
 775 50 775 50 750 41 c 0,94,95
 738 36 738 36 735 40 c 0,96,97
 719 63 719 63 683 81 c 0,98,99
 655 95 655 95 591 105 c 0,100,101
 581 107 581 107 581 117 c 0,102,103
 582 127 582 127 595 126 c 0,104,105
 636 124 636 124 691 120 c 0,106,107
 747 117 747 117 757 124 c 0,108,109
 766 127 766 127 766 145 c 2,110,-1
 766 496 l 1,111,-1
 530 496 l 1,0,-1
EndSplineSet
EndChar

StartChar: uniE031
Encoding: 57393 57393 149
Width: 1024
Flags: W
LayerCount: 2
Fore
SplineSet
530 668 m 1,0,-1
 530 542 l 1,1,-1
 807 542 l 2,2,3
 816 542 816 542 817 543 c 2,4,-1
 842 576 l 2,5,6
 844 580 844 580 848 580 c 256,7,8
 852 580 852 580 856 576 c 0,9,10
 887 551 887 551 911 526 c 0,11,12
 918 518 918 518 902 512 c 0,13,14
 878 502 878 502 875 498 c 0,15,16
 872 492 872 492 872 485 c 2,17,-1
 872 259 l 2,18,19
 872 225 872 225 854 200 c 256,20,21
 836 175 836 175 809 165 c 0,22,23
 799 161 799 161 798 171 c 0,24,25
 778 219 778 219 705 231 c 0,26,27
 694 233 694 233 695 243 c 256,28,29
 696 253 696 253 709 250 c 0,30,31
 816 245 816 245 817 245 c 0,32,33
 824 249 824 249 824 270 c 2,34,-1
 824 511 l 1,35,-1
 529 511 l 1,36,37
 527 451 527 451 520 397 c 1,38,-1
 552 336 l 2,39,40
 643 167 643 167 752 79 c 0,41,42
 819 24 819 24 957 -3 c 0,43,44
 964 -4 964 -4 963 -13 c 0,45,46
 963 -22 963 -22 951 -23 c 0,47,48
 912 -23 912 -23 887 -68 c 0,49,50
 885 -72 885 -72 875 -68 c 0,51,52
 829 -47 829 -47 793 -25 c 0,53,54
 637 70 637 70 528 322 c 0,55,56
 525 330 525 330 518 334 c 1,57,58
 511 328 511 328 505 301 c 0,59,60
 490 221 490 221 433 142 c 1,61,62
 375 69 375 69 296 18 c 0,63,64
 216 -32 216 -32 78 -80 c 0,65,66
 66 -85 66 -85 62 -76 c 0,67,68
 60 -67 60 -67 70 -63 c 0,69,70
 209 -6 209 -6 288 54 c 0,71,72
 429 154 429 154 469 356 c 1,73,-1
 475 395 l 1,74,75
 480 454 480 454 481 511 c 1,76,-1
 212 511 l 1,77,-1
 212 386 l 2,78,79
 211 279 211 279 212 204 c 0,80,81
 211 189 211 189 174 164 c 0,82,83
 166 160 166 160 162 160 c 0,84,85
 156 161 156 161 157 180 c 0,86,87
 161 280 161 280 164 386 c 2,88,-1
 164 484 l 2,89,90
 163 516 163 516 157 562 c 0,91,92
 155 572 155 572 158 573 c 0,93,94
 159 573 159 573 198 542 c 1,95,-1
 482 542 l 1,96,-1
 482 668 l 1,97,-1
 148 668 l 2,98,99
 121 668 121 668 87 661 c 0,100,101
 82 660 82 660 81 663 c 0,102,103
 68 683 68 683 58 699 c 0,104,105
 52 709 52 709 65 706 c 0,106,107
 126 700 126 700 133 699 c 2,108,-1
 482 699 l 1,109,-1
 482 710 l 2,110,111
 481 790 481 790 477 838 c 0,112,113
 475 855 475 855 487 851 c 0,114,115
 541 834 541 834 559 824 c 0,116,117
 573 817 573 817 557 808 c 0,118,119
 541 800 541 800 537 790 c 0,120,121
 530 771 530 771 530 710 c 2,122,-1
 530 699 l 1,123,-1
 826 699 l 2,124,125
 838 699 838 699 842 703 c 0,126,127
 847 708 847 708 856 718 c 2,128,-1
 882 755 l 2,129,130
 889 764 889 764 898 755 c 0,131,132
 929 727 929 727 959 696 c 0,133,134
 969 686 969 686 968 677 c 0,135,136
 966 669 966 669 953 668 c 2,137,-1
 530 668 l 1,0,-1
EndSplineSet
EndChar

StartChar: uniE032
Encoding: 57394 57394 150
Width: 1024
Flags: W
LayerCount: 2
Fore
SplineSet
860 26 m 2,1,-1
 886 63 l 2,2,3
 893 72 893 72 902 63 c 0,4,5
 973 0 973 0 972 -15 c 0,6,7
 970 -23 970 -23 957 -24 c 2,8,-1
 161 -24 l 2,9,10
 119 -25 119 -25 88 -31 c 0,11,12
 79 -34 79 -34 78 -25 c 0,13,14
 73 -7 73 -7 58 6 c 0,15,16
 50 13 50 13 54 17 c 0,17,18
 58 20 58 20 65 16 c 0,19,20
 103 7 103 7 149 7 c 2,21,-1
 486 7 l 1,22,-1
 486 468 l 1,23,-1
 269 468 l 2,24,25
 227 467 227 467 196 461 c 0,26,27
 187 458 187 458 186 467 c 0,28,29
 181 485 181 485 166 498 c 0,30,31
 158 505 158 505 162 509 c 0,32,33
 166 512 166 512 173 508 c 0,34,35
 211 499 211 499 257 499 c 2,36,-1
 486 499 l 1,37,-1
 486 738 l 2,38,39
 485 777 485 777 482 808 c 0,40,41
 481 824 481 824 491 821 c 0,42,43
 544 804 544 804 562 795 c 0,44,45
 576 786 576 786 560 779 c 0,46,47
 545 771 545 771 541 761 c 0,48,49
 534 748 534 748 534 738 c 2,50,-1
 534 499 l 1,51,-1
 722 499 l 2,52,53
 736 500 736 500 752 518 c 2,54,-1
 778 555 l 2,55,56
 785 564 785 564 794 555 c 0,57,58
 865 492 865 492 864 477 c 0,59,60
 862 469 862 469 849 468 c 2,61,-1
 534 468 l 1,62,-1
 534 7 l 1,63,-1
 830 7 l 2,64,0
 844 8 844 8 860 26 c 2,1,-1
235 338 m 0,65,66
 241 342 241 342 251 335 c 0,67,68
 358 260 358 260 358 217 c 0,69,70
 360 197 360 197 342 169 c 0,71,72
 327 147 327 147 317 148 c 0,73,74
 307 150 307 150 306 169 c 0,75,76
 298 247 298 247 235 325 c 0,77,78
 231 332 231 332 235 338 c 0,65,66
765 353 m 0,79,80
 772 354 772 354 823 296 c 0,81,82
 832 286 832 286 829 281 c 256,83,84
 826 276 826 276 819 278 c 0,85,86
 790 290 790 290 753 250 c 0,87,88
 705 202 705 202 614 140 c 0,89,90
 602 129 602 129 594 140 c 0,91,92
 586 152 586 152 600 162 c 0,93,94
 693 244 693 244 758 347 c 0,95,96
 761 352 761 352 765 353 c 0,79,80
EndSplineSet
EndChar

StartChar: uniE033
Encoding: 57395 57395 151
Width: 1024
Flags: W
LayerCount: 2
Fore
SplineSet
254 360 m 1,0,-1
 254 -9 l 1,1,-1
 492 -9 l 1,2,-1
 492 360 l 1,3,-1
 254 360 l 1,0,-1
540 -9 m 1,4,-1
 778 -9 l 1,5,-1
 778 360 l 1,6,-1
 540 360 l 1,7,-1
 540 -9 l 1,4,-1
540 391 m 1,8,-1
 751 391 l 2,9,10
 757 392 757 392 761 396 c 2,11,-1
 784 422 l 2,12,13
 790 430 790 430 797 424 c 0,14,15
 830 400 830 400 858 375 c 0,16,17
 867 367 867 367 857 364 c 0,18,19
 840 361 840 361 833 351 c 256,20,21
 826 341 826 341 826 322 c 2,22,-1
 826 -9 l 1,23,-1
 866 -9 l 2,24,25
 872 -9 872 -9 878 -2 c 2,26,-1
 914 39 l 2,27,28
 921 46 921 46 928 39 c 0,29,30
 954 13 954 13 972 -9 c 0,31,32
 983 -23 983 -23 976 -33 c 0,33,34
 971 -39 971 -39 958 -40 c 2,35,-1
 153 -40 l 2,36,37
 111 -41 111 -41 80 -47 c 0,38,39
 72 -50 72 -50 69 -41 c 0,40,41
 65 -23 65 -23 50 -11 c 0,42,43
 43 -4 43 -4 46 0 c 0,44,45
 50 3 50 3 57 -1 c 0,46,47
 95 -9 95 -9 141 -9 c 2,48,-1
 206 -9 l 1,49,-1
 206 316 l 2,50,51
 206 371 206 371 199 417 c 0,52,53
 198 429 198 429 202 430 c 0,54,55
 207 432 207 432 214 423 c 0,56,57
 224 410 224 410 248 391 c 1,58,-1
 492 391 l 1,59,-1
 492 556 l 1,60,-1
 231 556 l 2,61,62
 189 555 189 555 158 549 c 0,63,64
 149 546 149 546 148 555 c 0,65,66
 143 573 143 573 128 586 c 0,67,68
 120 593 120 593 124 597 c 0,69,70
 128 600 128 600 135 596 c 0,71,72
 173 587 173 587 219 587 c 2,73,-1
 492 587 l 1,74,-1
 492 697 l 2,75,76
 491 787 491 787 487 835 c 0,77,78
 485 852 485 852 497 848 c 0,79,80
 551 831 551 831 569 821 c 0,81,82
 583 814 583 814 567 805 c 0,83,84
 551 797 551 797 547 787 c 0,85,86
 540 768 540 768 540 697 c 2,87,-1
 540 587 l 1,88,-1
 750 587 l 2,89,90
 764 588 764 588 780 606 c 2,91,-1
 806 643 l 2,92,93
 813 652 813 652 822 643 c 0,94,95
 893 580 893 580 892 565 c 0,96,97
 890 557 890 557 877 556 c 2,98,-1
 540 556 l 1,99,-1
 540 391 l 1,8,-1
EndSplineSet
EndChar

StartChar: uniE034
Encoding: 57396 57396 152
Width: 1024
Flags: W
LayerCount: 2
Fore
SplineSet
768 570 m 2,1,-1
 794 607 l 2,2,3
 801 616 801 616 810 607 c 0,4,5
 881 544 881 544 880 529 c 0,6,7
 878 521 878 521 865 520 c 2,8,-1
 538 520 l 1,9,-1
 538 -13 l 1,10,-1
 850 -13 l 2,11,12
 864 -12 864 -12 880 6 c 2,13,-1
 906 43 l 2,14,15
 913 52 913 52 922 43 c 0,16,17
 993 -20 993 -20 992 -35 c 0,18,19
 990 -43 990 -43 977 -44 c 2,20,-1
 141 -44 l 2,21,22
 99 -45 99 -45 68 -51 c 0,23,24
 59 -54 59 -54 58 -45 c 0,25,26
 53 -27 53 -27 38 -14 c 0,27,28
 30 -7 30 -7 34 -3 c 0,29,30
 38 0 38 0 45 -4 c 0,31,32
 83 -13 83 -13 129 -13 c 2,33,-1
 490 -13 l 1,34,-1
 490 520 l 1,35,-1
 269 520 l 2,36,37
 227 519 227 519 196 513 c 0,38,39
 187 510 187 510 186 519 c 0,40,41
 181 537 181 537 166 550 c 0,42,43
 158 557 158 557 162 561 c 0,44,45
 166 564 166 564 173 560 c 0,46,47
 211 551 211 551 257 551 c 2,48,-1
 490 551 l 1,49,-1
 490 766 l 2,50,51
 489 805 489 805 486 836 c 0,52,53
 485 852 485 852 495 849 c 0,54,55
 548 832 548 832 566 823 c 0,56,57
 580 814 580 814 564 807 c 0,58,59
 549 799 549 799 545 789 c 0,60,61
 538 776 538 776 538 766 c 2,62,-1
 538 551 l 1,63,-1
 738 551 l 2,64,0
 752 552 752 552 768 570 c 2,1,-1
744 417 m 0,66,67
 747 434 747 434 763 424 c 0,68,69
 800 401 800 401 815 389 c 0,70,71
 826 381 826 381 825 375 c 0,72,73
 825 371 825 371 812 370 c 0,74,75
 801 367 801 367 795 363 c 0,76,77
 787 358 787 358 771 324 c 0,78,79
 762 309 762 309 753 293 c 1,80,81
 832 252 832 252 872 210 c 0,82,83
 898 185 898 185 901 160 c 0,84,85
 904 141 904 141 891 111 c 0,86,87
 881 87 881 87 869 87 c 0,88,89
 859 87 859 87 856 106 c 0,90,91
 838 164 838 164 810 204 c 0,92,93
 784 240 784 240 744 277 c 1,94,95
 725 249 725 249 706 218 c 0,96,97
 678 176 678 176 610 97 c 0,98,99
 600 86 600 86 593 93 c 256,100,101
 586 100 586 100 595 110 c 0,102,103
 666 203 666 203 705 296 c 0,104,65
 743 387 743 387 744 417 c 0,66,67
264 417 m 0,106,107
 267 434 267 434 283 424 c 0,108,109
 320 401 320 401 335 389 c 0,110,111
 346 381 346 381 345 375 c 0,112,113
 345 371 345 371 332 370 c 0,114,115
 321 367 321 367 315 363 c 0,116,117
 307 358 307 358 291 324 c 0,118,119
 282 309 282 309 273 293 c 1,120,121
 352 252 352 252 392 210 c 0,122,123
 418 185 418 185 421 160 c 0,124,125
 424 141 424 141 411 111 c 0,126,127
 401 87 401 87 389 87 c 0,128,129
 379 87 379 87 376 106 c 0,130,131
 358 164 358 164 330 204 c 0,132,133
 304 240 304 240 264 277 c 1,134,135
 245 249 245 249 226 218 c 0,136,137
 198 176 198 176 130 97 c 0,138,139
 120 86 120 86 113 93 c 256,140,141
 106 100 106 100 115 110 c 0,142,143
 186 203 186 203 225 296 c 0,144,105
 263 387 263 387 264 417 c 0,106,107
EndSplineSet
EndChar

StartChar: uniE035
Encoding: 57397 57397 153
Width: 1024
Flags: W
LayerCount: 2
Fore
SplineSet
545 580 m 0,1,2
 540 580 540 580 540 576 c 1,3,-1
 537 576 l 1,4,-1
 537 151 l 2,5,6
 537 34 537 34 541 -45 c 0,7,8
 542 -53 542 -53 536 -57 c 0,9,10
 522 -66 522 -66 494 -84 c 0,11,12
 481 -94 481 -94 482 -73 c 0,13,14
 488 60 488 60 489 151 c 2,15,-1
 489 511 l 1,16,17
 496 542 496 542 500 570 c 0,18,19
 501 575 501 575 497 576 c 0,20,21
 488 579 488 579 482 540 c 1,22,23
 461 475 461 475 397 373 c 1,24,25
 283 208 283 208 69 33 c 0,26,27
 56 23 56 23 49 30 c 0,28,29
 40 41 40 41 50 50 c 0,30,31
 342 306 342 306 447 576 c 1,32,-1
 188 576 l 2,33,34
 146 575 146 575 115 569 c 0,35,36
 106 566 106 566 105 575 c 0,37,38
 100 593 100 593 85 606 c 0,39,40
 77 613 77 613 81 617 c 0,41,42
 85 620 85 620 92 616 c 0,43,44
 130 607 130 607 176 607 c 2,45,-1
 489 607 l 1,46,-1
 489 718 l 2,47,48
 488 798 488 798 484 846 c 0,49,50
 482 863 482 863 494 859 c 0,51,52
 548 842 548 842 566 832 c 0,53,54
 580 825 580 825 564 816 c 0,55,56
 548 808 548 808 544 798 c 0,57,58
 537 779 537 779 537 718 c 2,59,-1
 537 607 l 1,60,-1
 805 607 l 2,61,62
 819 608 819 608 835 626 c 2,63,-1
 861 663 l 2,64,65
 868 672 868 672 877 663 c 0,66,67
 948 600 948 600 947 585 c 0,68,69
 945 577 945 577 932 576 c 2,70,-1
 576 576 l 1,71,72
 654 386 654 386 744 284 c 0,73,74
 871 136 871 136 976 115 c 0,75,76
 981 113 981 113 980 106 c 0,77,78
 977 99 977 99 964 100 c 0,79,80
 947 102 947 102 928 90 c 0,81,82
 913 79 913 79 907 63 c 0,83,84
 903 58 903 58 896 65 c 0,85,86
 759 182 759 182 690 288 c 0,87,88
 623 388 623 388 556 572 c 0,89,90
 555 575 555 575 554 576 c 2,91,-1
 550 576 l 1,92,0
 549 581 549 581 545 580 c 0,1,2
EndSplineSet
EndChar

StartChar: uniE036
Encoding: 57398 57398 154
Width: 1024
Flags: W
LayerCount: 2
Fore
SplineSet
537 7 m 1,0,-1
 713 7 l 2,1,2
 727 8 727 8 743 26 c 2,3,-1
 769 63 l 2,4,5
 776 72 776 72 785 63 c 0,6,7
 856 0 856 0 855 -15 c 0,8,9
 853 -23 853 -23 840 -24 c 2,10,-1
 284 -24 l 2,11,12
 242 -25 242 -25 211 -31 c 0,13,14
 202 -34 202 -34 201 -25 c 0,15,16
 196 -7 196 -7 181 6 c 0,17,18
 173 13 173 13 177 17 c 0,19,20
 181 20 181 20 188 16 c 0,21,22
 226 7 226 7 272 7 c 2,23,-1
 489 7 l 1,24,-1
 489 511 l 1,25,26
 496 542 496 542 500 570 c 0,27,28
 501 575 501 575 497 576 c 0,29,30
 488 579 488 579 482 540 c 1,31,32
 461 475 461 475 397 373 c 1,33,34
 283 208 283 208 69 33 c 0,35,36
 56 23 56 23 49 30 c 0,37,38
 40 41 40 41 50 50 c 0,39,40
 342 306 342 306 447 576 c 1,41,-1
 188 576 l 2,42,43
 146 575 146 575 115 569 c 0,44,45
 106 566 106 566 105 575 c 0,46,47
 100 593 100 593 85 606 c 0,48,49
 77 613 77 613 81 617 c 0,50,51
 85 620 85 620 92 616 c 0,52,53
 130 607 130 607 176 607 c 2,54,-1
 489 607 l 1,55,-1
 489 718 l 2,56,57
 488 798 488 798 484 846 c 0,58,59
 482 863 482 863 494 859 c 0,60,61
 548 842 548 842 566 832 c 0,62,63
 580 825 580 825 564 816 c 0,64,65
 548 808 548 808 544 798 c 0,66,67
 537 779 537 779 537 718 c 2,68,-1
 537 607 l 1,69,-1
 805 607 l 2,70,71
 819 608 819 608 835 626 c 2,72,-1
 861 663 l 2,73,74
 868 672 868 672 877 663 c 0,75,76
 948 600 948 600 947 585 c 0,77,78
 945 577 945 577 932 576 c 2,79,-1
 576 576 l 1,80,81
 654 386 654 386 744 284 c 0,82,83
 871 136 871 136 976 115 c 0,84,85
 981 113 981 113 980 106 c 0,86,87
 977 99 977 99 964 100 c 0,88,89
 947 102 947 102 928 90 c 0,90,91
 913 79 913 79 907 63 c 0,92,93
 903 58 903 58 896 65 c 0,94,95
 759 182 759 182 690 288 c 0,96,97
 623 388 623 388 556 572 c 0,98,99
 555 575 555 575 554 576 c 2,100,-1
 550 576 l 1,101,102
 549 581 549 581 545 580 c 0,103,104
 540 580 540 580 540 576 c 1,105,-1
 537 576 l 1,106,-1
 537 7 l 1,0,-1
EndSplineSet
EndChar

StartChar: uniE037
Encoding: 57399 57399 155
Width: 1024
Flags: W
LayerCount: 2
Fore
SplineSet
275 607 m 1,0,1
 274 682 274 682 270 728 c 0,2,3
 269 746 269 746 279 742 c 0,4,5
 335 724 335 724 356 712 c 0,6,7
 367 704 367 704 357 700 c 0,8,9
 326 683 326 683 325 679 c 0,10,11
 322 670 322 670 323 607 c 1,12,-1
 480 607 l 1,13,-1
 480 718 l 2,14,15
 479 798 479 798 475 846 c 0,16,17
 473 863 473 863 485 859 c 0,18,19
 539 842 539 842 557 832 c 0,20,21
 571 825 571 825 555 816 c 0,22,23
 539 808 539 808 535 798 c 0,24,25
 528 779 528 779 528 718 c 2,26,-1
 528 607 l 1,27,-1
 646 607 l 1,28,29
 635 662 635 662 625 726 c 0,30,31
 622 741 622 741 626 744 c 0,32,33
 629 747 629 747 634 741 c 0,34,35
 664 722 664 722 691 712 c 0,36,37
 699 709 699 709 699 705 c 0,38,39
 698 700 698 700 692 699 c 0,40,41
 683 697 683 697 678 682 c 0,42,43
 674 669 674 669 679 627 c 0,44,45
 680 617 680 617 682 607 c 1,46,-1
 796 607 l 2,47,48
 810 608 810 608 826 626 c 2,49,-1
 852 663 l 2,50,51
 859 672 859 672 868 663 c 0,52,53
 939 600 939 600 938 585 c 0,54,55
 936 577 936 577 923 576 c 2,56,-1
 687 576 l 1,57,58
 692 546 692 546 698 528 c 0,59,60
 770 293 770 293 951 203 c 0,61,62
 955 201 955 201 954 195 c 0,63,64
 952 189 952 189 945 192 c 0,65,66
 930 195 930 195 916 188 c 0,67,68
 899 180 899 180 891 161 c 0,69,70
 888 157 888 157 879 167 c 0,71,72
 762 283 762 283 713 389 c 0,73,74
 679 462 679 462 653 576 c 1,75,-1
 528 576 l 1,76,-1
 528 7 l 1,77,-1
 704 7 l 2,78,79
 718 8 718 8 734 26 c 2,80,-1
 760 63 l 2,81,82
 767 72 767 72 776 63 c 0,83,84
 847 0 847 0 846 -15 c 0,85,86
 844 -23 844 -23 831 -24 c 2,87,-1
 275 -24 l 2,88,89
 233 -25 233 -25 202 -31 c 0,90,91
 193 -34 193 -34 192 -25 c 0,92,93
 187 -7 187 -7 172 6 c 0,94,95
 164 13 164 13 168 17 c 0,96,97
 172 20 172 20 179 16 c 0,98,99
 217 7 217 7 263 7 c 2,100,-1
 480 7 l 1,101,-1
 480 576 l 1,102,-1
 323 576 l 1,103,104
 322 392 322 392 310 338 c 0,105,106
 296 272 296 272 257 226 c 0,107,108
 212 173 212 173 94 115 c 0,109,110
 77 105 77 105 71 115 c 0,111,112
 67 126 67 126 77 132 c 0,113,114
 165 180 165 180 208 229 c 0,115,116
 247 271 247 271 260 331 c 0,117,118
 274 393 274 393 275 576 c 1,119,-1
 179 576 l 2,120,121
 137 575 137 575 106 569 c 0,122,123
 97 566 97 566 96 575 c 0,124,125
 91 593 91 593 76 606 c 0,126,127
 68 613 68 613 72 617 c 0,128,129
 76 620 76 620 83 616 c 0,130,131
 121 607 121 607 167 607 c 2,132,-1
 275 607 l 1,0,1
EndSplineSet
EndChar

StartChar: uniE038
Encoding: 57400 57400 156
Width: 1024
Flags: W
LayerCount: 2
Fore
SplineSet
480 401 m 0,0,1
 486 486 486 486 486 567 c 2,2,-1
 486 669 l 2,3,4
 489 683 489 683 492 690 c 0,5,6
 494 695 494 695 490 696 c 0,7,8
 485 697 485 697 484 696 c 0,9,10
 404 564 404 564 298 470 c 0,11,12
 205 387 205 387 101 329 c 0,13,14
 86 322 86 322 82 329 c 0,15,16
 74 342 74 342 86 349 c 0,17,18
 308 492 308 492 426 696 c 1,19,-1
 165 696 l 2,20,21
 123 695 123 695 92 689 c 0,22,23
 84 686 84 686 81 695 c 0,24,25
 77 713 77 713 62 725 c 0,26,27
 55 732 55 732 58 736 c 0,28,29
 62 739 62 739 69 735 c 0,30,31
 107 727 107 727 153 727 c 2,32,-1
 486 727 l 1,33,-1
 486 730 l 2,34,35
 485 810 485 810 481 858 c 0,36,37
 479 875 479 875 491 871 c 0,38,39
 545 854 545 854 563 844 c 0,40,41
 577 837 577 837 561 828 c 0,42,43
 545 820 545 820 541 810 c 0,44,45
 534 791 534 791 534 730 c 2,46,-1
 534 727 l 1,47,-1
 834 727 l 2,48,49
 840 727 840 727 846 734 c 2,50,-1
 882 775 l 2,51,52
 889 782 889 782 896 775 c 0,53,54
 922 749 922 749 940 727 c 0,55,56
 951 713 951 713 944 703 c 0,57,58
 939 697 939 697 926 696 c 2,59,-1
 586 696 l 1,60,61
 607 662 607 662 631 632 c 0,62,63
 788 440 788 440 980 422 c 0,64,65
 987 421 987 421 986 414 c 0,66,67
 985 406 985 406 973 407 c 0,68,69
 957 408 957 408 938 398 c 0,70,71
 918 387 918 387 906 365 c 0,72,73
 902 360 902 360 890 367 c 0,74,75
 657 504 657 504 564 696 c 1,76,-1
 534 696 l 1,77,-1
 534 567 l 2,78,79
 534 485 534 485 532 405 c 0,80,81
 528 361 528 361 522 323 c 2,82,-1
 513 279 l 1,83,-1
 811 279 l 2,84,85
 823 279 823 279 827 283 c 0,86,87
 832 288 832 288 841 298 c 2,88,-1
 867 335 l 2,89,90
 874 344 874 344 883 335 c 0,91,92
 914 307 914 307 944 276 c 0,93,94
 954 266 954 266 953 257 c 0,95,96
 951 249 951 249 938 248 c 2,97,-1
 556 248 l 1,98,99
 602 160 602 160 656 109 c 0,100,101
 708 62 708 62 778 34 c 0,102,103
 843 7 843 7 934 -5 c 0,104,105
 949 -8 949 -8 959 -9 c 0,106,107
 966 -11 966 -11 966 -18 c 256,108,109
 966 -25 966 -25 959 -26 c 0,110,111
 940 -31 940 -31 919 -44 c 0,112,113
 897 -58 897 -58 887 -74 c 0,114,115
 880 -81 880 -81 870 -77 c 0,116,117
 761 -30 761 -30 703 12 c 0,118,119
 650 52 650 52 613 98 c 0,120,121
 571 150 571 150 532 247 c 1,122,-1
 531 248 l 1,123,-1
 506 248 l 1,124,125
 484 157 484 157 453 111 c 0,126,127
 410 51 410 51 328 5 c 0,128,129
 243 -42 243 -42 77 -88 c 0,130,131
 61 -92 61 -92 58 -76 c 0,132,133
 56 -61 56 -61 71 -57 c 0,134,135
 190 -29 190 -29 278 20 c 0,136,137
 382 80 382 80 425 162 c 0,138,139
 443 199 443 199 453 248 c 1,140,-1
 161 248 l 2,141,142
 134 248 134 248 100 241 c 0,143,144
 95 240 95 240 94 243 c 0,145,146
 81 263 81 263 71 279 c 0,147,148
 65 289 65 289 78 286 c 0,149,150
 139 280 139 280 146 279 c 2,151,-1
 459 279 l 1,152,153
 473 338 473 338 480 401 c 0,0,1
EndSplineSet
EndChar

StartChar: uniE039
Encoding: 57401 57401 157
Width: 1024
Flags: W
LayerCount: 2
Fore
SplineSet
380 530 m 0,1,2
 381 535 381 535 377 536 c 0,3,4
 371 537 371 537 370 533 c 0,5,6
 361 490 361 490 349 448 c 0,7,8
 348 448 348 448 349 447 c 1,9,10
 347 446 347 446 346 439 c 0,11,12
 272 273 272 273 161 110 c 0,13,14
 153 99 153 99 146 106 c 0,15,16
 139 111 139 111 148 124 c 0,17,18
 294 379 294 379 348 592 c 1,19,-1
 200 592 l 2,20,21
 158 591 158 591 127 585 c 0,22,23
 119 582 119 582 116 591 c 0,24,25
 112 609 112 609 97 621 c 0,26,27
 90 628 90 628 93 632 c 0,28,29
 97 635 97 635 104 631 c 0,30,31
 142 623 142 623 188 623 c 2,32,-1
 361 623 l 1,33,-1
 361 726 l 2,34,35
 360 806 360 806 356 854 c 0,36,37
 354 871 354 871 366 867 c 0,38,39
 420 850 420 850 438 840 c 0,40,41
 452 833 452 833 436 824 c 0,42,43
 420 816 420 816 416 806 c 0,44,45
 409 787 409 787 409 726 c 2,46,-1
 409 623 l 1,47,-1
 553 623 l 2,48,49
 559 623 559 623 565 630 c 2,50,-1
 601 671 l 2,51,52
 608 678 608 678 615 671 c 0,53,54
 641 645 641 645 659 623 c 0,55,56
 670 609 670 609 663 599 c 0,57,58
 658 593 658 593 645 592 c 2,59,-1
 409 592 l 1,60,-1
 409 475 l 1,61,62
 616 377 616 377 628 328 c 0,63,64
 633 304 633 304 623 288 c 0,65,66
 612 270 612 270 606 269 c 256,67,68
 600 268 600 268 588 286 c 0,69,70
 487 411 487 411 409 451 c 1,71,-1
 409 151 l 2,72,73
 409 34 409 34 413 -45 c 0,74,75
 414 -53 414 -53 408 -57 c 0,76,77
 394 -66 394 -66 366 -84 c 0,78,79
 353 -94 353 -94 354 -73 c 0,80,81
 360 60 360 60 361 151 c 2,82,-1
 361 435 l 1,83,0
 373 482 373 482 380 530 c 0,1,2
897 151 m 2,84,85
 897 34 897 34 901 -45 c 0,86,87
 902 -53 902 -53 896 -57 c 0,88,89
 882 -66 882 -66 854 -84 c 0,90,91
 841 -94 841 -94 842 -73 c 0,92,93
 848 60 848 60 849 151 c 2,94,-1
 849 722 l 2,95,96
 848 802 848 802 844 850 c 0,97,98
 842 867 842 867 854 863 c 0,99,100
 908 846 908 846 926 836 c 0,101,102
 940 829 940 829 924 820 c 0,103,104
 908 812 908 812 904 802 c 0,105,106
 897 783 897 783 897 722 c 2,107,-1
 897 151 l 2,84,85
EndSplineSet
EndChar

StartChar: uniE03A
Encoding: 57402 57402 158
Width: 1024
Flags: W
LayerCount: 2
Fore
SplineSet
492 690 m 0,1,2
 494 695 494 695 490 696 c 0,3,4
 485 697 485 697 484 696 c 0,5,6
 404 564 404 564 298 470 c 0,7,8
 205 387 205 387 61 302 c 0,9,10
 46 295 46 295 42 302 c 0,11,12
 34 315 34 315 46 322 c 0,13,14
 308 492 308 492 426 696 c 1,15,-1
 165 696 l 2,16,17
 123 695 123 695 92 689 c 0,18,19
 84 686 84 686 81 695 c 0,20,21
 77 713 77 713 62 725 c 0,22,23
 55 732 55 732 58 736 c 0,24,25
 62 739 62 739 69 735 c 0,26,27
 107 727 107 727 153 727 c 2,28,-1
 486 727 l 1,29,-1
 486 730 l 2,30,31
 485 810 485 810 481 858 c 0,32,33
 479 875 479 875 491 871 c 0,34,35
 545 854 545 854 563 844 c 0,36,37
 577 837 577 837 561 828 c 0,38,39
 545 820 545 820 541 810 c 0,40,41
 534 791 534 791 534 730 c 2,42,-1
 534 727 l 1,43,-1
 834 727 l 2,44,45
 840 727 840 727 846 734 c 2,46,-1
 882 775 l 2,47,48
 889 782 889 782 896 775 c 0,49,50
 922 749 922 749 940 727 c 0,51,52
 951 713 951 713 944 703 c 0,53,54
 939 697 939 697 926 696 c 2,55,-1
 586 696 l 1,56,57
 607 662 607 662 631 632 c 0,58,59
 788 440 788 440 980 422 c 0,60,61
 987 421 987 421 986 414 c 0,62,63
 985 406 985 406 973 407 c 0,64,65
 957 408 957 408 938 398 c 0,66,67
 918 387 918 387 906 365 c 0,68,69
 902 360 902 360 890 367 c 0,70,71
 657 504 657 504 564 696 c 1,72,-1
 534 696 l 1,73,-1
 534 567 l 2,74,75
 534 450 534 450 538 371 c 0,76,77
 539 363 539 363 533 359 c 0,78,79
 519 350 519 350 491 332 c 0,80,81
 478 322 478 322 479 343 c 0,82,83
 485 476 485 476 486 567 c 2,84,-1
 486 669 l 2,85,0
 489 683 489 683 492 690 c 0,1,2
306 -4 m 1,86,-1
 306 -67 l 2,87,88
 305 -75 305 -75 301 -76 c 0,89,90
 291 -80 291 -80 269 -89 c 0,91,92
 254 -95 254 -95 255 -85 c 0,93,94
 257 -59 257 -59 258 -34 c 2,95,-1
 258 276 l 2,96,97
 257 302 257 302 256 321 c 0,98,99
 256 330 256 330 260 331 c 0,100,101
 264 334 264 334 273 325 c 0,102,103
 286 312 286 312 304 299 c 1,104,-1
 706 299 l 2,105,106
 712 299 712 299 715 303 c 2,107,-1
 733 331 l 2,108,109
 740 339 740 339 747 332 c 0,110,111
 776 313 776 313 804 291 c 0,112,113
 810 285 810 285 809 279 c 0,114,115
 806 273 806 273 796 272 c 0,116,117
 784 270 784 270 778 260 c 0,118,119
 774 251 774 251 774 238 c 2,120,-1
 774 30 l 2,121,122
 774 -2 774 -2 780 -57 c 0,123,124
 782 -69 782 -69 773 -73 c 0,125,126
 738 -93 738 -93 731 -93 c 0,127,128
 726 -92 726 -92 726 -82 c 2,129,-1
 726 -4 l 1,130,-1
 306 -4 l 1,86,-1
306 27 m 1,131,-1
 726 27 l 1,132,-1
 726 268 l 1,133,-1
 306 268 l 1,134,-1
 306 27 l 1,131,-1
EndSplineSet
EndChar

StartChar: uniE03B
Encoding: 57403 57403 159
Width: 1024
Flags: W
LayerCount: 2
Fore
SplineSet
688 652 m 1,0,-1
 163 652 l 2,1,2
 121 651 121 651 90 645 c 0,3,4
 81 642 81 642 80 651 c 0,5,6
 75 669 75 669 60 682 c 0,7,8
 52 689 52 689 56 693 c 0,9,10
 60 696 60 696 67 692 c 0,11,12
 105 683 105 683 151 683 c 2,13,-1
 688 683 l 1,14,-1
 688 710 l 2,15,16
 687 790 687 790 683 838 c 0,17,18
 681 855 681 855 693 851 c 0,19,20
 747 834 747 834 765 824 c 0,21,22
 779 817 779 817 763 808 c 0,23,24
 747 800 747 800 743 790 c 0,25,26
 736 771 736 771 736 710 c 2,27,-1
 736 683 l 1,28,-1
 828 683 l 2,29,30
 842 684 842 684 858 702 c 2,31,-1
 884 739 l 2,32,33
 891 748 891 748 900 739 c 0,34,35
 971 676 971 676 970 661 c 0,36,37
 968 653 968 653 955 652 c 2,38,-1
 736 652 l 1,39,-1
 736 8 l 2,40,41
 735 -34 735 -34 719 -53 c 0,42,43
 700 -74 700 -74 661 -84 c 0,44,45
 650 -90 650 -90 649 -80 c 0,46,47
 646 -49 646 -49 634 -43 c 0,48,49
 613 -30 613 -30 549 -17 c 0,50,51
 537 -15 537 -15 538 -5 c 0,52,53
 539 6 539 6 581 3 c 0,54,55
 667 -2 667 -2 674 7 c 0,56,57
 687 21 687 21 688 46 c 2,58,-1
 688 652 l 1,0,-1
257 224 m 2,59,60
 215 223 215 223 184 217 c 0,61,62
 175 214 175 214 174 223 c 0,63,64
 169 241 169 241 154 254 c 0,65,66
 146 261 146 261 150 265 c 0,67,68
 154 268 154 268 161 264 c 0,69,70
 199 255 199 255 245 255 c 2,71,-1
 485 255 l 1,72,-1
 485 496 l 1,73,-1
 257 496 l 2,74,75
 215 495 215 495 184 489 c 0,76,77
 175 486 175 486 174 495 c 0,78,79
 169 513 169 513 154 526 c 0,80,81
 146 533 146 533 150 537 c 0,82,83
 154 540 154 540 161 536 c 0,84,85
 199 527 199 527 245 527 c 2,86,-1
 465 527 l 2,87,88
 471 527 471 527 474 531 c 2,89,-1
 492 559 l 2,90,91
 499 567 499 567 506 560 c 0,92,93
 535 541 535 541 563 519 c 0,94,95
 572 511 572 511 571 507 c 0,96,97
 569 502 569 502 562 498 c 0,98,99
 536 486 536 486 535 479 c 0,100,101
 533 473 533 473 533 466 c 2,102,-1
 533 302 l 2,103,104
 533 266 533 266 539 205 c 0,105,106
 540 194 540 194 534 193 c 0,107,108
 491 178 491 178 487 179 c 0,109,110
 485 180 485 180 485 190 c 2,111,-1
 485 224 l 1,112,-1
 257 224 l 2,59,60
EndSplineSet
EndChar

StartChar: uniE03C
Encoding: 57404 57404 160
Width: 1024
Flags: W
LayerCount: 2
Fore
SplineSet
251 243 m 1,0,-1
 482 243 l 1,1,2
 483 274 483 274 484 310 c 2,3,-1
 484 492 l 1,4,-1
 252 492 l 1,5,-1
 252 313 l 2,6,7
 251 277 251 277 251 243 c 1,0,-1
251 212 m 1,8,9
 251 168 251 168 252 131 c 0,10,11
 251 116 251 116 214 91 c 0,12,13
 206 87 206 87 202 87 c 0,14,15
 196 88 196 88 197 107 c 0,16,17
 201 207 201 207 204 313 c 2,18,-1
 204 465 l 2,19,20
 203 497 203 497 197 543 c 0,21,22
 195 553 195 553 198 554 c 0,23,24
 199 554 199 554 238 523 c 1,25,-1
 457 523 l 2,26,27
 469 523 469 523 476 530 c 2,28,-1
 501 556 l 2,29,30
 506 563 506 563 515 557 c 0,31,32
 546 534 546 534 568 515 c 0,33,34
 575 507 575 507 566 506 c 0,35,36
 549 503 549 503 540 494 c 0,37,38
 532 485 532 485 532 475 c 2,39,-1
 532 339 l 2,40,41
 533 271 533 271 540 172 c 0,42,43
 540 159 540 159 530 153 c 0,44,45
 485 127 485 127 481 128 c 0,46,47
 477 130 477 130 478 146 c 0,48,49
 480 175 480 175 481 212 c 1,50,-1
 251 212 l 1,8,9
688 652 m 1,51,-1
 163 652 l 2,52,53
 121 651 121 651 90 645 c 0,54,55
 81 642 81 642 80 651 c 0,56,57
 75 669 75 669 60 682 c 0,58,59
 52 689 52 689 56 693 c 0,60,61
 60 696 60 696 67 692 c 0,62,63
 105 683 105 683 151 683 c 2,64,-1
 688 683 l 1,65,-1
 688 710 l 2,66,67
 687 790 687 790 683 838 c 0,68,69
 681 855 681 855 693 851 c 0,70,71
 747 834 747 834 765 824 c 0,72,73
 779 817 779 817 763 808 c 0,74,75
 747 800 747 800 743 790 c 0,76,77
 736 771 736 771 736 710 c 2,78,-1
 736 683 l 1,79,-1
 828 683 l 2,80,81
 842 684 842 684 858 702 c 2,82,-1
 884 739 l 2,83,84
 891 748 891 748 900 739 c 0,85,86
 971 676 971 676 970 661 c 0,87,88
 968 653 968 653 955 652 c 2,89,-1
 736 652 l 1,90,-1
 736 8 l 2,91,92
 735 -34 735 -34 719 -53 c 0,93,94
 700 -74 700 -74 661 -84 c 0,95,96
 650 -90 650 -90 649 -80 c 0,97,98
 646 -49 646 -49 634 -43 c 0,99,100
 613 -30 613 -30 549 -17 c 0,101,102
 537 -15 537 -15 538 -5 c 0,103,104
 539 6 539 6 581 3 c 0,105,106
 667 -2 667 -2 674 7 c 0,107,108
 687 21 687 21 688 46 c 2,109,-1
 688 652 l 1,51,-1
EndSplineSet
EndChar

